{"glyphs":{"0":{"ha":718,"x_min":58,"x_max":659,"o":"m 481 328 l 481 559 q 358 763 481 763 q 266 713 296 763 q 235 559 235 664 l 235 328 q 266 172 235 221 q 359 123 297 123 q 451 172 420 123 q 481 328 481 222 m 659 541 l 659 345 q 580 78 659 170 q 359 -14 500 -14 q 138 78 218 -14 q 58 345 58 170 l 58 541 q 138 807 58 715 q 358 900 217 900 q 579 807 499 900 q 659 541 659 714 z "},"1":{"ha":718,"x_min":104,"x_max":463,"o":"m 463 0 l 285 0 l 285 731 l 104 731 l 104 857 l 463 888 l 463 0 z "},"2":{"ha":718,"x_min":43,"x_max":667,"o":"m 60 -1 l 60 116 l 347 424 q 435 545 409 496 q 462 636 462 593 q 431 729 462 694 q 343 764 401 764 q 253 723 285 764 q 220 610 220 682 l 47 610 l 45 614 q 126 819 43 737 q 347 901 209 901 q 563 830 484 901 q 641 639 641 760 q 601 497 641 562 q 450 313 561 432 l 292 140 l 294 137 l 667 137 l 667 -1 l 60 -1 z "},"3":{"ha":718,"x_min":41,"x_max":657,"o":"m 341 519 q 466 645 466 519 q 435 732 466 700 q 350 764 404 764 q 262 734 296 764 q 229 657 229 705 l 56 657 l 54 661 q 133 833 51 765 q 349 901 216 901 q 563 834 481 901 q 644 647 644 768 q 607 536 644 588 q 506 455 570 484 q 618 375 579 429 q 657 248 657 321 q 570 57 657 127 q 341 -14 482 -14 q 190 15 257 -14 q 82 102 122 44 q 43 237 41 160 l 44 241 l 217 241 q 253 156 217 189 q 349 123 290 123 q 444 156 408 123 q 479 250 479 190 q 340 385 479 385 l 241 385 l 241 519 l 341 519 z "},"4":{"ha":718,"x_min":35,"x_max":684,"o":"m 406 331 l 406 650 l 401 652 l 388 627 l 201 331 l 406 331 m 583 888 l 583 331 l 684 331 l 684 193 l 583 193 l 583 0 l 406 0 l 406 193 l 43 193 l 35 300 l 404 888 l 583 888 z "},"5":{"ha":718,"x_min":66,"x_max":662,"o":"m 631 888 l 631 745 l 281 745 l 256 540 q 393 582 311 581 q 591 505 521 584 q 662 289 662 427 q 583 68 662 151 q 362 -14 505 -14 q 212 15 279 -14 q 105 102 145 45 q 67 237 66 160 l 68 239 l 240 248 q 273 156 240 189 q 364 123 307 123 q 452 165 422 123 q 483 284 483 208 q 451 407 483 361 q 357 452 418 452 q 240 382 265 452 l 83 393 l 135 888 l 631 888 z "},"6":{"ha":718,"x_min":59,"x_max":677,"o":"m 498 294 l 499 294 q 466 414 499 369 q 376 460 432 460 q 237 401 278 460 l 237 342 q 275 180 237 237 q 377 123 312 123 q 465 172 431 123 q 498 294 498 221 m 60 519 l 59 519 q 158 796 59 692 q 416 900 258 900 q 594 863 507 900 l 562 732 q 417 760 480 760 q 287 699 335 760 q 242 532 239 638 l 244 528 q 424 595 307 595 q 609 512 541 595 q 677 294 677 429 q 594 72 677 159 q 373 -14 511 -14 q 148 82 235 -14 q 60 346 60 178 l 60 519 z "},"7":{"ha":718,"x_min":37,"x_max":665,"o":"m 665 888 l 665 751 q 547 593 593 668 q 470 438 500 519 q 423 279 439 357 q 395 90 407 201 l 387 0 l 208 0 l 217 90 q 493 751 257 478 l 37 751 l 37 888 l 665 888 z "},"8":{"ha":718,"x_min":56,"x_max":662,"o":"m 235 253 q 235 223 235 253 q 268 158 235 193 q 359 123 302 123 q 450 158 416 123 q 484 253 484 193 q 449 350 484 313 q 358 386 414 386 q 268 350 302 386 q 235 253 235 313 m 254 643 q 254 615 254 643 q 282 555 254 587 q 359 523 310 523 q 435 555 408 523 q 463 643 463 587 q 435 730 463 698 q 358 763 406 763 q 282 731 309 763 q 254 643 254 699 m 153 834 q 191 867 153 834 q 358 900 229 900 q 564 834 488 900 q 641 651 641 769 q 606 534 641 585 q 509 453 572 483 q 622 367 581 422 q 662 241 662 312 q 580 52 662 119 q 359 -15 498 -15 q 138 52 220 -15 q 56 241 56 119 q 96 368 56 313 q 208 454 136 423 q 111 534 145 484 q 77 651 77 585 q 153 834 77 769 z "},"9":{"ha":718,"x_min":50,"x_max":654,"o":"m 317 123 q 433 176 390 123 q 476 324 476 229 l 476 368 q 316 291 415 291 q 121 371 192 291 q 50 588 50 452 q 134 812 50 725 q 353 900 218 900 q 571 805 488 900 q 654 543 654 711 l 654 333 q 561 79 654 173 q 317 -14 468 -14 q 131 23 217 -14 l 151 152 l 152 152 q 317 123 227 123 m 353 763 q 325 763 353 763 q 262 713 296 763 q 228 589 228 664 q 259 468 228 513 q 346 422 290 422 q 476 482 432 422 l 476 564 q 443 712 476 661 q 353 763 409 763 z "},"\r":{"ha":342,"x_min":0,"x_max":0,"o":""}," ":{"ha":353,"x_min":0,"x_max":0,"o":""},"!":{"ha":498,"x_min":157,"x_max":336,"o":"m 336 157 l 336 0 l 157 0 l 157 157 l 336 157 m 336 888 l 336 307 l 157 307 l 157 888 l 336 888 z "},"\"":{"ha":669,"x_min":118,"x_max":538,"o":"m 296 952 l 296 745 l 214 601 l 136 601 l 118 736 l 118 952 l 296 952 m 538 952 l 538 745 l 455 601 l 378 601 l 359 744 l 359 952 l 538 952 z "},"#":{"ha":744,"x_min":29,"x_max":711,"o":"m 29 250 l 29 353 l 186 353 l 217 530 l 75 530 l 75 635 l 235 635 l 279 888 l 391 888 l 347 635 l 464 635 l 509 888 l 621 888 l 576 635 l 711 635 l 711 530 l 558 530 l 527 353 l 664 353 l 664 250 l 509 250 l 465 0 l 353 0 l 397 250 l 279 250 l 236 0 l 124 0 l 168 250 l 29 250 m 328 530 l 298 353 l 414 353 l 446 530 l 328 530 z "},"$":{"ha":718,"x_min":56,"x_max":659,"o":"m 367 110 l 367 109 q 452 138 422 109 q 481 218 481 168 q 453 299 481 268 q 356 358 425 330 q 151 472 213 410 q 89 637 89 533 q 154 807 89 742 q 332 884 219 873 l 332 1016 l 429 1016 l 429 884 q 598 793 537 867 q 657 602 659 720 l 656 599 l 481 599 q 452 710 481 671 q 372 749 423 749 q 294 720 320 749 q 267 640 267 690 q 294 561 267 590 q 394 503 321 532 q 513 449 466 475 q 594 390 559 423 q 644 316 629 357 q 659 220 659 275 q 595 51 659 115 q 416 -24 530 -13 l 416 -145 l 319 -145 l 319 -25 q 127 59 199 -13 q 58 260 56 130 l 60 262 l 234 262 q 270 147 234 184 q 367 110 305 110 z "},"%":{"ha":924,"x_min":58,"x_max":870,"o":"m 602 216 l 602 170 q 623 110 602 134 q 677 85 644 85 q 751 170 751 85 l 751 216 q 731 277 751 253 q 676 301 711 301 q 621 277 641 301 q 602 216 602 254 m 483 170 l 483 216 q 535 348 483 297 q 676 399 587 399 q 818 348 766 399 q 870 216 870 297 l 870 170 q 819 37 870 88 q 677 -14 767 -14 q 535 38 587 -14 q 483 170 483 89 m 176 716 l 176 669 q 196 609 176 633 q 252 586 216 586 q 307 609 287 586 q 326 669 326 633 l 326 716 q 306 778 326 753 q 251 802 286 802 q 196 778 216 802 q 176 716 176 753 m 715 760 l 281 65 l 195 111 l 629 806 l 715 760 m 58 669 l 58 716 q 110 849 58 798 q 252 900 161 900 q 393 849 342 900 q 444 716 444 798 l 444 669 q 393 538 444 589 q 252 487 342 487 q 110 538 162 487 q 58 669 58 589 z "},"&":{"ha":821,"x_min":37,"x_max":798,"o":"m 553 53 q 321 -14 448 -14 q 116 55 195 -14 q 37 238 37 124 q 75 359 37 307 q 198 471 112 411 q 135 574 155 528 q 115 668 115 621 q 181 837 115 774 q 357 900 247 900 q 515 841 454 900 q 576 694 576 782 q 465 498 576 580 l 408 458 l 576 262 q 623 431 623 339 l 755 431 q 671 151 755 260 l 798 1 l 797 -1 l 600 -1 l 553 53 m 269 360 q 216 251 216 310 q 249 157 216 192 q 343 123 283 123 q 464 155 404 123 l 281 368 l 269 360 m 437 686 q 437 701 437 686 q 415 740 437 717 q 355 763 393 763 q 296 737 318 763 q 275 667 275 711 q 327 555 275 623 l 380 589 q 425 632 412 610 q 437 686 437 655 z "},"'":{"ha":429,"x_min":118,"x_max":296,"o":"m 296 952 l 296 793 l 214 616 l 136 616 l 118 777 l 118 952 l 296 952 z "},"(":{"ha":600,"x_min":149,"x_max":487,"o":"m 149 348 l 149 361 q 173 582 149 477 q 240 766 198 688 q 337 901 283 845 q 450 982 391 956 l 454 981 l 487 893 q 350 694 401 829 q 298 361 298 558 l 298 345 q 350 13 298 148 q 487 -189 401 -122 l 454 -275 l 450 -275 q 337 -194 391 -250 q 240 -59 283 -138 q 173 126 198 20 q 149 348 149 232 z "},")":{"ha":599,"x_min":112,"x_max":460,"o":"m 460 361 l 460 349 q 434 130 460 235 q 364 -55 408 24 q 264 -192 320 -134 q 149 -274 209 -249 l 144 -274 l 112 -187 q 248 14 196 -122 q 300 347 300 150 l 300 363 q 248 694 300 557 q 112 897 195 830 l 144 983 l 149 983 q 264 901 209 958 q 364 764 320 844 q 434 579 408 685 q 460 361 460 474 z "},"*":{"ha":554,"x_min":16,"x_max":536,"o":"m 73 463 l 201 629 l 16 683 l 52 791 l 233 716 l 222 928 l 336 928 l 324 713 l 502 786 l 536 676 l 349 622 l 471 460 l 378 393 l 272 570 l 167 398 l 73 463 z "},"+":{"ha":682,"x_min":34,"x_max":644,"o":"m 424 746 l 424 505 l 644 505 l 644 352 l 424 352 l 424 99 l 255 99 l 255 352 l 34 352 l 34 505 l 255 505 l 255 746 l 424 746 z "},",":{"ha":322,"x_min":39,"x_max":254,"o":"m 254 132 l 254 -12 l 157 -205 l 39 -205 l 81 -7 l 81 132 l 254 132 z "},"-":{"ha":489,"x_min":69,"x_max":413,"o":"m 413 484 l 413 346 l 69 346 l 69 484 l 413 484 z "},".":{"ha":363,"x_min":88,"x_max":266,"o":"m 266 156 l 266 0 l 88 0 l 88 156 l 266 156 z "},"/":{"ha":504,"x_min":-9,"x_max":491,"o":"m 491 880 l 165 -85 l -9 -85 l 317 880 l 491 880 z "},":":{"ha":355,"x_min":79,"x_max":239,"o":"m 239 140 l 239 0 l 79 0 l 79 140 l 239 140 m 239 675 l 239 534 l 79 534 l 79 675 l 239 675 z "},";":{"ha":343,"x_min":66,"x_max":260,"o":"m 260 99 l 260 -31 l 173 -205 l 66 -205 l 104 -26 l 104 99 l 260 99 m 240 654 l 240 514 l 80 514 l 80 654 l 240 654 z "},"<":{"ha":637,"x_min":33,"x_max":559,"o":"m 559 467 l 207 340 l 207 337 l 559 213 l 559 47 l 33 271 l 33 410 l 559 633 l 559 467 z "},"=":{"ha":721,"x_min":83,"x_max":630,"o":"m 630 365 l 630 225 l 83 225 l 83 365 l 630 365 m 630 628 l 630 488 l 83 488 l 83 628 l 630 628 z "},">":{"ha":646,"x_min":73,"x_max":605,"o":"m 73 212 l 431 339 l 431 343 l 73 469 l 73 633 l 605 410 l 605 271 l 73 47 l 73 212 z "},"?":{"ha":800,"x_min":111,"x_max":688,"o":"m 469 153 l 469 0 l 290 0 l 290 153 l 469 153 m 469 252 l 290 252 q 295 325 290 296 q 316 379 300 353 q 353 424 332 404 q 414 474 374 444 q 487 555 465 517 q 510 646 510 593 q 480 730 510 699 q 399 762 450 762 q 318 734 348 762 q 287 656 288 707 l 114 656 l 113 659 q 188 838 111 775 q 399 901 264 901 q 611 832 533 901 q 688 643 688 764 q 646 504 688 568 q 528 390 603 439 q 480 334 492 362 q 469 252 469 307 z "},"@":{"ha":1109,"x_min":29,"x_max":1061,"o":"m 588 460 l 587 460 q 484 402 520 460 q 437 223 448 345 q 505 66 425 66 q 568 83 541 66 q 617 140 595 100 q 644 451 617 140 q 588 460 613 460 m 758 -43 q 676 -17 711 -43 q 627 58 642 10 q 466 -42 572 -42 q 334 31 379 -42 q 300 223 288 103 q 387 472 315 379 q 563 565 459 565 q 673 551 630 565 q 772 500 715 536 l 770 498 l 773 498 l 742 148 q 785 47 735 47 q 897 113 854 47 q 945 282 940 178 q 861 621 954 502 q 578 740 767 740 q 278 611 389 740 q 159 261 168 481 q 248 -82 148 43 q 534 -206 347 -206 q 641 -194 585 -206 q 736 -163 696 -182 l 760 -253 q 657 -293 720 -278 q 533 -307 595 -307 q 160 -156 290 -307 q 39 261 29 -5 q 86 498 45 391 q 195 679 126 604 q 362 794 264 753 q 577 835 460 835 l 576 835 l 577 835 q 844 768 734 835 q 1007 578 954 702 q 1055 282 1061 454 q 977 53 1049 144 q 885 -18 941 7 q 758 -43 829 -43 z "},"A":{"ha":800,"x_min":7,"x_max":800,"o":"m 620 0 l 559 192 l 248 192 l 187 0 l 7 0 l 313 888 l 496 888 l 800 0 l 620 0 m 402 681 l 292 332 l 516 332 l 406 681 l 402 681 z "},"B":{"ha":802,"x_min":83,"x_max":748,"o":"m 439 393 l 261 393 l 261 137 l 425 137 q 571 259 571 137 q 439 393 571 393 m 261 751 l 261 516 l 389 516 q 500 546 462 516 q 538 634 538 575 q 500 722 538 693 q 383 751 462 751 l 261 751 m 425 0 l 83 0 l 83 888 l 383 888 q 630 827 543 888 q 716 645 716 766 q 683 534 716 583 q 589 462 650 486 q 707 390 667 445 q 748 259 748 336 q 665 66 748 132 q 425 0 582 0 z "},"C":{"ha":799,"x_min":56,"x_max":758,"o":"m 581 300 l 753 300 l 753 297 q 666 69 756 153 q 416 -14 576 -14 q 155 88 255 -14 q 56 355 56 191 l 56 531 q 153 797 56 694 q 412 900 251 900 q 665 816 572 900 q 755 585 758 732 l 754 581 l 581 581 q 408 763 581 763 q 281 699 328 763 q 234 532 234 635 l 234 355 q 283 187 234 251 q 417 123 333 123 q 541 167 501 123 q 581 300 581 211 z "},"D":{"ha":819,"x_min":83,"x_max":762,"o":"m 379 751 l 261 751 l 261 137 l 379 137 q 529 201 474 137 q 583 370 583 264 l 583 519 q 529 688 583 624 q 379 751 474 751 m 388 0 l 83 0 l 83 888 l 388 888 q 657 785 553 888 q 762 517 762 682 l 762 370 q 657 103 762 206 q 388 0 553 0 z "},"E":{"ha":718,"x_min":83,"x_max":692,"o":"m 629 528 l 629 391 l 261 391 l 261 137 l 692 137 l 692 0 l 83 0 l 83 888 l 690 888 l 690 751 l 261 751 l 261 528 l 629 528 z "},"F":{"ha":722,"x_min":83,"x_max":696,"o":"m 633 507 l 633 370 l 261 370 l 261 0 l 83 0 l 83 888 l 696 888 l 696 751 l 261 751 l 261 507 l 633 507 z "},"G":{"ha":836,"x_min":60,"x_max":766,"o":"m 766 455 l 766 120 q 635 24 721 62 q 430 -14 550 -14 q 163 87 266 -14 q 60 350 60 188 l 60 536 q 159 799 60 698 q 417 900 258 900 q 663 823 575 900 q 752 613 750 745 l 751 610 l 583 610 q 536 723 577 682 q 417 763 496 763 q 288 700 338 763 q 238 537 238 637 l 238 350 q 290 185 238 248 q 430 123 342 123 q 587 167 542 123 l 587 332 l 430 332 l 430 455 l 766 455 z "},"H":{"ha":885,"x_min":83,"x_max":802,"o":"m 802 888 l 802 0 l 624 0 l 624 370 l 261 370 l 261 0 l 83 0 l 83 888 l 261 888 l 261 507 l 624 507 l 624 888 l 802 888 z "},"I":{"ha":367,"x_min":94,"x_max":272,"o":"m 272 888 l 272 0 l 94 0 l 94 888 l 272 888 z "},"J":{"ha":713,"x_min":35,"x_max":633,"o":"m 455 265 l 455 887 l 633 887 l 633 265 q 550 62 633 138 q 331 -14 468 -14 q 115 55 195 -14 q 39 253 35 123 l 40 257 l 213 257 q 337 123 213 123 q 421 161 388 123 q 455 265 455 200 z "},"K":{"ha":808,"x_min":83,"x_max":816,"o":"m 261 371 l 261 0 l 83 0 l 83 888 l 261 888 l 261 526 l 339 526 l 574 888 l 792 888 l 493 475 l 816 0 l 599 0 l 360 371 l 261 371 z "},"L":{"ha":676,"x_min":83,"x_max":656,"o":"m 261 888 l 261 137 l 656 137 l 656 0 l 83 0 l 83 888 l 261 888 z "},"M":{"ha":1090,"x_min":83,"x_max":1007,"o":"m 83 888 l 315 888 l 542 234 l 546 234 l 774 888 l 1007 888 l 1007 0 l 829 0 l 829 265 l 846 657 l 842 658 l 604 0 l 485 0 l 248 656 l 244 655 l 261 265 l 261 0 l 83 0 l 83 888 z "},"N":{"ha":885,"x_min":83,"x_max":802,"o":"m 802 888 l 802 0 l 624 0 l 265 608 l 261 607 l 261 0 l 83 0 l 83 888 l 261 888 l 620 282 l 624 283 l 624 888 l 802 888 z "},"O":{"ha":854,"x_min":56,"x_max":798,"o":"m 620 363 l 620 524 q 568 695 620 630 q 425 761 515 761 q 284 696 335 761 q 234 524 234 631 l 234 363 q 285 190 234 255 q 426 124 336 124 q 568 190 516 124 q 620 363 620 255 m 798 523 l 798 363 q 694 92 798 197 q 425 -14 591 -14 q 233 34 317 -14 q 102 169 149 83 q 56 363 56 254 l 56 523 q 159 794 56 688 q 426 900 261 900 q 694 794 590 900 q 798 523 798 688 z "},"P":{"ha":814,"x_min":83,"x_max":766,"o":"m 261 751 l 261 460 l 437 460 q 549 499 510 460 q 589 605 589 538 q 549 711 589 671 q 437 751 510 751 l 261 751 m 437 322 l 261 322 l 261 0 l 83 0 l 83 888 l 437 888 q 678 811 589 888 q 766 605 766 734 q 678 399 766 476 q 437 322 590 322 z "},"Q":{"ha":875,"x_min":56,"x_max":844,"o":"m 620 349 l 620 509 q 568 681 620 615 q 425 747 515 747 q 284 682 335 747 q 234 509 234 616 l 234 349 q 285 175 234 241 q 426 110 336 110 q 568 175 516 110 q 620 349 620 241 m 798 509 l 798 349 q 696 80 798 186 l 844 -64 l 727 -159 l 567 -4 q 425 -28 502 -28 q 233 20 317 -28 q 102 154 149 68 q 56 349 56 240 l 56 509 q 159 780 56 673 q 426 886 261 886 q 694 780 590 886 q 798 509 798 673 z "},"R":{"ha":827,"x_min":83,"x_max":792,"o":"m 261 -1 l 83 -1 l 83 888 l 418 888 q 656 819 571 888 q 742 625 742 749 q 600 428 742 490 q 748 216 748 384 l 748 151 q 759 70 748 108 q 792 13 770 31 l 792 0 l 608 0 q 570 152 570 31 l 570 215 q 533 318 570 281 q 431 355 497 355 l 261 355 l 261 -1 m 261 751 l 261 492 l 415 492 q 564 618 564 492 q 527 716 564 681 q 418 751 490 751 l 261 751 z "},"S":{"ha":793,"x_min":54,"x_max":742,"o":"m 413 121 l 414 121 q 525 150 486 121 q 564 231 564 180 q 529 313 564 282 q 401 372 493 344 q 156 483 233 420 q 79 654 79 547 q 172 831 79 762 q 411 900 265 900 q 648 823 556 900 q 737 630 741 746 l 736 627 l 564 627 q 522 727 564 690 q 408 764 480 764 q 297 733 336 764 q 257 655 257 703 q 297 578 257 607 q 444 516 338 549 q 668 407 595 474 q 742 229 742 339 q 653 52 742 118 q 414 -14 564 -14 q 234 19 315 -14 q 103 117 153 52 q 55 270 54 183 l 56 274 l 229 274 q 413 121 229 121 z "},"T":{"ha":713,"x_min":17,"x_max":697,"o":"m 697 888 l 697 751 l 446 751 l 446 0 l 267 0 l 267 751 l 17 751 l 17 888 l 697 888 z "},"U":{"ha":859,"x_min":73,"x_max":786,"o":"m 608 887 l 786 887 l 786 298 q 689 68 786 150 q 429 -14 592 -14 q 170 67 266 -14 q 73 298 73 149 l 73 887 l 252 887 l 252 298 q 298 167 252 211 q 429 123 344 123 q 561 166 515 123 q 608 298 608 210 l 608 887 z "},"V":{"ha":795,"x_min":4,"x_max":791,"o":"m 193 888 l 385 236 l 395 188 l 399 188 l 410 235 l 603 888 l 791 888 l 489 0 l 306 0 l 4 888 l 193 888 z "},"W":{"ha":1108,"x_min":15,"x_max":1090,"o":"m 618 888 l 786 279 l 790 279 l 917 888 l 1090 888 l 883 0 l 718 0 l 555 587 l 551 587 l 388 0 l 223 0 l 15 888 l 189 888 l 317 280 l 321 279 l 487 888 l 618 888 z "},"X":{"ha":795,"x_min":19,"x_max":785,"o":"m 232 888 l 396 574 l 563 888 l 770 888 l 507 448 l 785 0 l 570 0 l 399 321 l 227 0 l 19 0 l 290 448 l 26 888 l 232 888 z "},"Y":{"ha":789,"x_min":3,"x_max":785,"o":"m 480 0 l 302 0 l 302 321 l 3 888 l 199 888 l 393 479 l 396 479 l 590 888 l 785 888 l 480 313 l 480 0 z "},"Z":{"ha":736,"x_min":47,"x_max":697,"o":"m 697 137 l 697 0 l 47 0 l 47 93 l 469 751 l 47 751 l 47 888 l 687 888 l 687 800 l 262 137 l 697 137 z "},"[":{"ha":511,"x_min":146,"x_max":410,"o":"m 410 1033 l 410 901 l 324 901 l 324 -74 l 410 -74 l 410 -205 l 146 -205 l 146 1033 l 410 1033 z "},"\\":{"ha":527,"x_min":1,"x_max":549,"o":"m 372 -85 l 1 880 l 178 880 l 549 -85 l 372 -85 z "},"]":{"ha":511,"x_min":101,"x_max":366,"o":"m 101 901 l 101 1033 l 366 1033 l 366 -205 l 101 -205 l 101 -74 l 188 -74 l 188 901 l 101 901 z "},"^":{"ha":547,"x_min":27,"x_max":522,"o":"m 267 747 l 168 494 l 27 494 l 210 938 l 339 938 l 522 494 l 380 494 l 279 747 l 275 767 l 271 767 l 267 747 z "},"_":{"ha":558,"x_min":1,"x_max":556,"o":"m 556 -15 l 556 -149 l 1 -149 l 1 -15 l 556 -15 z "},"`":{"ha":414,"x_min":47,"x_max":357,"o":"m 237 984 l 357 822 l 212 822 l 47 981 l 48 984 l 237 984 z "},"a":{"ha":671,"x_min":35,"x_max":635,"o":"m 250 -14 q 91 39 147 -14 q 35 188 35 92 q 109 336 35 283 q 328 389 184 389 l 427 389 l 427 441 q 401 515 427 490 q 331 541 376 541 q 261 520 285 541 q 237 462 237 499 l 65 463 l 65 466 q 138 612 60 552 q 338 671 216 671 q 533 610 460 671 q 606 440 606 549 l 606 167 q 635 -1 606 78 l 456 -1 q 430 98 435 49 q 250 -14 365 -14 m 211 191 l 212 191 q 234 137 212 157 q 297 117 256 117 q 376 140 339 117 q 426 195 412 163 l 426 288 l 327 288 q 241 261 271 288 q 211 191 211 233 z "},"b":{"ha":705,"x_min":68,"x_max":664,"o":"m 486 311 l 486 323 q 457 479 486 425 q 361 532 427 532 q 246 465 279 532 l 246 186 q 363 124 279 124 q 458 171 429 124 q 486 311 486 217 m 664 323 l 664 311 q 597 73 664 159 q 408 -14 531 -14 q 235 81 296 -14 l 221 -1 l 68 -1 l 68 951 l 246 951 l 246 589 q 406 671 304 671 q 597 578 531 671 q 664 323 664 485 z "},"c":{"ha":647,"x_min":38,"x_max":616,"o":"m 216 337 l 216 318 q 345 122 216 122 q 422 150 393 122 q 450 224 450 178 l 612 224 l 614 220 q 539 53 616 120 q 345 -15 462 -15 q 119 76 200 -15 q 38 318 38 168 l 38 336 q 119 579 38 487 q 345 671 200 671 q 542 601 468 671 q 614 418 616 532 l 613 414 l 450 414 q 422 500 450 467 q 345 534 393 534 q 216 337 216 534 z "},"d":{"ha":705,"x_min":41,"x_max":637,"o":"m 300 671 q 458 589 397 671 l 458 951 l 637 951 l 637 -1 l 484 -1 l 469 79 q 298 -14 406 -14 q 109 74 177 -14 q 41 311 41 161 l 42 323 q 110 577 42 483 q 300 671 178 671 m 344 124 q 457 185 420 124 l 457 467 q 345 532 419 532 q 250 477 281 532 q 218 323 218 421 l 219 311 q 344 124 219 124 z "},"e":{"ha":662,"x_min":47,"x_max":627,"o":"m 452 409 q 425 500 452 467 q 347 533 398 533 q 267 496 296 533 q 231 396 238 460 l 233 393 l 452 393 l 452 409 m 361 -15 q 133 75 219 -15 q 47 309 47 165 l 47 334 q 84 509 47 432 q 188 628 120 585 q 346 671 256 671 q 553 592 479 671 q 627 373 627 512 l 627 276 l 233 276 l 231 272 q 275 164 236 205 q 376 123 315 123 q 475 134 437 123 q 564 172 514 145 l 612 62 l 612 62 q 504 6 569 26 q 361 -15 439 -15 z "},"f":{"ha":447,"x_min":15,"x_max":456,"o":"m 293 0 l 113 0 l 113 535 l 15 535 l 15 661 l 113 661 l 113 734 q 177 905 113 845 q 357 965 241 965 q 456 952 397 965 l 441 820 q 381 826 397 826 q 293 734 293 826 l 293 661 l 425 661 l 425 535 l 293 535 l 293 0 z "},"g":{"ha":705,"x_min":41,"x_max":640,"o":"m 302 643 q 471 547 409 643 l 486 631 l 640 631 l 640 -26 q 555 -226 640 -155 q 319 -296 471 -296 q 109 -245 211 -296 l 142 -112 q 317 -152 224 -152 q 426 -122 391 -152 q 460 -26 460 -92 l 460 34 q 299 -43 399 -43 q 110 45 178 -43 q 41 282 41 134 l 43 295 q 111 549 43 454 q 302 643 180 643 m 345 96 q 459 155 424 96 l 459 441 q 345 505 422 505 q 250 449 281 505 q 219 295 219 393 l 220 282 q 345 96 220 96 z "},"h":{"ha":705,"x_min":64,"x_max":639,"o":"m 241 577 q 416 673 308 673 q 582 603 524 673 q 639 392 639 533 l 639 0 l 460 0 l 460 393 q 434 502 460 469 q 353 534 408 534 q 242 484 281 534 l 242 0 l 64 0 l 64 952 l 242 952 l 241 577 z "},"i":{"ha":334,"x_min":77,"x_max":256,"o":"m 256 661 l 256 0 l 77 0 l 77 661 l 256 661 m 256 952 l 256 819 l 77 819 l 77 952 l 256 952 z "},"j":{"ha":332,"x_min":-60,"x_max":260,"o":"m 82 631 l 260 631 l 260 -54 q 199 -233 260 -170 q 28 -296 138 -296 q -60 -286 -19 -296 l -52 -150 q 7 -157 -22 -157 q 82 -54 82 -157 l 82 631 m 257 922 l 257 790 l 78 790 l 78 922 l 257 922 z "},"k":{"ha":669,"x_min":68,"x_max":682,"o":"m 247 277 l 247 0 l 68 0 l 68 952 l 247 952 l 247 412 l 290 412 l 444 661 l 650 661 l 439 361 l 682 0 l 478 0 l 296 277 l 247 277 z "},"l":{"ha":334,"x_min":77,"x_max":256,"o":"m 256 952 l 256 0 l 77 0 l 77 952 l 256 952 z "},"m":{"ha":1082,"x_min":68,"x_max":1013,"o":"m 628 471 l 629 434 l 629 0 l 452 0 l 452 400 q 428 503 452 472 q 354 534 404 534 q 246 481 283 534 l 246 0 l 68 0 l 68 661 l 235 661 l 242 573 q 435 673 308 673 q 609 559 563 673 q 803 673 673 673 q 958 604 903 673 q 1013 400 1013 536 l 1013 0 l 835 0 l 835 400 q 811 504 835 473 q 738 534 788 534 q 628 471 663 534 z "},"n":{"ha":705,"x_min":65,"x_max":642,"o":"m 429 673 q 587 608 532 673 q 642 412 642 544 l 642 0 l 463 0 l 463 412 q 436 506 463 477 q 355 534 410 534 q 243 479 284 534 l 243 0 l 65 0 l 65 661 l 232 660 l 240 565 q 429 673 309 673 z "},"o":{"ha":705,"x_min":41,"x_max":664,"o":"m 218 335 l 218 322 q 251 175 218 228 q 352 123 284 123 q 453 176 420 123 q 486 322 486 229 l 486 335 q 452 480 486 427 q 352 534 419 534 q 252 480 285 534 q 218 335 218 427 m 41 322 l 41 335 q 124 579 41 486 q 352 671 207 671 q 580 579 496 671 q 664 335 664 486 l 664 322 q 581 78 664 170 q 352 -14 497 -14 q 124 78 208 -14 q 41 322 41 170 z "},"p":{"ha":705,"x_min":68,"x_max":664,"o":"m 406 -41 q 245 35 302 -41 l 245 -282 l 68 -282 l 68 632 l 229 632 l 239 554 q 406 644 300 644 q 596 550 528 644 q 664 296 664 456 l 663 283 q 595 47 663 135 q 406 -41 527 -41 m 486 283 l 486 296 q 454 450 486 394 q 359 506 422 506 q 246 442 280 506 l 246 153 q 361 96 279 96 q 455 145 424 96 q 486 283 486 194 z "},"q":{"ha":705,"x_min":41,"x_max":635,"o":"m 218 296 l 218 283 q 343 96 218 96 q 456 153 420 96 l 456 446 q 345 507 419 507 q 250 451 281 507 q 218 296 218 395 m 41 283 l 41 296 q 109 550 41 456 q 298 644 176 644 q 467 551 405 644 l 484 632 l 635 632 l 635 -282 l 456 -282 l 456 33 q 297 -41 397 -41 q 109 47 176 -41 q 41 283 41 135 z "},"r":{"ha":437,"x_min":68,"x_max":435,"o":"m 246 0 l 68 0 l 68 661 l 234 661 l 241 563 q 387 673 292 673 q 435 665 410 673 l 416 507 l 351 509 q 246 446 275 509 l 246 0 z "},"s":{"ha":644,"x_min":35,"x_max":597,"o":"m 324 108 l 324 106 q 399 125 373 106 q 425 177 425 144 q 396 230 425 210 q 292 268 366 251 q 113 339 171 292 q 56 470 56 386 q 128 612 56 553 q 322 670 200 670 q 520 611 445 670 q 591 461 595 553 l 590 458 l 418 458 q 392 523 418 498 q 321 547 366 547 q 251 527 276 547 q 226 473 226 506 q 253 422 226 441 q 357 389 280 404 q 539 317 481 364 q 597 183 597 269 q 521 42 597 98 q 318 -14 445 -14 q 113 51 191 -14 q 39 205 35 115 l 39 209 l 203 209 q 324 108 205 108 z "},"t":{"ha":437,"x_min":5,"x_max":401,"o":"m 102 821 l 280 821 l 280 659 l 391 659 l 391 534 l 280 534 l 280 197 q 339 126 280 126 q 387 133 360 126 l 401 4 q 294 -14 345 -14 q 102 197 102 -14 l 102 534 l 5 534 l 5 659 l 102 659 l 102 821 z "},"u":{"ha":705,"x_min":64,"x_max":640,"o":"m 286 -14 q 122 54 179 -14 q 64 260 64 121 l 64 659 l 241 659 l 241 259 q 265 156 241 188 q 338 124 289 124 q 461 178 422 124 l 461 659 l 640 659 l 640 -1 l 488 -1 l 472 94 q 286 -14 408 -14 z "},"v":{"ha":638,"x_min":9,"x_max":629,"o":"m 196 661 l 307 246 l 319 185 l 322 185 l 334 246 l 443 661 l 629 661 l 405 0 l 235 0 l 9 661 l 196 661 z "},"w":{"ha":920,"x_min":18,"x_max":900,"o":"m 518 661 l 643 236 l 646 236 l 732 661 l 900 661 l 732 0 l 583 0 l 460 393 l 456 393 l 334 0 l 186 0 l 18 661 l 185 661 l 272 237 l 276 237 l 399 661 l 518 661 z "},"x":{"ha":638,"x_min":12,"x_max":630,"o":"m 218 661 l 317 450 l 321 450 l 422 661 l 623 661 l 425 334 l 630 0 l 429 0 l 321 219 l 213 0 l 12 0 l 217 334 l 18 661 l 218 661 z "},"y":{"ha":638,"x_min":3,"x_max":635,"o":"m 79 -153 l 113 -156 q 217 -80 187 -156 l 237 -29 l 3 631 l 195 631 l 306 248 l 313 211 l 317 211 l 443 631 l 635 631 l 367 -129 q 334 -195 351 -168 q 292 -248 317 -223 q 146 -296 240 -296 q 58 -282 117 -296 l 79 -153 z "},"z":{"ha":638,"x_min":46,"x_max":595,"o":"m 595 137 l 595 0 l 46 0 l 46 105 l 360 522 l 56 522 l 56 661 l 584 661 l 584 559 l 267 137 l 595 137 z "},"{":{"ha":576,"x_min":102,"x_max":463,"o":"m 210 63 l 210 187 q 102 315 210 315 l 102 438 q 210 566 210 438 l 210 690 q 262 870 210 800 q 429 974 313 941 l 463 878 q 391 813 413 859 q 370 690 370 766 l 370 566 q 259 376 370 431 q 370 188 370 320 l 370 64 q 391 -59 370 -12 q 463 -124 413 -106 l 429 -221 q 262 -117 313 -189 q 210 63 210 -46 z "},"|":{"ha":462,"x_min":178,"x_max":286,"o":"m 286 888 l 286 -165 l 178 -165 l 178 888 l 286 888 z "},"}":{"ha":577,"x_min":114,"x_max":475,"o":"m 208 64 l 208 188 q 321 377 208 323 q 208 566 208 431 l 208 691 q 186 813 208 767 q 114 879 164 860 l 148 975 q 315 871 263 942 q 368 691 368 800 l 368 566 q 475 439 368 439 l 475 315 q 368 188 368 315 l 368 64 q 315 -116 368 -45 q 148 -220 262 -188 l 114 -124 q 186 -58 164 -105 q 208 64 208 -12 z "},"~":{"ha":810,"x_min":65,"x_max":745,"o":"m 555 256 q 459 276 503 256 q 368 338 416 295 q 312 377 334 366 q 260 389 290 389 q 210 358 231 389 q 188 283 188 328 l 65 299 q 118 464 65 399 q 259 529 170 529 q 443 448 349 529 q 496 408 473 420 q 547 397 518 397 q 598 429 576 397 q 621 505 621 460 l 745 488 q 691 323 745 389 q 555 256 637 256 z "}," ":{"ha":353,"x_min":0,"x_max":0,"o":""},"¡":{"ha":353,"x_min":78,"x_max":276,"o":"m 83 -250 l 104 365 l 251 365 l 271 -250 l 83 -250 m 105 621 q 119 634 105 621 q 177 647 132 647 q 249 621 222 647 q 276 554 276 595 q 248 487 276 513 q 177 460 220 460 q 106 487 134 460 q 78 554 78 513 q 105 621 78 595 z "},"¢":{"ha":719,"x_min":60,"x_max":640,"o":"m 363 114 q 443 141 412 114 q 473 212 473 168 l 640 212 q 579 59 638 123 q 425 -22 521 -5 l 425 -165 l 303 -165 l 303 -23 q 124 83 189 -5 q 60 309 60 170 l 60 322 q 124 544 60 456 q 303 652 188 632 l 303 789 l 425 789 l 425 651 q 581 566 525 633 q 639 398 637 498 l 473 398 q 442 482 472 450 q 361 513 412 513 q 268 468 298 513 q 237 325 237 422 l 237 304 l 237 305 q 268 159 237 204 q 363 114 299 114 z "},"£":{"ha":743,"x_min":60,"x_max":709,"o":"m 528 351 l 345 351 l 348 267 q 310 147 348 191 l 709 147 l 709 0 l 62 0 l 62 147 l 119 147 q 162 256 162 158 l 159 351 l 60 351 l 60 496 l 155 496 l 150 634 q 225 829 150 758 q 428 901 300 901 q 631 832 557 901 q 705 646 705 764 l 529 646 q 503 725 529 698 q 431 753 477 753 q 359 722 385 753 q 333 634 333 692 l 339 496 l 528 496 l 528 351 z "},"¤":{"ha":865,"x_min":49,"x_max":822,"o":"m 216 503 q 183 370 183 442 q 216 235 183 297 q 307 138 249 174 q 434 102 367 102 q 559 138 501 102 q 650 235 617 174 q 684 370 684 297 q 651 504 684 442 q 559 600 618 565 q 433 635 501 635 q 308 601 366 635 q 216 503 250 566 l 216 503 m 654 64 q 434 -14 558 -14 q 214 63 311 -14 l 135 -18 l 49 71 l 131 154 q 70 373 70 250 q 137 592 70 496 l 49 682 l 135 770 l 222 681 q 433 751 315 751 q 648 680 552 751 l 736 770 l 822 682 l 732 589 q 797 372 797 492 q 737 156 797 252 l 822 71 l 736 -18 l 654 64 z "},"¥":{"ha":766,"x_min":12,"x_max":752,"o":"m 666 453 l 666 346 l 471 346 l 471 276 l 666 276 l 666 170 l 471 170 l 471 0 l 288 0 l 288 170 l 83 170 l 83 276 l 288 276 l 288 346 l 83 346 l 83 453 l 241 453 l 12 888 l 214 888 l 382 519 l 551 888 l 752 888 l 523 453 l 666 453 z "},"¦":{"ha":315,"x_min":78,"x_max":237,"o":"m 237 -183 l 78 -183 l 78 302 l 237 302 l 237 -183 m 237 870 l 237 408 l 78 408 l 78 870 l 237 870 z "},"§":{"ha":785,"x_min":56,"x_max":720,"o":"m 720 262 q 621 96 720 151 q 703 -77 703 34 q 620 -248 703 -187 q 382 -308 536 -308 q 142 -242 229 -308 q 56 -54 56 -177 l 232 -53 q 387 -165 232 -165 q 491 -142 455 -165 q 527 -80 527 -120 q 488 -16 527 -41 q 338 40 448 9 q 170 104 227 71 q 85 184 113 137 q 57 294 57 228 q 155 461 57 404 q 73 633 73 524 q 158 806 73 742 q 392 869 244 869 q 624 801 541 869 q 707 609 707 732 l 530 609 q 493 695 530 663 q 389 728 455 728 q 286 704 323 728 q 250 637 250 680 q 283 571 250 593 q 429 519 317 549 q 602 456 542 489 q 692 375 662 422 l 691 375 q 720 262 720 327 m 234 313 q 259 248 234 270 q 360 201 284 225 l 496 160 q 546 245 546 188 q 518 308 546 283 q 418 356 490 332 l 279 398 q 234 313 234 374 z "},"¨":{"ha":583,"x_min":57,"x_max":523,"o":"m 225 917 q 225 901 225 917 q 202 862 225 884 q 141 840 178 840 q 81 862 104 840 q 57 917 57 884 q 80 973 57 951 q 141 995 104 995 q 202 972 178 995 q 225 917 225 949 m 499 862 q 487 851 499 862 q 438 840 475 840 q 377 862 401 840 q 354 917 354 884 q 378 972 354 949 q 438 995 402 995 q 498 972 474 995 q 523 917 523 950 q 499 862 523 884 z "},"©":{"ha":980,"x_min":52,"x_max":919,"o":"m 587 362 l 677 362 l 678 359 q 628 219 681 267 q 477 171 575 171 q 322 235 380 171 q 264 407 264 300 l 264 479 q 322 651 264 587 q 477 715 380 715 q 628 667 574 715 q 679 528 681 618 l 677 524 l 587 524 q 561 607 587 581 q 477 633 534 633 q 390 592 420 633 q 359 480 359 551 l 359 407 q 390 294 359 336 q 477 253 420 253 q 560 279 534 253 q 587 362 587 304 m 667 774 q 626 799 667 774 q 486 823 585 823 q 304 774 387 823 q 174 637 222 724 q 127 444 127 549 q 231 172 127 282 q 486 62 335 62 q 740 172 636 62 q 844 444 844 282 q 797 637 844 549 q 667 774 749 724 m 654 21 q 614 4 654 21 q 486 -14 574 -14 q 316 21 397 -14 q 178 118 236 57 q 86 263 120 178 q 52 444 52 349 q 110 675 52 570 q 267 840 168 780 q 486 899 366 899 q 704 840 605 899 q 861 675 804 780 q 919 444 919 570 q 885 263 919 349 q 792 118 850 178 q 654 21 734 57 z "},"ª":{"ha":555,"x_min":83,"x_max":477,"o":"m 358 519 q 238 469 312 469 q 123 506 163 469 q 83 610 83 543 q 135 712 83 676 q 292 749 187 749 l 354 749 l 354 780 q 283 857 354 857 q 221 842 243 857 q 199 797 199 826 l 94 806 q 146 909 94 869 q 283 948 199 948 q 414 904 367 948 q 461 779 461 860 l 461 586 q 477 477 461 524 l 369 478 q 358 519 362 494 m 191 610 q 262 557 191 557 q 311 568 286 557 q 354 594 337 578 l 354 677 l 290 677 q 217 659 243 677 q 191 610 191 641 z "},"«":{"ha":625,"x_min":40,"x_max":586,"o":"m 325 572 l 178 328 l 325 85 l 211 85 l 40 323 l 40 334 l 211 572 l 325 572 m 586 572 l 439 328 l 586 85 l 472 85 l 301 323 l 301 334 l 472 572 l 586 572 z "},"¬":{"ha":689,"x_min":77,"x_max":587,"o":"m 587 517 l 587 254 l 465 254 l 465 412 l 77 412 l 77 517 l 587 517 z "},"­":{"ha":485,"x_min":62,"x_max":406,"o":"m 406 484 l 406 346 l 62 346 l 62 484 l 406 484 z "},"®":{"ha":980,"x_min":52,"x_max":919,"o":"m 397 193 l 305 193 l 305 711 l 477 711 q 622 670 570 711 q 675 551 675 628 q 606 445 675 484 q 658 393 643 426 q 673 308 673 359 q 684 202 673 226 l 684 192 l 589 192 q 581 310 581 214 q 561 377 581 356 q 494 397 541 397 l 397 399 l 397 193 m 397 629 l 397 479 l 480 479 q 555 498 526 479 q 583 550 583 518 q 562 611 583 593 q 484 629 540 628 l 397 629 m 797 253 q 844 443 844 340 q 798 632 844 546 q 668 770 752 718 q 486 823 584 823 q 304 773 387 823 q 174 635 222 723 q 126 443 126 547 q 174 251 126 340 q 304 112 222 163 q 485 62 387 62 q 667 113 583 62 q 797 253 751 165 m 109 214 q 52 445 52 321 q 109 673 52 568 q 267 840 165 778 q 486 900 369 900 q 704 840 602 900 q 862 673 805 779 q 919 444 919 568 q 861 213 919 319 q 703 47 804 107 q 485 -14 602 -14 q 268 47 368 -14 q 110 214 168 108 l 109 214 z "},"¯":{"ha":626,"x_min":90,"x_max":536,"o":"m 536 977 l 536 875 l 90 875 l 90 977 l 536 977 z "},"°":{"ha":486,"x_min":77,"x_max":406,"o":"m 243 873 q 227 873 243 873 q 189 851 211 873 q 167 796 167 828 q 189 742 167 764 q 243 720 211 720 q 296 741 275 720 q 317 795 317 763 q 296 851 317 828 q 243 873 275 873 m 358 677 q 334 653 358 677 q 243 629 310 629 q 126 677 176 629 q 77 795 77 726 q 126 914 77 865 q 242 964 175 964 q 358 915 310 964 q 406 795 406 865 q 358 677 406 726 z "},"±":{"ha":671,"x_min":54,"x_max":614,"o":"m 596 144 l 596 1 l 69 1 l 69 144 l 596 144 m 413 785 l 413 575 l 614 575 l 614 428 l 413 428 l 413 205 l 259 205 l 259 428 l 54 428 l 54 575 l 259 575 l 259 785 l 413 785 z "},"´":{"ha":414,"x_min":62,"x_max":374,"o":"m 62 831 l 182 1021 l 374 1021 l 205 831 l 62 831 z "},"µ":{"ha":770,"x_min":85,"x_max":673,"o":"m 85 632 l 261 632 l 261 252 q 286 138 261 173 q 371 102 311 102 q 497 167 463 102 l 497 632 l 673 632 l 673 -28 l 509 -28 l 505 14 q 368 -41 451 -41 q 261 -14 305 -41 l 261 -282 l 85 -282 l 85 632 z "},"¶":{"ha":612,"x_min":46,"x_max":530,"o":"m 530 0 l 397 0 l 397 317 l 348 317 q 127 394 208 317 q 46 603 46 471 q 127 811 46 734 q 349 888 208 888 l 530 888 l 530 0 z "},"·":{"ha":376,"x_min":85,"x_max":285,"o":"m 285 463 q 285 441 285 463 q 257 394 285 420 q 185 368 229 368 q 113 394 141 368 q 85 463 85 420 q 113 531 85 505 q 185 557 141 557 q 257 531 229 557 q 285 463 285 505 z "},"¸":{"ha":334,"x_min":60,"x_max":296,"o":"m 296 -168 q 240 -275 296 -236 q 83 -313 184 -313 l 78 -212 q 146 -162 146 -212 q 127 -127 146 -137 q 60 -115 108 -117 l 79 -27 l 211 -28 l 204 -63 q 296 -168 296 -79 z "},"º":{"ha":571,"x_min":72,"x_max":495,"o":"m 179 728 l 179 684 q 207 590 179 624 q 284 557 235 557 q 360 590 333 557 q 388 682 388 623 l 388 731 q 360 824 388 790 q 283 857 332 857 q 207 824 235 857 q 179 728 179 790 m 72 687 l 72 731 q 130 888 72 829 q 283 947 188 947 q 437 888 379 947 q 495 728 495 829 l 495 684 q 438 527 495 586 q 284 468 380 468 q 130 527 187 468 q 72 687 72 587 z "},"»":{"ha":625,"x_min":46,"x_max":598,"o":"m 46 572 l 160 572 l 331 334 l 331 322 l 160 84 l 46 84 l 193 328 l 46 572 m 313 572 l 427 572 l 598 334 l 598 322 l 427 84 l 313 84 l 460 328 l 313 572 z "},"¼":{"ha":897,"x_min":191,"x_max":711,"o":"m 711 774 l 277 79 l 191 125 l 625 821 l 711 774 z "},"½":{"ha":951,"x_min":166,"x_max":686,"o":"m 686 774 l 252 79 l 166 125 l 600 821 l 686 774 z "},"¾":{"ha":1010,"x_min":290,"x_max":810,"o":"m 810 774 l 376 79 l 290 125 l 724 821 l 810 774 z "},"¿":{"ha":622,"x_min":42,"x_max":593,"o":"m 406 366 q 387 235 406 285 q 320 141 368 185 q 255 75 273 96 q 219 -20 219 31 q 313 -117 219 -117 q 388 -89 360 -117 q 417 -12 416 -62 l 593 -12 q 518 -195 592 -130 q 315 -260 445 -260 q 114 -198 185 -260 q 42 -22 42 -136 q 136 168 42 75 l 195 224 q 237 282 225 252 q 250 366 249 312 l 406 366 m 258 620 q 271 633 258 620 q 330 646 285 646 q 401 620 374 646 q 429 553 429 594 q 400 486 429 512 q 330 460 372 460 q 259 486 287 460 q 231 553 231 512 q 258 620 231 594 z "},"À":{"ha":841,"x_min":7,"x_max":800,"o":"m 619 0 l 559 192 l 247 192 l 186 0 l 7 0 l 313 888 l 495 888 l 800 0 l 619 0 m 401 681 l 291 332 l 515 332 l 406 681 l 401 681 m 420 1194 l 541 1032 l 395 1032 l 230 1191 l 231 1194 l 420 1194 z "},"Á":{"ha":841,"x_min":7,"x_max":800,"o":"m 619 0 l 559 192 l 247 192 l 186 0 l 7 0 l 313 888 l 495 888 l 800 0 l 619 0 m 401 681 l 291 332 l 515 332 l 406 681 l 401 681 m 368 1042 l 488 1231 l 680 1231 l 511 1042 l 368 1042 z "},"Â":{"ha":841,"x_min":7,"x_max":800,"o":"m 619 0 l 559 192 l 247 192 l 186 0 l 7 0 l 313 888 l 495 888 l 800 0 l 619 0 m 401 681 l 291 332 l 515 332 l 406 681 l 401 681 m 669 1054 l 528 1054 l 435 1143 l 340 1054 l 203 1054 l 203 1063 l 383 1232 l 486 1232 l 669 1061 l 669 1054 z "},"Ã":{"ha":841,"x_min":9,"x_max":802,"o":"m 621 -1 l 561 191 l 249 191 l 189 -1 l 9 -1 l 315 888 l 497 888 l 802 -1 l 621 -1 m 404 680 l 293 331 l 517 331 l 408 680 l 404 680 m 528 1061 q 486 1066 504 1061 q 437 1088 467 1072 q 392 1109 406 1105 q 358 1114 378 1114 q 323 1098 338 1114 q 309 1055 309 1082 l 206 1061 q 246 1177 206 1130 q 345 1224 286 1224 q 379 1219 363 1224 q 430 1198 395 1215 q 479 1177 465 1181 q 513 1173 494 1173 q 548 1188 533 1173 q 563 1230 563 1203 l 667 1223 q 627 1107 667 1154 q 528 1061 587 1061 z "},"Ä":{"ha":841,"x_min":7,"x_max":800,"o":"m 619 0 l 559 192 l 247 192 l 186 0 l 7 0 l 313 888 l 495 888 l 800 0 l 619 0 m 401 681 l 291 332 l 515 332 l 406 681 l 401 681 m 371 1127 q 371 1111 371 1127 q 348 1073 371 1095 q 287 1050 324 1050 q 227 1072 250 1050 q 203 1127 203 1094 q 226 1183 203 1161 q 287 1205 250 1205 q 348 1182 324 1205 q 371 1127 371 1160 m 645 1072 q 633 1061 645 1072 q 584 1050 621 1050 q 523 1072 547 1050 q 500 1127 500 1095 q 524 1182 500 1160 q 584 1205 548 1205 q 644 1183 620 1205 q 669 1127 669 1160 q 645 1072 669 1095 z "},"Å":{"ha":841,"x_min":7,"x_max":800,"o":"m 619 -1 l 559 191 l 247 191 l 186 -1 l 7 -1 l 313 888 l 495 888 l 800 -1 l 619 -1 m 401 680 l 291 331 l 515 331 l 406 680 l 401 680 m 494 1206 q 485 1216 494 1206 q 446 1225 475 1225 q 399 1206 417 1225 q 380 1159 380 1187 q 398 1113 380 1131 q 446 1094 416 1094 q 494 1113 476 1094 q 512 1159 512 1131 q 494 1206 512 1187 m 446 1037 l 446 1036 q 349 1072 387 1036 q 310 1160 310 1107 q 349 1248 310 1212 q 446 1284 389 1284 q 543 1249 503 1284 q 583 1160 583 1213 q 544 1072 583 1107 q 446 1037 505 1037 z "},"Æ":{"ha":1175,"x_min":1,"x_max":1139,"o":"m 1139 144 l 1139 0 l 591 0 l 583 203 l 310 203 l 208 0 l 1 0 l 481 888 l 1101 888 l 1101 745 l 736 745 l 745 528 l 1052 528 l 1052 384 l 751 384 l 761 144 l 1139 144 m 562 702 l 387 354 l 576 354 l 562 702 z "},"Ç":{"ha":818,"x_min":50,"x_max":752,"o":"m 595 -169 q 539 -275 595 -237 q 382 -314 483 -314 l 377 -212 q 446 -163 446 -212 q 426 -128 446 -138 q 359 -115 407 -118 l 378 -28 l 510 -28 l 503 -64 q 595 -169 595 -80 m 575 300 l 747 300 l 747 297 q 660 69 750 153 q 410 -14 570 -14 q 149 88 249 -14 q 50 355 50 191 l 50 531 q 147 797 50 694 q 406 900 245 900 q 659 816 566 900 q 749 585 752 732 l 748 581 l 575 581 q 401 763 575 763 q 275 699 322 763 q 228 532 228 635 l 228 355 q 277 187 228 251 q 411 123 327 123 q 535 167 495 123 q 575 300 575 211 z "},"È":{"ha":703,"x_min":75,"x_max":684,"o":"m 621 528 l 621 391 l 253 391 l 253 137 l 684 137 l 684 0 l 75 0 l 75 888 l 682 888 l 682 751 l 253 751 l 253 528 l 621 528 m 374 1196 l 494 1034 l 349 1034 l 184 1193 l 185 1196 l 374 1196 z "},"É":{"ha":703,"x_min":75,"x_max":684,"o":"m 621 528 l 621 391 l 253 391 l 253 137 l 684 137 l 684 0 l 75 0 l 75 888 l 682 888 l 682 751 l 253 751 l 253 528 l 621 528 m 321 1044 l 441 1233 l 634 1233 l 465 1044 l 321 1044 z "},"Ê":{"ha":703,"x_min":75,"x_max":684,"o":"m 621 528 l 621 391 l 253 391 l 253 137 l 684 137 l 684 0 l 75 0 l 75 888 l 682 888 l 682 751 l 253 751 l 253 528 l 621 528 m 623 1056 l 482 1056 l 389 1145 l 294 1056 l 157 1056 l 157 1065 l 337 1234 l 439 1234 l 623 1063 l 623 1056 z "},"Ë":{"ha":703,"x_min":75,"x_max":684,"o":"m 621 528 l 621 391 l 253 391 l 253 137 l 684 137 l 684 0 l 75 0 l 75 888 l 682 888 l 682 751 l 253 751 l 253 528 l 621 528 m 325 1129 q 325 1113 325 1129 q 301 1075 325 1097 q 241 1053 278 1053 q 180 1074 204 1053 q 157 1129 157 1096 q 180 1185 157 1163 q 241 1207 203 1207 q 301 1184 278 1207 q 325 1129 325 1162 m 599 1074 q 587 1063 599 1074 q 538 1052 575 1052 q 477 1074 500 1052 q 454 1129 454 1097 q 478 1184 454 1162 q 538 1207 502 1207 q 598 1185 574 1207 q 623 1129 623 1162 q 599 1074 623 1097 z "},"Ì":{"ha":364,"x_min":-31,"x_max":279,"o":"m 277 888 l 277 0 l 100 0 l 100 888 l 277 888 m 159 1196 l 279 1034 l 134 1034 l -31 1193 l -30 1196 l 159 1196 z "},"Í":{"ha":364,"x_min":85,"x_max":405,"o":"m 263 888 l 263 0 l 85 0 l 85 888 l 263 888 m 92 1044 l 212 1233 l 405 1233 l 235 1044 l 92 1044 z "},"Î":{"ha":364,"x_min":-58,"x_max":408,"o":"m 277 888 l 277 0 l 100 0 l 100 888 l 277 888 m 408 1056 l 268 1056 l 174 1145 l 80 1056 l -58 1056 l -58 1065 l 123 1234 l 225 1234 l 408 1063 l 408 1056 z "},"Ï":{"ha":364,"x_min":-58,"x_max":408,"o":"m 277 888 l 277 0 l 100 0 l 100 888 l 277 888 m 111 1129 q 111 1113 111 1129 q 87 1075 111 1097 q 27 1053 64 1053 q -34 1074 -10 1053 q -58 1129 -58 1096 q -34 1185 -58 1163 q 26 1207 -11 1207 q 87 1184 64 1207 q 111 1129 111 1162 m 385 1074 q 373 1063 385 1074 q 323 1052 361 1052 q 263 1074 286 1052 q 239 1129 239 1097 q 263 1184 239 1162 q 323 1207 288 1207 q 384 1185 359 1207 q 408 1129 408 1162 q 385 1074 408 1097 z "},"Ð":{"ha":831,"x_min":-13,"x_max":777,"o":"m 414 504 l 414 392 l 280 392 l 280 147 l 369 147 q 534 218 477 147 q 591 424 591 289 l 591 465 q 535 671 591 602 q 370 741 479 741 l 280 741 l 280 504 l 414 504 m 373 0 l 97 0 l 97 392 l -13 392 l -13 504 l 97 504 l 97 888 l 370 888 q 581 836 489 888 q 725 685 673 783 q 777 465 777 587 l 777 424 q 726 204 777 300 q 582 54 675 108 q 373 0 487 0 z "},"Ñ":{"ha":882,"x_min":76,"x_max":795,"o":"m 795 888 l 795 -1 l 617 -1 l 258 607 l 254 606 l 254 -1 l 76 -1 l 76 888 l 254 888 l 613 281 l 617 282 l 617 888 l 795 888 m 543 1061 q 500 1066 519 1061 q 452 1088 482 1072 q 407 1109 421 1105 q 373 1114 393 1114 q 338 1098 353 1114 q 324 1055 324 1082 l 221 1061 q 261 1177 221 1130 q 359 1224 301 1224 q 394 1219 378 1224 q 445 1198 410 1215 q 494 1177 480 1181 q 528 1173 509 1173 q 563 1188 548 1173 q 578 1230 578 1203 l 682 1223 q 642 1107 682 1154 q 543 1061 602 1061 z "},"Ò":{"ha":863,"x_min":51,"x_max":792,"o":"m 614 363 l 614 524 q 562 695 614 630 q 420 761 510 761 q 279 696 330 761 q 229 524 229 631 l 229 363 q 280 190 229 255 q 421 124 331 124 q 563 190 511 124 q 614 363 614 255 m 792 523 l 792 363 q 689 92 792 197 q 420 -14 585 -14 q 227 34 311 -14 q 97 169 143 83 q 51 363 51 254 l 51 523 q 153 794 51 688 q 420 900 256 900 q 688 794 585 900 q 792 523 792 688 m 425 1194 l 545 1032 l 400 1032 l 235 1191 l 236 1194 l 425 1194 z "},"Ó":{"ha":863,"x_min":50,"x_max":791,"o":"m 614 363 l 614 524 q 562 695 614 630 q 419 761 509 761 q 278 696 329 761 q 228 524 228 631 l 228 363 q 279 190 228 255 q 420 124 330 124 q 562 190 510 124 q 614 363 614 255 m 791 523 l 791 363 q 688 92 791 197 q 419 -14 585 -14 q 227 34 311 -14 q 96 169 142 83 q 50 363 50 254 l 50 523 q 153 794 50 688 q 419 900 255 900 q 688 794 584 900 q 791 523 791 688 m 372 1042 l 492 1231 l 684 1231 l 515 1042 l 372 1042 z "},"Ô":{"ha":863,"x_min":50,"x_max":791,"o":"m 614 363 l 614 524 q 562 695 614 630 q 419 761 509 761 q 278 696 329 761 q 228 524 228 631 l 228 363 q 279 190 228 255 q 420 124 330 124 q 562 190 510 124 q 614 363 614 255 m 791 523 l 791 363 q 688 92 791 197 q 419 -14 585 -14 q 227 34 311 -14 q 96 169 142 83 q 50 363 50 254 l 50 523 q 153 794 50 688 q 419 900 255 900 q 688 794 584 900 q 791 523 791 688 m 673 1054 l 532 1054 l 439 1143 l 345 1054 l 207 1054 l 207 1063 l 387 1232 l 490 1232 l 673 1061 l 673 1054 z "},"Õ":{"ha":863,"x_min":52,"x_max":793,"o":"m 616 362 l 616 524 q 564 695 616 629 q 421 760 511 760 q 280 695 331 760 q 230 524 230 631 l 230 362 q 281 189 230 254 q 422 123 332 123 q 564 189 512 123 q 616 362 616 254 m 793 522 l 793 362 q 690 91 793 197 q 421 -15 587 -15 q 229 34 313 -15 q 98 168 144 82 q 52 362 52 254 l 52 522 q 155 793 52 687 q 421 899 257 899 q 690 793 586 899 q 793 522 793 687 m 532 1061 q 490 1066 508 1061 q 441 1088 471 1072 q 396 1109 410 1105 q 362 1114 382 1114 q 328 1098 342 1114 q 313 1055 313 1082 l 210 1061 q 250 1177 210 1130 q 349 1224 290 1224 q 384 1219 368 1224 q 434 1198 399 1215 q 484 1177 469 1181 q 517 1173 498 1173 q 552 1188 537 1173 q 567 1230 567 1203 l 671 1223 q 631 1107 671 1154 q 532 1061 591 1061 z "},"Ö":{"ha":863,"x_min":50,"x_max":791,"o":"m 614 363 l 614 524 q 562 695 614 630 q 419 761 509 761 q 278 696 329 761 q 228 524 228 631 l 228 363 q 279 190 228 255 q 420 124 330 124 q 562 190 510 124 q 614 363 614 255 m 791 523 l 791 363 q 688 92 791 197 q 419 -14 585 -14 q 227 34 311 -14 q 96 169 142 83 q 50 363 50 254 l 50 523 q 153 794 50 688 q 419 900 255 900 q 688 794 584 900 q 791 523 791 688 m 375 1127 q 375 1111 375 1127 q 352 1073 375 1095 q 291 1050 328 1050 q 231 1072 254 1050 q 207 1127 207 1094 q 230 1183 207 1161 q 291 1205 254 1205 q 352 1182 328 1205 q 375 1127 375 1160 m 649 1072 q 637 1061 649 1072 q 588 1050 625 1050 q 527 1072 551 1050 q 504 1127 504 1095 q 528 1182 504 1160 q 588 1205 552 1205 q 648 1183 624 1205 q 673 1127 673 1160 q 649 1072 673 1095 z "},"×":{"ha":664,"x_min":39,"x_max":620,"o":"m 144 140 l 39 241 l 228 433 l 39 625 l 144 725 l 329 536 l 515 725 l 620 625 l 431 433 l 620 241 l 515 140 l 329 329 l 144 140 z "},"Ø":{"ha":861,"x_min":56,"x_max":812,"o":"m 812 454 l 812 418 q 766 188 812 286 q 634 35 720 89 q 441 -20 547 -20 q 255 24 335 -20 l 203 -65 l 88 -65 l 176 83 q 56 421 56 202 l 56 456 q 102 688 56 588 q 237 841 149 787 q 431 895 320 895 q 625 844 542 895 l 671 920 l 785 920 l 703 781 q 812 454 812 660 m 627 458 q 604 614 627 551 l 336 160 q 435 132 378 132 q 577 204 528 132 q 627 415 627 276 l 627 458 m 435 743 q 292 671 342 743 q 242 461 243 600 l 241 418 q 271 244 241 313 l 544 706 q 435 743 498 743 z "},"Ù":{"ha":823,"x_min":66,"x_max":779,"o":"m 601 887 l 779 887 l 779 298 q 682 68 779 150 q 422 -14 585 -14 q 163 67 259 -14 q 66 298 66 149 l 66 887 l 245 887 l 245 298 q 291 167 245 211 q 422 123 337 123 q 554 166 508 123 q 601 298 601 210 l 601 887 m 399 1194 l 519 1032 l 374 1032 l 209 1191 l 210 1194 l 399 1194 z "},"Ú":{"ha":823,"x_min":65,"x_max":778,"o":"m 600 887 l 778 887 l 778 298 q 681 68 778 150 q 421 -14 584 -14 q 161 67 258 -14 q 65 298 65 149 l 65 887 l 244 887 l 244 298 q 290 167 244 211 q 421 123 336 123 q 553 166 507 123 q 600 298 600 210 l 600 887 m 345 1042 l 465 1231 l 658 1231 l 488 1042 l 345 1042 z "},"Û":{"ha":823,"x_min":65,"x_max":778,"o":"m 600 887 l 778 887 l 778 298 q 681 68 778 150 q 421 -14 584 -14 q 161 67 258 -14 q 65 298 65 149 l 65 887 l 244 887 l 244 298 q 290 167 244 211 q 421 123 336 123 q 553 166 507 123 q 600 298 600 210 l 600 887 m 646 1054 l 506 1054 l 412 1143 l 318 1054 l 180 1054 l 180 1063 l 361 1232 l 463 1232 l 646 1061 l 646 1054 z "},"Ü":{"ha":823,"x_min":65,"x_max":778,"o":"m 600 887 l 778 887 l 778 298 q 681 68 778 150 q 421 -14 584 -14 q 161 67 258 -14 q 65 298 65 149 l 65 887 l 244 887 l 244 298 q 290 167 244 211 q 421 123 336 123 q 553 166 507 123 q 600 298 600 210 l 600 887 m 349 1127 q 349 1111 349 1127 q 325 1073 349 1095 q 265 1050 302 1050 q 204 1072 228 1050 q 180 1127 180 1094 q 204 1183 180 1161 q 264 1205 227 1205 q 325 1182 302 1205 q 349 1127 349 1160 m 623 1072 q 611 1061 623 1072 q 562 1050 599 1050 q 501 1072 524 1050 q 477 1127 477 1095 q 502 1182 477 1160 q 562 1205 526 1205 q 622 1183 597 1205 q 646 1127 646 1160 q 623 1072 646 1095 z "},"Ý":{"ha":772,"x_min":3,"x_max":785,"o":"m 480 0 l 302 0 l 302 321 l 3 888 l 199 888 l 393 479 l 396 479 l 590 888 l 785 888 l 480 313 l 480 0 m 330 1042 l 450 1231 l 642 1231 l 473 1042 l 330 1042 z "},"Þ":{"ha":760,"x_min":81,"x_max":721,"o":"m 258 318 l 394 318 q 505 354 465 318 q 545 450 545 389 q 506 547 545 511 q 399 583 467 583 l 258 584 l 258 318 m 81 888 l 258 888 l 258 726 l 398 726 q 570 691 498 725 q 682 595 643 658 q 721 450 721 533 q 636 252 721 326 q 406 175 552 178 l 258 175 l 258 0 l 81 0 l 81 888 z "},"ß":{"ha":789,"x_min":83,"x_max":747,"o":"m 259 -2 l 83 -2 l 83 670 q 158 877 83 804 q 372 949 233 949 q 559 889 489 949 q 629 724 629 828 q 613 645 629 686 q 581 566 597 603 q 564 506 564 530 q 583 458 564 482 q 655 386 601 435 q 747 215 747 304 q 677 46 747 106 q 475 -14 607 -14 q 378 -4 426 -14 q 305 20 330 6 l 338 161 q 472 129 397 129 q 546 151 520 129 q 571 212 571 172 q 551 266 571 239 q 479 333 531 292 q 388 498 388 406 q 421 612 388 539 q 455 721 455 685 q 428 783 455 758 q 359 808 401 808 q 259 679 262 808 l 259 -2 z "},"à":{"ha":670,"x_min":31,"x_max":631,"o":"m 246 -14 q 87 39 143 -14 q 31 188 31 92 q 105 336 31 283 q 323 389 180 389 l 422 389 l 422 441 q 397 515 422 490 q 327 541 372 541 q 257 520 281 541 q 233 462 233 499 l 61 463 l 61 466 q 134 612 56 552 q 334 671 212 671 q 529 610 456 671 q 602 440 602 549 l 602 167 q 631 -1 602 78 l 452 -1 q 426 98 431 49 q 246 -14 361 -14 m 207 191 l 208 191 q 230 137 208 157 q 293 117 252 117 q 372 140 335 117 q 422 195 408 163 l 422 288 l 323 288 q 237 261 267 288 q 207 191 207 233 m 321 984 l 441 822 l 296 822 l 131 981 l 132 984 l 321 984 z "},"á":{"ha":670,"x_min":31,"x_max":631,"o":"m 246 -14 q 87 39 143 -14 q 31 188 31 92 q 105 336 31 283 q 323 389 180 389 l 422 389 l 422 441 q 397 515 422 490 q 327 541 372 541 q 257 520 281 541 q 233 462 233 499 l 61 463 l 61 466 q 134 612 56 552 q 334 671 212 671 q 529 610 456 671 q 602 440 602 549 l 602 167 q 631 -1 602 78 l 452 -1 q 426 98 431 49 q 246 -14 361 -14 m 207 191 l 208 191 q 230 137 208 157 q 293 117 252 117 q 372 140 335 117 q 422 195 408 163 l 422 288 l 323 288 q 237 261 267 288 q 207 191 207 233 m 269 831 l 389 1021 l 581 1021 l 412 831 l 269 831 z "},"â":{"ha":670,"x_min":31,"x_max":631,"o":"m 246 -14 q 87 39 143 -14 q 31 188 31 92 q 105 336 31 283 q 323 389 180 389 l 422 389 l 422 441 q 397 515 422 490 q 327 541 372 541 q 257 520 281 541 q 233 462 233 499 l 61 463 l 61 466 q 134 612 56 552 q 334 671 212 671 q 529 610 456 671 q 602 440 602 549 l 602 167 q 631 -1 602 78 l 452 -1 q 426 98 431 49 q 246 -14 361 -14 m 207 191 l 208 191 q 230 137 208 157 q 293 117 252 117 q 372 140 335 117 q 422 195 408 163 l 422 288 l 323 288 q 237 261 267 288 q 207 191 207 233 m 570 844 l 429 844 l 336 932 l 241 844 l 104 844 l 104 853 l 284 1022 l 387 1022 l 570 851 l 570 844 z "},"ã":{"ha":670,"x_min":33,"x_max":633,"o":"m 248 -15 q 89 38 145 -15 q 33 187 33 91 q 107 335 33 283 q 326 388 182 388 l 425 388 l 425 440 q 399 515 425 489 q 329 541 374 541 q 259 519 283 541 q 235 461 235 498 l 63 462 l 63 465 q 136 611 58 551 q 336 671 214 671 q 531 610 458 671 q 604 439 604 549 l 604 166 q 633 -2 604 77 l 454 -2 q 428 97 433 48 q 248 -15 363 -15 m 209 190 l 210 190 q 232 137 210 157 q 295 117 254 117 q 374 139 337 117 q 424 194 410 162 l 424 288 l 325 288 q 239 260 269 288 q 209 190 209 233 m 429 851 q 387 857 405 851 q 338 879 368 862 q 293 900 307 895 q 259 904 279 904 q 224 888 239 904 q 210 846 210 873 l 107 852 q 147 967 107 920 q 245 1015 187 1015 q 280 1010 264 1015 q 331 988 296 1005 q 380 967 366 971 q 414 963 395 963 q 449 978 434 963 q 464 1021 464 994 l 568 1013 q 528 898 568 945 q 429 851 488 851 z "},"ä":{"ha":670,"x_min":31,"x_max":631,"o":"m 246 -14 q 87 39 143 -14 q 31 188 31 92 q 105 336 31 283 q 323 389 180 389 l 422 389 l 422 441 q 397 515 422 490 q 327 541 372 541 q 257 520 281 541 q 233 462 233 499 l 61 463 l 61 466 q 134 612 56 552 q 334 671 212 671 q 529 610 456 671 q 602 440 602 549 l 602 167 q 631 -1 602 78 l 452 -1 q 426 98 431 49 q 246 -14 361 -14 m 207 191 l 208 191 q 230 137 208 157 q 293 117 252 117 q 372 140 335 117 q 422 195 408 163 l 422 288 l 323 288 q 237 261 267 288 q 207 191 207 233 m 272 917 q 272 901 272 917 q 249 862 272 884 q 188 840 225 840 q 127 862 151 840 q 104 917 104 884 q 127 973 104 951 q 188 995 151 995 q 249 972 225 995 q 272 917 272 949 m 546 862 q 534 851 546 862 q 485 840 522 840 q 424 862 448 840 q 401 917 401 884 q 425 972 401 949 q 485 995 449 995 q 545 972 521 995 q 570 917 570 950 q 546 862 570 884 z "},"å":{"ha":670,"x_min":30,"x_max":630,"o":"m 245 -15 q 86 38 142 -15 q 30 187 30 91 q 104 335 30 283 q 323 388 179 388 l 422 388 l 422 440 q 397 515 422 489 q 326 541 372 541 q 256 519 280 541 q 233 461 233 498 l 60 462 l 60 465 q 133 611 56 551 q 333 671 211 671 q 528 610 456 671 q 601 439 601 549 l 601 166 q 630 -2 601 77 l 452 -2 q 425 97 430 48 q 245 -15 360 -15 m 206 190 l 207 190 q 229 137 207 157 q 293 117 251 117 q 371 139 334 117 q 421 194 408 162 l 421 288 l 322 288 q 236 260 267 288 q 206 190 206 233 m 394 996 q 385 1006 394 996 q 347 1015 376 1015 q 299 996 317 1015 q 281 949 281 977 q 299 902 281 921 q 347 884 317 884 q 394 902 376 884 q 412 949 412 921 q 394 996 412 977 m 347 827 l 347 826 q 249 862 288 826 q 210 949 210 897 q 250 1038 210 1002 q 346 1074 289 1074 q 443 1039 404 1074 q 483 950 483 1003 q 444 862 483 897 q 347 827 405 827 z "},"æ":{"ha":1055,"x_min":39,"x_max":1023,"o":"m 216 191 l 216 191 q 317 115 216 115 q 383 129 348 115 q 442 164 418 142 l 442 279 l 342 279 q 251 254 285 279 q 216 191 216 229 m 850 409 q 823 497 850 467 q 743 528 796 528 q 657 493 690 528 q 616 392 625 458 l 850 392 l 850 409 m 760 -14 q 524 76 610 -14 q 422 10 484 33 q 283 -14 359 -14 q 104 41 169 -14 q 39 193 39 95 q 116 342 39 290 q 339 395 192 394 l 442 395 l 442 429 q 417 503 442 477 q 345 528 393 528 q 267 507 296 528 q 237 454 237 486 l 61 465 q 140 614 61 557 q 348 671 220 671 q 547 604 475 671 q 750 672 624 672 q 949 591 876 671 q 1023 369 1023 511 l 1023 273 l 615 273 q 664 165 622 203 q 778 128 706 128 q 867 138 827 128 q 959 175 907 149 l 1006 60 l 1005 60 q 895 6 961 26 q 760 -14 829 -14 z "},"ç":{"ha":652,"x_min":33,"x_max":612,"o":"m 509 -170 q 453 -276 509 -237 q 296 -315 397 -315 l 291 -213 q 359 -163 359 -213 q 340 -129 359 -138 q 273 -116 321 -119 l 292 -28 l 424 -29 l 417 -64 q 509 -170 509 -81 m 212 337 l 212 318 q 340 122 212 122 q 417 150 389 122 q 446 224 446 178 l 608 224 l 609 220 q 534 53 612 120 q 340 -15 457 -15 q 114 76 195 -15 q 33 318 33 168 l 33 336 q 114 579 33 487 q 340 671 195 671 q 537 601 463 671 q 609 418 612 532 l 608 414 l 446 414 q 417 500 446 467 q 340 534 389 534 q 212 337 212 534 z "},"è":{"ha":675,"x_min":43,"x_max":622,"o":"m 447 409 q 420 500 447 467 q 342 533 393 533 q 262 496 292 533 q 227 396 233 460 l 229 393 l 447 393 l 447 409 m 357 -15 q 129 75 214 -15 q 43 309 43 165 l 43 334 q 79 509 43 432 q 183 628 115 585 q 341 671 252 671 q 548 592 474 671 q 622 373 622 512 l 622 276 l 228 276 l 227 272 q 271 164 231 205 q 371 123 310 123 q 471 134 432 123 q 559 172 509 145 l 607 62 l 607 62 q 499 6 564 26 q 357 -15 435 -15 m 315 984 l 436 822 l 291 822 l 125 981 l 127 984 l 315 984 z "},"é":{"ha":675,"x_min":43,"x_max":622,"o":"m 447 409 q 420 500 447 467 q 342 533 393 533 q 262 496 292 533 q 227 396 233 460 l 229 393 l 447 393 l 447 409 m 357 -15 q 129 75 214 -15 q 43 309 43 165 l 43 334 q 79 509 43 432 q 183 628 115 585 q 341 671 252 671 q 548 592 474 671 q 622 373 622 512 l 622 276 l 228 276 l 227 272 q 271 164 231 205 q 371 123 310 123 q 471 134 432 123 q 559 172 509 145 l 607 62 l 607 62 q 499 6 564 26 q 357 -15 435 -15 m 263 831 l 383 1021 l 576 1021 l 406 831 l 263 831 z "},"ê":{"ha":675,"x_min":43,"x_max":622,"o":"m 447 409 q 420 500 447 467 q 342 533 393 533 q 262 496 292 533 q 227 396 233 460 l 229 393 l 447 393 l 447 409 m 357 -15 q 129 75 214 -15 q 43 309 43 165 l 43 334 q 79 509 43 432 q 183 628 115 585 q 341 671 252 671 q 548 592 474 671 q 622 373 622 512 l 622 276 l 228 276 l 227 272 q 271 164 231 205 q 371 123 310 123 q 471 134 432 123 q 559 172 509 145 l 607 62 l 607 62 q 499 6 564 26 q 357 -15 435 -15 m 564 844 l 424 844 l 330 932 l 236 844 l 98 844 l 98 853 l 279 1022 l 381 1022 l 564 851 l 564 844 z "},"ë":{"ha":675,"x_min":43,"x_max":622,"o":"m 447 409 q 420 500 447 467 q 342 533 393 533 q 262 496 292 533 q 227 396 233 460 l 229 393 l 447 393 l 447 409 m 357 -15 q 129 75 214 -15 q 43 309 43 165 l 43 334 q 79 509 43 432 q 183 628 115 585 q 341 671 252 671 q 548 592 474 671 q 622 373 622 512 l 622 276 l 228 276 l 227 272 q 271 164 231 205 q 371 123 310 123 q 471 134 432 123 q 559 172 509 145 l 607 62 l 607 62 q 499 6 564 26 q 357 -15 435 -15 m 267 917 q 267 901 267 917 q 243 862 267 884 q 183 840 220 840 q 122 862 146 840 q 98 917 98 884 q 122 973 98 951 q 182 995 145 995 q 243 972 220 995 q 267 917 267 949 m 541 862 q 529 851 541 862 q 479 840 517 840 q 419 862 442 840 q 395 917 395 884 q 419 972 395 949 q 479 995 444 995 q 540 972 515 995 q 564 917 564 950 q 541 862 564 884 z "},"ì":{"ha":342,"x_min":-42,"x_max":269,"o":"m 264 661 l 264 0 l 88 0 l 88 661 l 264 661 m 148 974 l 269 812 l 123 812 l -42 970 l -41 974 l 148 974 z "},"í":{"ha":342,"x_min":74,"x_max":393,"o":"m 250 661 l 250 0 l 74 0 l 74 661 l 250 661 m 81 821 l 201 1010 l 393 1010 l 224 821 l 81 821 z "},"î":{"ha":342,"x_min":-68,"x_max":398,"o":"m 266 661 l 266 0 l 90 0 l 90 661 l 266 661 m 398 833 l 258 833 l 164 922 l 70 833 l -68 833 l -68 843 l 113 1012 l 215 1012 l 398 841 l 398 833 z "},"ï":{"ha":342,"x_min":-68,"x_max":397,"o":"m 265 661 l 265 0 l 89 0 l 89 661 l 265 661 m 100 907 q 100 890 100 907 q 76 852 100 874 q 16 830 53 830 q -45 852 -21 830 q -68 907 -68 873 q -45 963 -68 941 q 16 985 -22 985 q 76 962 53 985 q 100 907 100 939 m 374 852 q 362 841 374 852 q 313 829 350 829 q 252 852 275 829 q 229 907 229 874 q 253 962 229 939 q 313 985 277 985 q 373 962 349 985 q 397 907 397 940 q 374 852 397 874 z "},"ð":{"ha":719,"x_min":52,"x_max":675,"o":"m 367 453 q 263 409 298 453 q 228 289 228 364 q 264 171 228 214 q 363 128 301 128 q 461 183 425 128 q 498 335 498 239 l 497 403 q 367 453 457 453 m 675 350 q 634 162 675 245 q 521 32 593 78 q 360 -14 449 -14 q 201 24 271 -14 q 92 131 132 62 q 52 283 52 200 q 126 506 52 425 q 328 587 201 587 q 477 541 410 587 q 376 703 447 634 l 259 629 l 212 698 l 304 758 q 143 825 233 801 l 199 962 q 452 852 344 933 l 556 919 l 603 850 l 518 795 q 675 395 674 635 l 675 350 z "},"ñ":{"ha":700,"x_min":60,"x_max":636,"o":"m 424 672 q 581 608 526 672 q 636 412 636 543 l 636 -1 l 457 -1 l 457 412 q 431 505 457 477 q 349 534 405 534 q 238 479 279 534 l 238 -1 l 60 -1 l 60 660 l 227 659 l 235 564 q 424 672 303 672 m 443 851 q 400 857 418 851 q 351 879 382 862 q 307 900 321 895 q 272 904 292 904 q 238 888 252 904 q 224 846 224 873 l 121 852 q 161 967 121 920 q 259 1015 201 1015 q 294 1010 278 1015 q 345 988 310 1005 q 394 967 380 971 q 428 963 408 963 q 463 978 448 963 q 477 1021 477 994 l 581 1013 q 541 898 581 945 q 443 851 501 851 z "},"ò":{"ha":707,"x_min":37,"x_max":660,"o":"m 214 335 l 214 322 q 247 175 214 228 q 348 123 280 123 q 449 176 416 123 q 481 322 481 229 l 481 335 q 448 480 481 427 q 348 534 415 534 q 248 480 281 534 q 214 335 214 427 m 37 322 l 37 335 q 120 579 37 486 q 348 671 203 671 q 576 579 492 671 q 660 335 660 486 l 660 322 q 576 78 660 170 q 348 -14 493 -14 q 120 78 203 -14 q 37 322 37 170 m 338 984 l 458 822 l 313 822 l 148 981 l 149 984 l 338 984 z "},"ó":{"ha":707,"x_min":37,"x_max":660,"o":"m 214 335 l 214 322 q 247 175 214 228 q 348 123 280 123 q 449 176 416 123 q 481 322 481 229 l 481 335 q 448 480 481 427 q 348 534 415 534 q 248 480 281 534 q 214 335 214 427 m 37 322 l 37 335 q 120 579 37 486 q 348 671 203 671 q 576 579 492 671 q 660 335 660 486 l 660 322 q 576 78 660 170 q 348 -14 493 -14 q 120 78 203 -14 q 37 322 37 170 m 286 831 l 406 1021 l 598 1021 l 429 831 l 286 831 z "},"ô":{"ha":707,"x_min":36,"x_max":659,"o":"m 214 335 l 214 322 q 247 175 214 228 q 347 123 279 123 q 448 176 415 123 q 481 322 481 229 l 481 335 q 448 480 481 427 q 347 534 414 534 q 247 480 280 534 q 214 335 214 427 m 36 322 l 36 335 q 119 579 36 486 q 347 671 202 671 q 575 579 492 671 q 659 335 659 486 l 659 322 q 576 78 659 170 q 348 -14 492 -14 q 119 78 203 -14 q 36 322 36 170 m 586 844 l 446 844 l 352 932 l 258 844 l 120 844 l 120 853 l 300 1022 l 403 1022 l 586 851 l 586 844 z "},"õ":{"ha":707,"x_min":39,"x_max":662,"o":"m 216 334 l 216 321 q 249 175 216 227 q 350 122 282 122 q 451 175 418 122 q 484 321 484 228 l 484 334 q 450 480 484 427 q 350 533 417 533 q 250 479 283 533 q 216 334 216 426 m 39 321 l 39 334 q 122 578 39 486 q 350 671 205 671 q 578 578 494 671 q 662 334 662 486 l 662 321 q 578 77 662 170 q 350 -15 495 -15 q 122 77 205 -15 q 39 321 39 170 m 446 851 q 404 857 422 851 q 355 879 385 862 q 310 900 324 895 q 276 904 296 904 q 241 888 256 904 q 227 846 227 873 l 124 852 q 164 967 124 920 q 262 1015 204 1015 q 297 1010 281 1015 q 348 988 313 1005 q 397 967 383 971 q 431 963 412 963 q 466 978 451 963 q 481 1021 481 994 l 585 1013 q 545 898 585 945 q 446 851 505 851 z "},"ö":{"ha":707,"x_min":37,"x_max":660,"o":"m 214 335 l 214 322 q 247 175 214 228 q 348 123 280 123 q 449 176 416 123 q 481 322 481 229 l 481 335 q 448 480 481 427 q 348 534 415 534 q 248 480 281 534 q 214 335 214 427 m 37 322 l 37 335 q 120 579 37 486 q 348 671 203 671 q 576 579 492 671 q 660 335 660 486 l 660 322 q 576 78 660 170 q 348 -14 493 -14 q 120 78 203 -14 q 37 322 37 170 m 289 917 q 289 901 289 917 q 266 862 289 884 q 205 840 242 840 q 144 862 168 840 q 121 917 121 884 q 144 973 121 951 q 205 995 168 995 q 266 972 242 995 q 289 917 289 949 m 563 862 q 551 851 563 862 q 502 840 539 840 q 441 862 465 840 q 418 917 418 884 q 442 972 418 949 q 502 995 466 995 q 562 972 538 995 q 587 917 587 950 q 563 862 587 884 z "},"÷":{"ha":713,"x_min":39,"x_max":667,"o":"m 443 254 l 443 111 l 264 111 l 264 254 l 443 254 m 667 499 l 667 361 l 39 361 l 39 499 l 667 499 m 443 747 l 443 605 l 264 605 l 264 747 l 443 747 z "},"ø":{"ha":705,"x_min":40,"x_max":666,"o":"m 40 328 q 78 503 40 427 q 186 621 116 578 q 352 663 257 663 q 466 646 412 663 l 509 732 l 607 732 l 544 604 q 666 314 666 513 q 582 70 666 161 q 353 -22 497 -22 q 246 -6 293 -22 l 202 -96 l 104 -96 l 167 33 l 167 35 q 40 328 40 124 m 353 121 q 490 327 490 121 q 467 446 490 393 l 311 127 q 353 121 327 121 m 352 520 q 217 314 217 520 q 241 187 217 235 l 400 511 q 352 520 380 520 z "},"ù":{"ha":699,"x_min":58,"x_max":633,"o":"m 279 -14 q 115 54 172 -14 q 58 260 58 121 l 58 659 l 235 659 l 235 259 q 258 156 235 188 q 332 124 282 124 q 454 178 415 124 l 454 659 l 633 659 l 633 -1 l 481 -1 l 465 94 q 279 -14 401 -14 m 332 984 l 453 822 l 308 822 l 142 981 l 144 984 l 332 984 z "},"ú":{"ha":699,"x_min":58,"x_max":633,"o":"m 279 -14 q 115 54 172 -14 q 58 260 58 121 l 58 659 l 235 659 l 235 259 q 258 156 235 188 q 332 124 282 124 q 454 178 415 124 l 454 659 l 633 659 l 633 -1 l 481 -1 l 465 94 q 279 -14 401 -14 m 280 831 l 400 1021 l 593 1021 l 423 831 l 280 831 z "},"û":{"ha":699,"x_min":58,"x_max":633,"o":"m 279 -14 q 115 54 172 -14 q 58 260 58 121 l 58 659 l 235 659 l 235 259 q 258 156 235 188 q 332 124 282 124 q 454 178 415 124 l 454 659 l 633 659 l 633 -1 l 481 -1 l 465 94 q 279 -14 401 -14 m 581 844 l 441 844 l 347 932 l 253 844 l 115 844 l 115 853 l 296 1022 l 398 1022 l 581 851 l 581 844 z "},"ü":{"ha":699,"x_min":58,"x_max":633,"o":"m 279 -14 q 115 54 172 -14 q 58 260 58 121 l 58 659 l 235 659 l 235 259 q 258 156 235 188 q 332 124 282 124 q 454 178 415 124 l 454 659 l 633 659 l 633 -1 l 481 -1 l 465 94 q 279 -14 401 -14 m 283 917 q 283 901 283 917 q 260 862 283 884 q 200 840 237 840 q 139 862 163 840 q 115 917 115 884 q 139 973 115 951 q 199 995 162 995 q 260 972 237 995 q 283 917 283 949 m 557 862 q 546 851 557 862 q 496 840 534 840 q 436 862 459 840 q 412 917 412 884 q 436 972 412 949 q 496 995 460 995 q 557 972 532 995 q 581 917 581 950 q 557 862 581 884 z "},"ý":{"ha":627,"x_min":3,"x_max":635,"o":"m 79 -153 l 113 -156 q 217 -80 187 -156 l 237 -29 l 3 631 l 195 631 l 306 248 l 313 211 l 317 211 l 443 631 l 635 631 l 367 -129 q 334 -195 351 -168 q 292 -248 317 -223 q 146 -296 240 -296 q 58 -282 117 -296 l 79 -153 m 252 831 l 372 1021 l 564 1021 l 395 831 l 252 831 z "},"þ":{"ha":709,"x_min":70,"x_max":664,"o":"m 664 304 l 664 296 q 595 51 664 142 q 408 -41 526 -41 q 247 28 308 -41 l 247 -282 l 70 -282 l 70 909 l 247 909 l 247 576 q 407 644 308 644 q 596 555 529 644 q 664 304 664 466 m 361 102 l 361 102 q 488 309 488 102 q 455 451 488 401 q 360 501 422 501 q 247 439 279 501 l 247 166 q 361 102 279 102 z "},"ÿ":{"ha":627,"x_min":3,"x_max":635,"o":"m 79 -153 l 113 -156 q 217 -80 187 -156 l 237 -29 l 3 631 l 195 631 l 306 248 l 313 211 l 317 211 l 443 631 l 635 631 l 367 -129 q 334 -195 351 -168 q 292 -248 317 -223 q 146 -296 240 -296 q 58 -282 117 -296 l 79 -153 m 255 917 q 255 901 255 917 q 232 862 255 884 q 171 840 208 840 q 111 862 134 840 q 87 917 87 884 q 110 973 87 951 q 171 995 134 995 q 232 972 208 995 q 255 917 255 949 m 529 862 q 517 851 529 862 q 468 840 505 840 q 407 862 431 840 q 384 917 384 884 q 408 972 384 949 q 468 995 432 995 q 528 972 504 995 q 553 917 553 950 q 529 862 553 884 z "},"Ā":{"ha":841,"x_min":7,"x_max":800,"o":"m 619 0 l 559 192 l 247 192 l 186 0 l 7 0 l 313 888 l 495 888 l 800 0 l 619 0 m 401 681 l 291 332 l 515 332 l 406 681 l 401 681 m 658 1185 l 658 1084 l 212 1084 l 212 1185 l 658 1185 z "},"ā":{"ha":670,"x_min":30,"x_max":630,"o":"m 245 -14 q 86 39 142 -14 q 30 188 30 92 q 104 336 30 283 q 323 389 179 389 l 422 389 l 422 441 q 397 515 422 490 q 326 541 372 541 q 256 520 280 541 q 233 462 233 499 l 60 463 l 60 466 q 133 612 56 552 q 333 671 211 671 q 528 610 456 671 q 601 440 601 549 l 601 167 q 630 -1 601 78 l 452 -1 q 425 98 430 49 q 245 -14 360 -14 m 206 191 l 207 191 q 229 137 207 157 q 293 117 251 117 q 371 140 334 117 q 421 195 408 163 l 421 288 l 322 288 q 236 261 267 288 q 206 191 206 233 m 558 976 l 558 874 l 113 874 l 113 976 l 558 976 z "},"Ă":{"ha":841,"x_min":7,"x_max":800,"o":"m 619 0 l 559 192 l 247 192 l 186 0 l 7 0 l 313 888 l 495 888 l 800 0 l 619 0 m 401 681 l 291 332 l 515 332 l 406 681 l 401 681 m 524 1225 l 650 1225 q 591 1094 650 1144 q 438 1044 533 1044 q 285 1093 343 1044 q 227 1225 227 1143 l 353 1225 q 375 1166 353 1187 q 438 1145 398 1145 q 501 1166 479 1145 q 524 1225 524 1187 z "},"ă":{"ha":670,"x_min":31,"x_max":631,"o":"m 246 -14 q 87 39 143 -14 q 31 188 31 92 q 105 336 31 283 q 323 389 180 389 l 422 389 l 422 441 q 397 515 422 490 q 327 541 372 541 q 257 520 281 541 q 233 462 233 499 l 61 463 l 61 466 q 134 612 56 552 q 334 671 212 671 q 529 610 456 671 q 602 440 602 549 l 602 167 q 631 -1 602 78 l 452 -1 q 426 98 431 49 q 246 -14 361 -14 m 207 191 l 208 191 q 230 137 208 157 q 293 117 252 117 q 372 140 335 117 q 422 195 408 163 l 422 288 l 323 288 q 237 261 267 288 q 207 191 207 233 m 425 1015 l 551 1015 q 492 884 551 934 q 339 833 434 833 q 186 883 244 833 q 128 1015 128 932 l 254 1015 q 276 956 254 977 q 339 935 299 935 q 402 956 380 935 q 425 1015 425 977 z "},"Ą":{"ha":841,"x_min":4,"x_max":838,"o":"m 420 635 l 309 302 l 532 302 l 420 635 m 692 -137 q 732 -176 692 -176 q 781 -164 753 -176 l 799 -260 q 695 -287 755 -287 q 598 -253 636 -287 q 559 -159 559 -218 q 640 -22 559 -77 l 581 155 l 260 155 l 199 -28 l 4 -28 l 335 860 l 505 859 l 838 -29 l 786 -29 q 715 -81 738 -57 q 692 -137 692 -106 z "},"ą":{"ha":670,"x_min":43,"x_max":629,"o":"m 218 169 q 242 115 218 136 q 306 94 266 94 q 378 111 345 94 q 426 157 410 128 l 426 271 l 360 271 q 220 180 229 271 l 219 169 l 218 169 m 434 30 q 270 -41 371 -41 q 106 14 170 -41 q 43 156 43 70 q 120 318 43 262 q 346 374 198 374 l 427 374 l 427 412 q 402 486 427 460 q 331 513 378 513 q 259 491 284 513 q 233 433 233 470 l 57 433 q 92 539 57 491 q 193 616 127 588 q 338 644 258 644 q 532 582 461 644 q 603 410 603 521 l 603 123 q 629 -18 604 29 l 629 -28 l 600 -28 q 528 -81 551 -56 q 505 -136 505 -105 q 546 -176 505 -176 q 595 -163 566 -176 l 612 -259 q 509 -286 568 -286 q 411 -252 449 -286 q 373 -159 373 -218 l 374 -159 q 450 -26 374 -79 q 434 30 439 -1 z "},"Ć":{"ha":818,"x_min":50,"x_max":752,"o":"m 575 300 l 747 300 l 747 297 q 660 69 750 153 q 410 -14 570 -14 q 149 88 249 -14 q 50 355 50 191 l 50 531 q 147 797 50 694 q 406 900 245 900 q 659 816 566 900 q 749 585 752 732 l 748 581 l 575 581 q 401 763 575 763 q 275 699 322 763 q 228 532 228 635 l 228 355 q 277 187 228 251 q 411 123 327 123 q 535 167 495 123 q 575 300 575 211 m 359 1047 l 479 1236 l 672 1236 l 503 1047 l 359 1047 z "},"ć":{"ha":652,"x_min":33,"x_max":612,"o":"m 212 337 l 212 318 q 340 122 212 122 q 417 150 389 122 q 446 224 446 178 l 608 224 l 609 220 q 534 53 612 120 q 340 -15 457 -15 q 114 76 195 -15 q 33 318 33 168 l 33 336 q 114 579 33 487 q 340 671 195 671 q 537 601 463 671 q 609 418 612 532 l 608 414 l 446 414 q 417 500 446 467 q 340 534 389 534 q 212 337 212 534 m 256 831 l 376 1021 l 569 1021 l 399 831 l 256 831 z "},"Č":{"ha":818,"x_min":50,"x_max":752,"o":"m 575 300 l 747 300 l 747 297 q 660 69 750 153 q 410 -14 570 -14 q 149 88 249 -14 q 50 355 50 191 l 50 531 q 147 797 50 694 q 406 900 245 900 q 659 816 566 900 q 749 585 752 732 l 748 581 l 575 581 q 401 763 575 763 q 275 699 322 763 q 228 532 228 635 l 228 355 q 277 187 228 251 q 411 123 327 123 q 535 167 495 123 q 575 300 575 211 m 668 1238 l 668 1232 l 484 1060 l 372 1060 l 188 1233 l 188 1238 l 338 1238 l 428 1151 l 517 1238 l 668 1238 z "},"č":{"ha":652,"x_min":33,"x_max":612,"o":"m 212 337 l 212 318 q 340 122 212 122 q 417 150 389 122 q 446 224 446 178 l 608 224 l 609 220 q 534 53 612 120 q 340 -15 457 -15 q 114 76 195 -15 q 33 318 33 168 l 33 336 q 114 579 33 487 q 340 671 195 671 q 537 601 463 671 q 609 418 612 532 l 608 414 l 446 414 q 417 500 446 467 q 340 534 389 534 q 212 337 212 534 m 565 1023 l 565 1016 l 380 844 l 269 844 l 85 1017 l 85 1023 l 235 1023 l 325 935 l 414 1023 l 565 1023 z "},"Ď":{"ha":812,"x_min":74,"x_max":753,"o":"m 370 751 l 252 751 l 252 137 l 370 137 q 520 201 465 137 q 574 370 574 264 l 574 519 q 520 688 574 624 q 370 751 465 751 m 379 0 l 74 0 l 74 888 l 379 888 q 649 785 544 888 q 753 517 753 682 l 753 370 q 649 103 753 206 q 379 0 544 0 m 556 1235 l 556 1228 l 372 1057 l 260 1057 l 76 1230 l 76 1235 l 227 1235 l 316 1147 l 406 1235 l 556 1235 z "},"ď":{"ha":796,"x_min":37,"x_max":633,"o":"m 295 671 q 454 589 392 671 l 454 951 l 633 951 l 633 -1 l 479 -1 l 465 79 q 293 -14 401 -14 q 104 74 172 -14 q 37 311 37 161 l 37 323 q 105 577 37 483 q 295 671 173 671 m 339 124 q 452 185 415 124 l 452 467 q 340 532 414 532 q 245 477 276 532 q 214 323 214 421 l 214 311 q 339 124 214 124 z "},"Đ":{"ha":831,"x_min":-13,"x_max":777,"o":"m 414 504 l 414 392 l 280 392 l 280 147 l 369 147 q 534 218 477 147 q 591 424 591 289 l 591 465 q 535 671 591 602 q 370 741 479 741 l 280 741 l 280 504 l 414 504 m 373 0 l 97 0 l 97 392 l -13 392 l -13 504 l 97 504 l 97 888 l 370 888 q 581 836 489 888 q 725 685 673 783 q 777 465 777 587 l 777 424 q 726 204 777 300 q 582 54 675 108 q 373 0 487 0 z "},"đ":{"ha":723,"x_min":40,"x_max":731,"o":"m 635 743 l 635 -1 l 475 -1 l 467 69 q 298 -14 402 -14 q 110 79 180 -14 q 40 330 40 171 q 110 581 40 490 q 299 671 179 671 q 458 600 395 671 l 458 743 l 304 743 l 304 854 l 458 854 l 458 936 l 635 936 l 635 854 l 731 854 l 730 743 l 635 743 m 345 528 q 217 321 217 528 q 249 178 217 227 q 343 130 281 130 q 458 198 425 130 l 458 459 q 345 528 426 528 z "},"Ē":{"ha":703,"x_min":75,"x_max":684,"o":"m 621 528 l 621 391 l 253 391 l 253 137 l 684 137 l 684 0 l 75 0 l 75 888 l 682 888 l 682 751 l 253 751 l 253 528 l 621 528 m 612 1187 l 612 1086 l 166 1086 l 166 1187 l 612 1187 z "},"ē":{"ha":675,"x_min":43,"x_max":622,"o":"m 447 409 q 420 500 447 467 q 342 533 393 533 q 262 496 292 533 q 227 396 233 460 l 229 393 l 447 393 l 447 409 m 357 -15 q 129 75 214 -15 q 43 309 43 165 l 43 334 q 79 509 43 432 q 183 628 115 585 q 341 671 252 671 q 548 592 474 671 q 622 373 622 512 l 622 276 l 228 276 l 227 272 q 271 164 231 205 q 371 123 310 123 q 471 134 432 123 q 559 172 509 145 l 607 62 l 607 62 q 499 6 564 26 q 357 -15 435 -15 m 553 976 l 553 874 l 108 874 l 108 976 l 553 976 z "},"Ė":{"ha":703,"x_min":74,"x_max":683,"o":"m 621 528 l 621 391 l 252 391 l 252 137 l 683 137 l 683 0 l 74 0 l 74 888 l 682 888 l 682 751 l 252 751 l 252 528 l 621 528 m 403 1063 q 382 1063 403 1063 q 337 1086 361 1063 q 313 1146 313 1109 q 337 1206 313 1183 q 404 1230 362 1230 q 469 1207 445 1230 q 494 1146 494 1183 q 469 1086 494 1109 q 403 1063 445 1063 z "},"ė":{"ha":675,"x_min":43,"x_max":622,"o":"m 447 409 q 420 500 447 467 q 342 533 393 533 q 262 496 292 533 q 227 396 233 460 l 229 393 l 447 393 l 447 409 m 357 -15 q 129 75 214 -15 q 43 309 43 165 l 43 334 q 79 509 43 432 q 183 628 115 585 q 341 671 252 671 q 548 592 474 671 q 622 373 622 512 l 622 276 l 228 276 l 227 272 q 271 164 231 205 q 371 123 310 123 q 471 134 432 123 q 559 172 509 145 l 607 62 l 607 62 q 499 6 564 26 q 357 -15 435 -15 m 346 851 q 325 851 346 851 q 279 874 304 851 q 255 933 255 897 q 280 994 255 970 q 346 1018 304 1018 q 412 995 387 1018 q 436 934 436 971 q 412 874 436 897 q 346 851 387 851 z "},"Ę":{"ha":703,"x_min":79,"x_max":675,"o":"m 614 500 l 614 357 l 262 357 l 262 119 l 675 119 l 675 -28 l 583 -28 q 511 -80 534 -56 q 488 -136 488 -104 q 528 -175 488 -175 q 577 -163 549 -175 l 595 -258 q 492 -286 551 -286 q 394 -251 432 -286 q 356 -158 356 -217 q 427 -28 356 -81 l 79 -28 l 79 860 l 674 860 l 674 712 l 262 712 l 262 500 l 614 500 z "},"ę":{"ha":675,"x_min":44,"x_max":644,"o":"m 470 380 q 438 471 469 439 q 353 503 408 503 q 267 468 299 503 q 224 366 234 433 l 470 366 l 470 380 m 428 -116 q 468 -155 428 -155 q 517 -143 488 -155 l 534 -239 q 431 -266 491 -266 q 334 -232 372 -266 q 296 -138 296 -197 q 334 -37 296 -79 q 123 62 202 -25 q 44 286 44 150 l 44 305 q 82 484 44 406 q 192 604 121 562 q 352 646 262 646 q 567 561 490 646 q 644 318 644 475 l 644 246 l 223 246 q 274 142 231 181 q 383 104 317 104 q 543 178 487 104 l 629 79 q 522 -8 592 25 q 451 -60 473 -36 q 428 -116 428 -85 z "},"Ě":{"ha":703,"x_min":75,"x_max":684,"o":"m 621 528 l 621 391 l 253 391 l 253 137 l 684 137 l 684 0 l 75 0 l 75 888 l 682 888 l 682 751 l 253 751 l 253 528 l 621 528 m 630 1235 l 630 1228 l 446 1057 l 334 1057 l 150 1230 l 150 1235 l 300 1235 l 390 1147 l 479 1235 l 630 1235 z "},"ě":{"ha":675,"x_min":43,"x_max":622,"o":"m 447 409 q 420 500 447 467 q 342 533 393 533 q 262 496 292 533 q 227 396 233 460 l 229 393 l 447 393 l 447 409 m 357 -15 q 129 75 214 -15 q 43 309 43 165 l 43 334 q 79 509 43 432 q 183 628 115 585 q 341 671 252 671 q 548 592 474 671 q 622 373 622 512 l 622 276 l 228 276 l 227 272 q 271 164 231 205 q 371 123 310 123 q 471 134 432 123 q 559 172 509 145 l 607 62 l 607 62 q 499 6 564 26 q 357 -15 435 -15 m 572 1023 l 572 1016 l 387 844 l 275 844 l 92 1017 l 92 1023 l 242 1023 l 332 935 l 421 1023 l 572 1023 z "},"Ğ":{"ha":852,"x_min":54,"x_max":760,"o":"m 760 455 l 760 120 q 629 24 715 62 q 424 -14 544 -14 q 157 87 260 -14 q 54 350 54 188 l 54 536 q 153 799 54 698 q 411 900 252 900 q 656 823 569 900 q 746 613 744 745 l 745 610 l 577 610 q 530 723 571 682 q 411 763 490 763 q 282 700 332 763 q 232 537 232 637 l 232 350 q 284 185 232 248 q 424 123 336 123 q 581 167 536 123 l 581 332 l 424 332 l 424 455 l 760 455 m 520 1230 l 646 1230 q 588 1099 646 1149 q 435 1049 530 1049 q 282 1099 340 1049 q 224 1230 224 1148 l 349 1230 q 372 1171 349 1192 q 435 1150 395 1150 q 498 1171 475 1150 q 520 1230 520 1192 z "},"ğ":{"ha":713,"x_min":37,"x_max":635,"o":"m 298 643 q 467 547 405 643 l 481 631 l 635 631 l 635 -26 q 551 -226 635 -155 q 315 -296 467 -296 q 105 -245 207 -296 l 138 -112 q 313 -152 220 -152 q 421 -122 387 -152 q 456 -26 456 -92 l 456 34 q 295 -43 395 -43 q 106 45 174 -43 q 37 282 37 134 l 39 295 q 107 549 39 454 q 298 643 176 643 m 340 96 q 455 155 420 96 l 455 441 q 341 505 418 505 q 246 449 277 505 q 215 295 215 393 l 216 282 q 340 96 216 96 m 427 1015 l 553 1015 q 494 884 553 934 q 341 833 436 833 q 188 883 246 833 q 130 1015 130 932 l 256 1015 q 278 956 256 977 q 341 935 301 935 q 404 956 382 935 q 427 1015 427 977 z "},"Ģ":{"ha":852,"x_min":54,"x_max":760,"o":"m 760 455 l 760 120 q 629 24 715 62 q 424 -14 544 -14 q 157 87 260 -14 q 54 350 54 188 l 54 536 q 153 799 54 698 q 411 900 252 900 q 656 823 569 900 q 746 613 744 745 l 745 610 l 577 610 q 530 723 571 682 q 411 763 490 763 q 282 700 332 763 q 232 537 232 637 l 232 350 q 284 185 232 248 q 424 123 336 123 q 581 167 536 123 l 581 332 l 424 332 l 424 455 l 760 455 z "},"ģ":{"ha":713,"x_min":37,"x_max":635,"o":"m 298 643 q 467 547 405 643 l 481 631 l 635 631 l 635 -26 q 551 -226 635 -155 q 315 -296 467 -296 q 105 -245 207 -296 l 138 -112 q 313 -152 220 -152 q 421 -122 387 -152 q 456 -26 456 -92 l 456 34 q 295 -43 395 -43 q 106 45 174 -43 q 37 282 37 134 l 39 295 q 107 549 39 454 q 298 643 176 643 m 340 96 q 455 155 420 96 l 455 441 q 341 505 418 505 q 246 449 277 505 q 215 295 215 393 l 216 282 q 340 96 216 96 z "},"Ī":{"ha":364,"x_min":-48,"x_max":397,"o":"m 277 888 l 277 0 l 100 0 l 100 888 l 277 888 m 397 1187 l 397 1086 l -48 1086 l -48 1187 l 397 1187 z "},"ī":{"ha":342,"x_min":-60,"x_max":385,"o":"m 264 661 l 264 0 l 87 0 l 87 661 l 264 661 m 385 965 l 385 863 l -60 863 l -60 965 l 385 965 z "},"Į":{"ha":364,"x_min":12,"x_max":271,"o":"m 252 -258 q 148 -285 208 -285 q 50 -251 88 -285 q 12 -157 12 -216 q 128 0 12 -61 l 93 0 l 93 888 l 271 888 l 271 0 l 172 0 l 239 -27 q 167 -79 190 -55 q 144 -135 144 -104 q 184 -174 144 -174 q 233 -162 205 -174 l 252 -258 z "},"į":{"ha":332,"x_min":0,"x_max":256,"o":"m 138 -286 l 138 -286 q 38 -251 76 -286 q 0 -158 0 -217 q 119 0 0 -61 l 77 0 l 77 661 l 256 661 l 256 0 l 156 0 l 227 -28 q 155 -81 178 -56 q 132 -136 132 -105 q 172 -176 132 -176 q 221 -163 193 -176 l 239 -259 q 138 -286 195 -286 m 256 952 l 256 819 l 77 819 l 77 952 l 256 952 z "},"İ":{"ha":364,"x_min":83,"x_max":264,"o":"m 262 888 l 262 0 l 85 0 l 85 888 l 262 888 m 174 1063 q 153 1063 174 1063 q 108 1086 132 1063 q 83 1146 83 1109 q 108 1206 83 1183 q 174 1230 133 1230 q 240 1207 216 1230 q 264 1146 264 1183 q 240 1086 264 1109 q 174 1063 216 1063 z "},"ı":{"ha":342,"x_min":82,"x_max":258,"o":"m 258 661 l 258 0 l 82 0 l 82 661 l 258 661 z "},"Ķ":{"ha":793,"x_min":74,"x_max":807,"o":"m 252 371 l 252 0 l 74 0 l 74 888 l 252 888 l 252 526 l 330 526 l 566 888 l 783 888 l 484 475 l 807 0 l 590 0 l 351 371 l 252 371 z "},"ķ":{"ha":668,"x_min":61,"x_max":675,"o":"m 239 277 l 239 0 l 61 0 l 61 952 l 239 952 l 239 412 l 283 412 l 436 661 l 643 661 l 431 361 l 675 0 l 471 0 l 288 277 l 239 277 z "},"Ĺ":{"ha":677,"x_min":74,"x_max":648,"o":"m 252 888 l 252 137 l 648 137 l 648 0 l 74 0 l 74 888 l 252 888 m 84 1042 l 204 1231 l 397 1231 l 227 1042 l 84 1042 z "},"ĺ":{"ha":332,"x_min":70,"x_max":388,"o":"m 248 952 l 248 0 l 70 0 l 70 952 l 248 952 m 75 1097 l 195 1286 l 388 1286 l 218 1097 l 75 1097 z "},"Ļ":{"ha":677,"x_min":74,"x_max":648,"o":"m 252 888 l 252 137 l 648 137 l 648 0 l 74 0 l 74 888 l 252 888 z "},"ļ":{"ha":332,"x_min":70,"x_max":248,"o":"m 248 952 l 248 0 l 70 0 l 70 952 l 248 952 z "},"Ľ":{"ha":677,"x_min":74,"x_max":648,"o":"m 252 888 l 252 137 l 648 137 l 648 0 l 74 0 l 74 888 l 252 888 z "},"ľ":{"ha":423,"x_min":68,"x_max":247,"o":"m 247 952 l 247 0 l 68 0 l 68 952 l 247 952 z "},"Ł":{"ha":697,"x_min":18,"x_max":671,"o":"m 283 888 l 283 547 l 414 584 l 414 483 l 283 445 l 283 147 l 671 147 l 671 0 l 100 0 l 100 392 l 18 369 l 18 470 l 100 493 l 100 888 l 283 888 z "},"ł":{"ha":382,"x_min":18,"x_max":362,"o":"m 275 937 l 275 555 l 362 584 l 362 483 l 275 454 l 275 0 l 99 0 l 99 395 l 18 369 l 18 470 l 99 497 l 99 937 l 275 937 z "},"Ń":{"ha":882,"x_min":75,"x_max":793,"o":"m 793 888 l 793 0 l 616 0 l 257 608 l 253 607 l 253 0 l 75 0 l 75 888 l 253 888 l 612 282 l 616 283 l 616 888 l 793 888 m 383 1042 l 503 1231 l 696 1231 l 526 1042 l 383 1042 z "},"ń":{"ha":700,"x_min":58,"x_max":634,"o":"m 422 673 q 579 608 524 673 q 634 412 634 544 l 634 0 l 455 0 l 455 412 q 429 506 455 477 q 347 534 403 534 q 236 479 277 534 l 236 0 l 58 0 l 58 661 l 224 660 l 233 565 q 422 673 301 673 m 282 831 l 402 1021 l 595 1021 l 425 831 l 282 831 z "},"Ņ":{"ha":882,"x_min":74,"x_max":793,"o":"m 793 888 l 793 0 l 615 0 l 256 608 l 252 607 l 252 0 l 74 0 l 74 888 l 252 888 l 611 282 l 615 283 l 615 888 l 793 888 z "},"ņ":{"ha":700,"x_min":58,"x_max":634,"o":"m 422 673 q 579 608 524 673 q 634 412 634 544 l 634 0 l 455 0 l 455 412 q 429 506 455 477 q 347 534 403 534 q 236 479 277 534 l 236 0 l 58 0 l 58 661 l 224 660 l 233 565 q 422 673 301 673 z "},"Ň":{"ha":882,"x_min":74,"x_max":793,"o":"m 793 888 l 793 0 l 615 0 l 256 608 l 252 607 l 252 0 l 74 0 l 74 888 l 252 888 l 611 282 l 615 283 l 615 888 l 793 888 m 691 1233 l 691 1226 l 507 1055 l 395 1055 l 211 1227 l 211 1233 l 361 1233 l 451 1145 l 541 1233 l 691 1233 z "},"ň":{"ha":700,"x_min":58,"x_max":634,"o":"m 422 673 q 579 608 524 673 q 634 412 634 544 l 634 0 l 455 0 l 455 412 q 429 506 455 477 q 347 534 403 534 q 236 479 277 534 l 236 0 l 58 0 l 58 661 l 224 660 l 233 565 q 422 673 301 673 m 591 1023 l 591 1016 l 406 844 l 294 844 l 111 1017 l 111 1023 l 261 1023 l 351 935 l 440 1023 l 591 1023 z "},"Ō":{"ha":863,"x_min":51,"x_max":792,"o":"m 614 363 l 614 524 q 562 695 614 630 q 420 761 510 761 q 279 696 330 761 q 229 524 229 631 l 229 363 q 280 190 229 255 q 421 124 331 124 q 563 190 511 124 q 614 363 614 255 m 792 523 l 792 363 q 689 92 792 197 q 420 -14 585 -14 q 227 34 311 -14 q 97 169 143 83 q 51 363 51 254 l 51 523 q 153 794 51 688 q 420 900 256 900 q 688 794 585 900 q 792 523 792 688 m 663 1185 l 663 1084 l 217 1084 l 217 1185 l 663 1185 z "},"ō":{"ha":707,"x_min":37,"x_max":660,"o":"m 214 335 l 214 322 q 247 175 214 228 q 348 123 280 123 q 449 176 416 123 q 481 322 481 229 l 481 335 q 448 480 481 427 q 348 534 415 534 q 248 480 281 534 q 214 335 214 427 m 37 322 l 37 335 q 120 579 37 486 q 348 671 203 671 q 576 579 492 671 q 660 335 660 486 l 660 322 q 576 78 660 170 q 348 -14 493 -14 q 120 78 203 -14 q 37 322 37 170 m 576 976 l 576 874 l 130 874 l 130 976 l 576 976 z "},"Ő":{"ha":863,"x_min":51,"x_max":792,"o":"m 614 363 l 614 524 q 562 695 614 630 q 420 761 510 761 q 279 696 330 761 q 229 524 229 631 l 229 363 q 280 190 229 255 q 421 124 331 124 q 563 190 511 124 q 614 363 614 255 m 792 523 l 792 363 q 689 92 792 197 q 420 -14 585 -14 q 227 34 311 -14 q 97 169 143 83 q 51 363 51 254 l 51 523 q 153 794 51 688 q 420 900 256 900 q 688 794 585 900 q 792 523 792 688 m 477 1047 l 615 1231 l 773 1231 l 610 1047 l 477 1047 m 262 1047 l 376 1231 l 532 1231 l 392 1047 l 262 1047 z "},"ő":{"ha":707,"x_min":37,"x_max":686,"o":"m 214 335 l 214 322 q 247 175 214 228 q 348 123 280 123 q 449 176 416 123 q 481 322 481 229 l 481 335 q 448 480 481 427 q 348 534 415 534 q 248 480 281 534 q 214 335 214 427 m 37 322 l 37 335 q 120 579 37 486 q 348 671 203 671 q 576 579 492 671 q 660 335 660 486 l 660 322 q 576 78 660 170 q 348 -14 493 -14 q 120 78 203 -14 q 37 322 37 170 m 391 837 l 528 1021 l 686 1021 l 524 837 l 391 837 m 176 837 l 290 1021 l 445 1021 l 305 837 l 176 837 z "},"Œ":{"ha":1211,"x_min":57,"x_max":1145,"o":"m 234 350 q 284 185 234 243 q 427 128 335 128 q 548 136 484 128 l 548 749 q 426 758 474 758 q 284 701 334 758 q 234 539 234 645 l 234 350 m 427 -14 q 237 31 320 -14 q 106 158 153 75 q 57 342 60 240 l 57 536 q 103 725 57 642 q 233 853 149 808 q 427 899 317 899 q 604 887 502 899 l 1144 887 l 1144 739 l 733 739 l 733 527 l 1084 527 l 1084 384 l 733 384 l 733 146 l 1145 146 l 1143 -1 l 603 -1 q 427 -14 500 -14 z "},"œ":{"ha":1127,"x_min":52,"x_max":1082,"o":"m 363 671 q 589 581 504 671 q 802 672 669 672 q 1008 593 934 671 q 1082 370 1082 514 l 1082 273 l 683 273 q 733 166 693 203 q 831 128 773 128 q 929 138 889 128 q 1019 176 970 149 l 1067 62 q 957 6 1023 26 q 817 -14 890 -14 q 590 77 675 -14 q 449 -4 534 18 q 277 -4 363 -26 q 136 78 191 18 q 52 327 52 169 l 53 335 q 90 510 53 434 q 198 629 127 587 q 363 671 268 671 m 361 528 q 228 322 228 528 q 262 178 228 227 q 363 128 297 128 q 497 335 497 128 q 462 478 497 429 q 361 528 427 528 m 907 410 l 908 410 q 880 498 908 469 q 803 528 852 528 q 723 494 753 528 q 684 393 693 459 l 907 393 l 907 410 z "},"Ŕ":{"ha":798,"x_min":75,"x_max":784,"o":"m 253 -1 l 75 -1 l 75 888 l 410 888 q 648 819 563 888 q 734 625 734 749 q 592 428 734 490 q 740 216 740 384 l 740 151 q 751 70 740 108 q 784 13 762 31 l 784 0 l 600 0 q 562 152 562 31 l 562 215 q 525 318 562 281 q 422 355 489 355 l 253 355 l 253 -1 m 253 751 l 253 492 l 407 492 q 556 618 556 492 q 519 716 556 681 q 410 751 481 751 l 253 751 m 296 1042 l 416 1231 l 609 1231 l 439 1042 l 296 1042 z "},"ŕ":{"ha":456,"x_min":62,"x_max":483,"o":"m 239 0 l 62 0 l 62 661 l 227 661 l 235 563 q 380 673 286 673 q 428 665 404 673 l 409 507 l 344 509 q 239 446 269 509 l 239 0 m 170 831 l 290 1021 l 483 1021 l 313 831 l 170 831 z "},"Ŗ":{"ha":798,"x_min":74,"x_max":783,"o":"m 252 -1 l 74 -1 l 74 888 l 410 888 q 648 819 562 888 q 733 625 733 749 q 591 428 733 490 q 739 216 739 384 l 739 151 q 750 70 739 108 q 783 13 761 31 l 783 0 l 600 0 q 561 152 561 31 l 561 215 q 525 318 561 281 q 422 355 488 355 l 252 355 l 252 -1 m 252 751 l 252 492 l 406 492 q 555 618 555 492 q 518 716 555 681 q 410 751 481 751 l 252 751 z "},"ŗ":{"ha":456,"x_min":61,"x_max":427,"o":"m 239 0 l 61 0 l 61 661 l 227 661 l 234 563 q 380 673 285 673 q 427 665 403 673 l 408 507 l 343 509 q 239 446 268 509 l 239 0 z "},"Ř":{"ha":798,"x_min":74,"x_max":783,"o":"m 252 -1 l 74 -1 l 74 888 l 410 888 q 648 819 562 888 q 733 625 733 749 q 591 428 733 490 q 739 216 739 384 l 739 151 q 750 70 739 108 q 783 13 761 31 l 783 0 l 600 0 q 561 152 561 31 l 561 215 q 525 318 561 281 q 422 355 488 355 l 252 355 l 252 -1 m 252 751 l 252 492 l 406 492 q 555 618 555 492 q 518 716 555 681 q 410 751 481 751 l 252 751 m 604 1233 l 604 1226 l 420 1055 l 308 1055 l 124 1227 l 124 1233 l 275 1233 l 364 1145 l 454 1233 l 604 1233 z "},"ř":{"ha":456,"x_min":5,"x_max":485,"o":"m 245 0 l 67 0 l 67 661 l 233 661 l 240 563 q 386 673 291 673 q 433 665 409 673 l 414 507 l 349 509 q 245 446 274 509 l 245 0 m 485 1023 l 485 1016 l 300 844 l 189 844 l 5 1017 l 5 1023 l 155 1023 l 245 935 l 334 1023 l 485 1023 z "},"Ś":{"ha":768,"x_min":49,"x_max":737,"o":"m 408 121 l 410 121 q 520 150 481 121 q 559 231 559 180 q 524 313 559 282 q 396 372 488 344 q 152 483 229 420 q 75 654 75 547 q 168 831 75 762 q 406 900 260 900 q 644 823 551 900 q 732 630 736 746 l 732 627 l 559 627 q 517 727 559 690 q 404 764 475 764 q 292 733 332 764 q 252 655 252 703 q 293 578 252 607 q 439 516 333 549 q 664 407 590 474 q 737 229 737 339 q 648 52 737 118 q 409 -14 559 -14 q 229 19 311 -14 q 98 117 148 52 q 50 270 49 183 l 52 274 l 224 274 q 408 121 224 121 m 334 1042 l 454 1231 l 646 1231 l 477 1042 l 334 1042 z "},"ś":{"ha":643,"x_min":31,"x_max":593,"o":"m 320 108 l 320 106 q 395 125 369 106 q 421 177 421 144 q 392 230 421 210 q 288 268 362 251 q 109 339 167 292 q 52 470 52 386 q 124 612 52 553 q 318 670 196 670 q 516 611 441 670 q 587 461 591 553 l 586 458 l 414 458 q 388 523 414 498 q 317 547 362 547 q 247 527 272 547 q 222 473 222 506 q 249 422 222 441 q 353 389 276 404 q 535 317 477 364 q 593 183 593 269 q 517 42 593 98 q 314 -14 441 -14 q 109 51 187 -14 q 35 205 31 115 l 35 209 l 199 209 q 320 108 201 108 m 254 831 l 374 1021 l 566 1021 l 397 831 l 254 831 z "},"Š":{"ha":768,"x_min":49,"x_max":737,"o":"m 408 121 l 410 121 q 520 150 481 121 q 559 231 559 180 q 524 313 559 282 q 396 372 488 344 q 152 483 229 420 q 75 654 75 547 q 168 831 75 762 q 406 900 260 900 q 644 823 551 900 q 732 630 736 746 l 732 627 l 559 627 q 517 727 559 690 q 404 764 475 764 q 292 733 332 764 q 252 655 252 703 q 293 578 252 607 q 439 516 333 549 q 664 407 590 474 q 737 229 737 339 q 648 52 737 118 q 409 -14 559 -14 q 229 19 311 -14 q 98 117 148 52 q 50 270 49 183 l 52 274 l 224 274 q 408 121 224 121 m 642 1233 l 642 1226 l 458 1055 l 346 1055 l 162 1227 l 162 1233 l 313 1233 l 402 1145 l 492 1233 l 642 1233 z "},"š":{"ha":643,"x_min":31,"x_max":593,"o":"m 320 108 l 320 106 q 395 125 369 106 q 421 177 421 144 q 392 230 421 210 q 288 268 362 251 q 109 339 167 292 q 52 470 52 386 q 124 612 52 553 q 318 670 196 670 q 516 611 441 670 q 587 461 591 553 l 586 458 l 414 458 q 388 523 414 498 q 317 547 362 547 q 247 527 272 547 q 222 473 222 506 q 249 422 222 441 q 353 389 276 404 q 535 317 477 364 q 593 183 593 269 q 517 42 593 98 q 314 -14 441 -14 q 109 51 187 -14 q 35 205 31 115 l 35 209 l 199 209 q 320 108 201 108 m 562 1023 l 562 1016 l 378 844 l 266 844 l 82 1017 l 82 1023 l 233 1023 l 322 935 l 412 1023 l 562 1023 z "},"Ť":{"ha":773,"x_min":14,"x_max":694,"o":"m 694 888 l 694 751 l 443 751 l 443 0 l 264 0 l 264 751 l 14 751 l 14 888 l 694 888 m 631 1233 l 631 1226 l 446 1055 l 334 1055 l 151 1227 l 151 1233 l 301 1233 l 391 1145 l 480 1233 l 631 1233 z "},"ť":{"ha":447,"x_min":5,"x_max":401,"o":"m 101 821 l 279 821 l 279 659 l 391 659 l 391 534 l 279 534 l 279 197 q 338 126 279 126 q 386 133 359 126 l 401 4 q 293 -14 345 -14 q 101 197 101 -14 l 101 534 l 5 534 l 5 659 l 101 659 l 101 821 z "},"Ū":{"ha":823,"x_min":65,"x_max":778,"o":"m 600 887 l 778 887 l 778 298 q 681 68 778 150 q 421 -14 584 -14 q 161 67 258 -14 q 65 298 65 149 l 65 887 l 244 887 l 244 298 q 290 167 244 211 q 421 123 336 123 q 553 166 507 123 q 600 298 600 210 l 600 887 m 635 1185 l 635 1084 l 190 1084 l 190 1185 l 635 1185 z "},"ū":{"ha":699,"x_min":58,"x_max":633,"o":"m 279 -14 q 115 54 172 -14 q 58 260 58 121 l 58 659 l 235 659 l 235 259 q 258 156 235 188 q 332 124 282 124 q 454 178 415 124 l 454 659 l 633 659 l 633 -1 l 481 -1 l 465 94 q 279 -14 401 -14 m 570 976 l 570 874 l 125 874 l 125 976 l 570 976 z "},"Ů":{"ha":823,"x_min":65,"x_max":778,"o":"m 600 886 l 778 886 l 778 297 q 681 67 778 149 q 421 -15 584 -15 q 161 67 258 -15 q 65 297 65 149 l 65 886 l 244 886 l 244 297 q 290 166 244 210 q 421 122 336 122 q 553 166 507 122 q 600 297 600 210 l 600 886 m 471 1206 q 462 1216 471 1206 q 424 1225 453 1225 q 376 1206 395 1225 q 358 1159 358 1187 q 376 1113 358 1131 q 424 1094 394 1094 q 472 1113 454 1094 q 490 1159 490 1131 q 471 1206 490 1187 m 424 1037 l 424 1036 q 326 1072 365 1036 q 288 1160 288 1107 q 327 1248 288 1212 q 424 1284 366 1284 q 520 1249 481 1284 q 560 1160 560 1213 q 521 1072 560 1107 q 424 1037 482 1037 z "},"ů":{"ha":699,"x_min":58,"x_max":633,"o":"m 279 -15 q 115 53 172 -15 q 58 260 58 121 l 58 659 l 235 659 l 235 258 q 258 155 235 187 q 332 123 282 123 q 454 178 415 123 l 454 659 l 633 659 l 633 -2 l 481 -2 l 465 93 q 279 -15 401 -15 m 406 996 q 397 1006 406 996 q 359 1015 388 1015 q 311 996 330 1015 q 293 949 293 977 q 311 902 293 921 q 359 884 329 884 q 407 902 389 884 q 425 949 425 921 q 406 996 425 977 m 359 827 l 359 826 q 261 862 300 826 q 222 949 222 897 q 262 1038 222 1002 q 358 1074 301 1074 q 455 1039 416 1074 q 495 950 495 1003 q 456 862 495 897 q 359 827 417 827 z "},"Ű":{"ha":823,"x_min":65,"x_max":778,"o":"m 600 887 l 778 887 l 778 298 q 681 68 778 150 q 421 -14 584 -14 q 161 67 258 -14 q 65 298 65 149 l 65 887 l 244 887 l 244 298 q 290 167 244 211 q 421 123 336 123 q 553 166 507 123 q 600 298 600 210 l 600 887 m 450 1047 l 588 1231 l 746 1231 l 583 1047 l 450 1047 m 235 1047 l 349 1231 l 505 1231 l 365 1047 l 235 1047 z "},"ű":{"ha":699,"x_min":58,"x_max":681,"o":"m 279 -14 q 115 54 172 -14 q 58 260 58 121 l 58 659 l 235 659 l 235 259 q 258 156 235 188 q 332 124 282 124 q 454 178 415 124 l 454 659 l 633 659 l 633 -1 l 481 -1 l 465 94 q 279 -14 401 -14 m 385 837 l 523 1021 l 681 1021 l 518 837 l 385 837 m 170 837 l 284 1021 l 439 1021 l 300 837 l 170 837 z "},"Ų":{"ha":823,"x_min":71,"x_max":752,"o":"m 568 865 l 752 865 l 752 278 q 710 109 752 180 q 593 2 669 39 q 541 -42 557 -20 q 524 -91 524 -63 q 564 -130 524 -130 q 613 -118 583 -130 l 631 -214 q 527 -241 587 -241 q 429 -207 467 -241 q 391 -113 391 -172 q 412 -37 391 -68 q 161 47 252 -37 q 71 281 71 131 l 71 865 l 254 865 l 254 278 q 412 111 254 111 q 568 273 566 111 l 568 865 z "},"ų":{"ha":699,"x_min":64,"x_max":634,"o":"m 634 -28 l 614 -28 q 544 -81 566 -56 q 521 -136 521 -105 q 561 -176 521 -176 q 610 -163 581 -176 l 627 -259 q 524 -286 583 -286 q 426 -252 465 -286 q 388 -159 388 -218 q 467 -23 388 -77 l 463 39 q 286 -41 398 -41 q 64 199 65 -41 l 64 632 l 240 632 l 240 205 q 334 102 240 102 q 457 164 423 102 l 457 632 l 634 632 l 634 -28 z "},"Ÿ":{"ha":772,"x_min":3,"x_max":785,"o":"m 480 0 l 302 0 l 302 321 l 3 888 l 199 888 l 393 479 l 396 479 l 590 888 l 785 888 l 480 313 l 480 0 m 333 1127 q 333 1111 333 1127 q 310 1073 333 1095 q 249 1050 286 1050 q 189 1072 212 1050 q 165 1127 165 1094 q 188 1183 165 1161 q 249 1205 212 1205 q 310 1182 286 1205 q 333 1127 333 1160 m 607 1072 q 595 1061 607 1072 q 546 1050 583 1050 q 485 1072 509 1050 q 462 1127 462 1095 q 486 1182 462 1160 q 546 1205 510 1205 q 606 1183 582 1205 q 631 1127 631 1160 q 607 1072 631 1095 z "},"Ź":{"ha":758,"x_min":42,"x_max":692,"o":"m 692 137 l 692 0 l 42 0 l 42 93 l 465 751 l 43 751 l 43 888 l 682 888 l 682 800 l 258 137 l 692 137 m 321 1042 l 441 1231 l 633 1231 l 464 1042 l 321 1042 z "},"ź":{"ha":636,"x_min":41,"x_max":590,"o":"m 590 137 l 590 0 l 41 0 l 41 105 l 355 522 l 51 522 l 51 661 l 579 661 l 579 559 l 262 137 l 590 137 m 248 831 l 368 1021 l 561 1021 l 391 831 l 248 831 z "},"Ż":{"ha":758,"x_min":42,"x_max":692,"o":"m 692 137 l 692 0 l 42 0 l 42 93 l 465 751 l 43 751 l 43 888 l 682 888 l 682 800 l 258 137 l 692 137 m 403 1061 q 382 1061 403 1061 q 337 1084 361 1061 q 313 1144 313 1107 q 337 1204 313 1181 q 404 1228 362 1228 q 469 1205 445 1228 q 494 1144 494 1181 q 469 1084 494 1107 q 403 1061 445 1061 z "},"ż":{"ha":636,"x_min":41,"x_max":590,"o":"m 590 137 l 590 0 l 41 0 l 41 105 l 355 522 l 51 522 l 51 661 l 579 661 l 579 559 l 262 137 l 590 137 m 331 851 q 310 851 331 851 q 264 874 289 851 q 240 933 240 897 q 265 994 240 970 q 331 1018 290 1018 q 397 995 372 1018 q 421 934 421 971 q 397 874 421 897 q 331 851 372 851 z "},"Ž":{"ha":758,"x_min":42,"x_max":692,"o":"m 692 137 l 692 0 l 42 0 l 42 93 l 465 751 l 43 751 l 43 888 l 682 888 l 682 800 l 258 137 l 692 137 m 629 1233 l 629 1226 l 445 1055 l 333 1055 l 149 1227 l 149 1233 l 300 1233 l 389 1145 l 479 1233 l 629 1233 z "},"ž":{"ha":636,"x_min":41,"x_max":590,"o":"m 590 137 l 590 0 l 41 0 l 41 105 l 355 522 l 51 522 l 51 661 l 579 661 l 579 559 l 262 137 l 590 137 m 557 1023 l 557 1016 l 372 844 l 260 844 l 77 1017 l 77 1023 l 227 1023 l 317 935 l 406 1023 l 557 1023 z "},"ƒ":{"ha":451,"x_min":-22,"x_max":453,"o":"m 416 631 l 416 501 l 290 501 l 289 -58 q 231 -235 289 -173 q 66 -296 172 -296 q -22 -286 24 -296 l -12 -146 q 65 -150 25 -159 q 97 -130 88 -144 q 113 -60 113 -104 l 113 501 l 14 501 l 14 631 l 113 631 l 113 692 q 177 861 113 802 q 355 921 240 921 q 453 908 391 921 l 438 771 q 378 777 416 777 q 290 686 290 777 l 290 631 l 416 631 z "},"Ț":{"ha":773,"x_min":14,"x_max":694,"o":"m 694 888 l 694 751 l 443 751 l 443 0 l 264 0 l 264 751 l 14 751 l 14 888 l 694 888 z "},"ț":{"ha":422,"x_min":5,"x_max":401,"o":"m 101 821 l 279 821 l 279 659 l 391 659 l 391 534 l 279 534 l 279 197 q 338 126 279 126 q 386 133 359 126 l 401 4 q 293 -14 345 -14 q 101 197 101 -14 l 101 534 l 5 534 l 5 659 l 101 659 l 101 821 z "},"ʼ":{"ha":441,"x_min":105,"x_max":357,"o":"m 347 1015 l 357 994 l 246 684 l 105 684 l 170 1015 l 347 1015 z "},"ˆ":{"ha":620,"x_min":75,"x_max":541,"o":"m 541 844 l 401 844 l 307 932 l 213 844 l 75 844 l 75 853 l 256 1022 l 358 1022 l 541 851 l 541 844 z "},"ˇ":{"ha":589,"x_min":52,"x_max":532,"o":"m 532 1023 l 532 1016 l 348 844 l 236 844 l 52 1017 l 52 1023 l 203 1023 l 292 935 l 382 1023 l 532 1023 z "},"ˉ":{"ha":626,"x_min":80,"x_max":526,"o":"m 526 977 l 526 875 l 80 875 l 80 977 l 526 977 z "},"˘":{"ha":555,"x_min":64,"x_max":487,"o":"m 361 1015 l 487 1015 q 429 884 487 934 q 275 833 370 833 q 122 883 180 833 q 64 1015 64 932 l 190 1015 q 213 956 190 977 q 276 935 235 935 q 338 956 316 935 q 361 1015 361 977 z "},"˙":{"ha":332,"x_min":72,"x_max":253,"o":"m 162 840 q 142 840 162 840 q 96 862 121 840 q 72 922 72 885 q 97 983 72 959 q 163 1006 121 1006 q 229 983 204 1006 q 253 922 253 960 q 229 862 253 885 q 162 840 204 840 z "},"˚":{"ha":416,"x_min":73,"x_max":345,"o":"m 256 932 q 247 941 256 932 q 209 951 238 951 q 161 932 180 951 q 143 885 143 913 q 161 838 143 857 q 209 819 179 819 q 257 838 239 819 q 275 885 275 857 q 256 932 275 913 m 209 762 l 209 762 q 111 797 150 762 q 73 885 73 833 q 112 974 73 937 q 209 1010 151 1010 q 306 974 266 1010 q 345 886 345 939 q 306 798 345 833 q 209 762 267 762 z "},"˛":{"ha":376,"x_min":20,"x_max":260,"o":"m 153 -136 q 193 -176 153 -176 q 241 -163 213 -176 l 260 -259 q 156 -286 216 -286 q 58 -252 96 -286 q 20 -159 20 -218 q 156 8 20 -55 l 247 -28 q 175 -81 198 -56 q 153 -136 153 -105 z "},"˜":{"ha":602,"x_min":73,"x_max":533,"o":"m 395 852 q 352 857 370 852 q 303 879 334 863 q 258 900 273 896 q 224 905 244 905 q 190 889 204 905 q 176 846 176 873 l 73 852 q 113 968 73 921 q 211 1015 153 1015 q 246 1010 230 1015 q 297 989 262 1006 q 346 968 332 972 q 380 964 360 964 q 414 979 399 964 q 429 1021 429 994 l 533 1014 q 493 899 533 945 q 395 852 453 852 z "},"˝":{"ha":513,"x_min":35,"x_max":545,"o":"m 250 837 l 387 1021 l 545 1021 l 382 837 l 250 837 m 35 837 l 149 1021 l 304 1021 l 164 837 l 35 837 z "},"π":{"ha":804,"x_min":32,"x_max":781,"o":"m 663 525 l 663 205 q 677 153 663 168 q 723 137 691 137 q 781 142 755 137 l 781 8 q 675 -7 732 -7 q 485 180 488 -7 l 485 525 l 316 525 l 316 -1 l 140 -1 l 140 525 l 32 525 l 32 660 l 766 660 l 767 525 l 663 525 z "},"ऀ":{"ha":0,"x_min":-664,"x_max":-136,"o":"m -477 937 l -477 1074 l -332 1074 l -332 937 l -477 937 m -161 1061 q -407 1146 -266 1146 q -639 1065 -548 1146 l -664 1187 q -558 1255 -625 1230 q -412 1280 -492 1280 q -260 1254 -332 1280 q -136 1184 -189 1229 l -161 1061 z "},"ँ":{"ha":0,"x_min":-644,"x_max":-116,"o":"m -619 1158 q -373 1072 -514 1072 q -141 1153 -232 1072 l -116 1031 q -221 963 -155 988 q -368 939 -288 939 q -520 964 -448 939 q -644 1034 -591 989 l -619 1158 m -303 1282 l -303 1145 l -448 1145 l -448 1282 l -303 1282 z "},"ं":{"ha":0,"x_min":-302,"x_max":-141,"o":"m -141 1134 l -141 981 l -302 981 l -302 1134 l -141 1134 z "},"ः":{"ha":394,"x_min":87,"x_max":266,"o":"m 266 252 l 266 95 l 87 95 l 87 252 l 266 252 m 266 660 l 266 503 l 87 503 l 87 660 l 266 660 z "},"ऄ":{"ha":1010,"x_min":52,"x_max":1030,"o":"m 549 294 q 479 109 549 176 q 294 41 408 41 q 169 54 224 41 q 52 97 113 67 l 77 233 q 176 198 137 208 q 262 187 216 187 q 340 218 309 187 q 370 296 370 249 q 345 374 370 343 q 268 412 319 404 q 142 401 213 401 l 142 539 q 299 572 250 539 q 348 658 348 605 q 322 720 348 695 q 250 744 297 744 q 117 705 202 744 l 92 837 q 181 870 138 860 q 283 881 224 881 q 460 823 393 881 q 527 667 527 764 q 442 486 527 557 q 471 466 454 480 l 698 466 l 698 743 l 582 743 l 582 873 l 710 873 l 710 892 q 650 963 710 963 q 586 954 637 963 q 498 945 535 945 q 415 964 461 945 q 332 1016 370 982 l 381 1128 q 512 1083 439 1083 q 605 1099 534 1083 q 707 1115 675 1115 q 832 1063 787 1115 q 878 911 878 1011 l 878 873 l 1030 873 l 1030 743 l 878 743 l 878 0 l 699 0 l 698 327 l 547 327 q 549 294 549 294 z "},"अ":{"ha":1010,"x_min":53,"x_max":1030,"o":"m 699 0 l 699 327 l 549 327 q 551 294 551 294 q 480 109 551 176 q 296 41 410 41 q 170 54 226 41 q 53 97 115 67 l 79 233 q 178 198 138 208 q 264 187 217 187 q 341 218 311 187 q 372 296 372 249 q 346 374 372 343 q 269 412 321 404 q 143 401 214 401 l 143 539 q 300 572 252 539 q 349 658 349 605 q 324 720 349 695 q 251 744 298 744 q 118 705 203 744 l 94 837 q 182 870 139 860 q 284 881 226 881 q 461 823 394 881 q 528 667 528 764 q 444 486 528 557 q 472 466 456 480 l 699 466 l 699 743 l 583 743 l 583 873 l 1030 873 l 1030 743 l 878 743 l 878 0 l 699 0 z "},"आ":{"ha":1409,"x_min":53,"x_max":1430,"o":"m 699 0 l 699 327 l 549 327 q 551 294 551 294 q 480 109 551 176 q 296 41 410 41 q 170 54 226 41 q 53 97 115 67 l 79 233 q 178 198 138 208 q 264 187 217 187 q 341 218 311 187 q 372 296 372 249 q 346 374 372 343 q 269 412 321 404 q 143 401 214 401 l 143 539 q 300 572 252 539 q 349 658 349 605 q 324 720 349 695 q 251 744 298 744 q 118 705 203 744 l 94 837 q 182 870 139 860 q 284 881 226 881 q 461 823 394 881 q 528 667 528 764 q 444 486 528 557 q 472 466 456 480 l 699 466 l 699 743 l 583 743 l 583 873 l 1430 873 l 1430 743 l 1277 743 l 1277 0 l 1099 0 l 1099 743 l 878 743 l 878 0 l 699 0 z "},"इ":{"ha":738,"x_min":-20,"x_max":758,"o":"m 265 4 q 132 33 182 4 q 83 109 83 62 q 114 186 83 156 q 197 217 144 217 q 357 143 278 217 l 358 143 q 456 169 420 143 q 493 231 493 195 q 416 300 493 299 q 338 292 371 302 q 268 258 304 282 l 249 258 q 116 346 170 285 q 62 481 62 407 q 123 602 62 555 q 303 649 184 649 l 430 649 l 430 743 l -20 743 l -20 873 l 758 873 l 758 743 l 606 743 l 606 517 l 311 517 q 251 501 271 517 q 231 456 231 484 q 257 406 231 429 q 427 438 335 438 q 604 379 537 438 q 671 232 671 321 q 611 87 671 144 q 441 17 551 31 l 542 -108 l 407 -172 l 266 4 l 265 4 z "},"ई":{"ha":738,"x_min":-24,"x_max":755,"o":"m 262 5 q 129 34 178 5 q 79 110 79 62 q 110 187 79 157 q 193 218 141 218 q 353 144 275 218 l 355 144 q 453 170 416 144 q 490 231 490 196 q 413 301 490 300 q 334 293 368 302 q 264 258 301 283 l 245 258 q 113 347 167 286 q 58 482 58 408 q 119 603 58 556 q 300 650 180 650 l 427 650 l 427 744 l -24 744 l -24 874 l 419 874 q 386 1036 385 964 q 447 1184 386 1128 q 614 1240 508 1240 q 750 1215 686 1240 l 736 1105 q 665 1116 696 1116 q 587 1084 617 1116 q 556 995 556 1051 q 578 873 556 939 l 755 873 l 755 743 l 602 743 l 602 517 l 308 517 q 248 501 268 517 q 228 456 228 484 q 254 406 228 429 q 423 438 332 438 q 601 379 534 438 q 667 232 667 321 q 607 87 667 144 q 438 17 547 31 l 538 -108 l 404 -172 l 262 5 l 262 5 z "},"उ":{"ha":669,"x_min":-20,"x_max":690,"o":"m 301 22 l 301 22 q 169 35 229 22 q 45 82 109 49 l 66 222 q 263 167 167 167 q 376 198 336 167 q 415 278 415 229 q 385 360 415 327 q 297 403 354 393 q 176 393 236 393 l 146 393 l 146 532 l 168 532 q 323 566 283 532 q 350 602 342 582 q 358 649 358 621 q 329 718 358 692 q 243 744 299 744 l -20 744 l -20 874 l 690 874 l 690 744 l 507 744 q 532 640 532 700 q 472 486 532 549 q 559 395 527 450 q 591 277 591 340 q 514 89 591 155 q 301 22 437 22 z "},"ऊ":{"ha":984,"x_min":-21,"x_max":1004,"o":"m 300 22 q 168 35 228 22 q 45 82 109 49 l 66 222 q 262 167 166 167 q 375 198 336 167 q 414 278 414 229 q 384 360 414 327 q 296 403 353 393 q 175 393 235 393 l 145 393 l 145 532 l 168 532 q 321 566 282 532 q 350 602 342 582 q 357 649 357 621 q 328 718 357 692 q 243 744 298 744 l -21 744 l -21 874 l 1004 874 l 1004 744 l 506 744 q 532 644 532 700 q 511 544 532 589 q 654 567 583 567 q 849 494 771 567 q 926 305 926 421 q 841 68 926 176 l 671 101 q 749 305 749 209 q 718 390 749 358 q 642 421 687 421 q 555 400 597 421 q 591 277 591 344 l 590 276 q 513 88 590 155 q 300 22 436 22 z "},"ऋ":{"ha":1079,"x_min":-20,"x_max":1099,"o":"m 450 0 l 450 243 l 187 77 l 92 214 l 417 407 q 297 471 337 456 q 216 487 256 487 q 45 440 134 487 l 10 591 q 211 641 96 641 q 424 572 303 641 l 450 557 l 450 743 l -20 743 l -20 873 l 1099 873 l 1099 743 l 628 743 l 628 494 q 732 514 688 499 q 713 578 713 544 q 745 636 713 613 q 837 659 777 659 q 943 628 897 659 q 989 552 989 597 q 979 506 989 526 q 944 463 970 490 q 1019 273 1019 370 q 961 125 1019 176 q 806 74 904 74 q 730 79 761 74 l 713 202 q 767 200 728 200 q 831 222 806 200 q 856 279 856 243 q 817 384 856 331 q 628 342 730 349 l 628 0 l 450 0 z "},"ऌ":{"ha":1006,"x_min":-20,"x_max":1026,"o":"m 857 -60 l 857 -62 q 691 -12 752 -62 q 631 122 631 39 q 670 231 631 186 q 779 290 709 276 q 781 326 781 322 q 758 421 781 388 q 689 454 734 454 q 615 409 643 454 q 587 279 587 365 l 587 182 l 414 182 l 414 292 q 415 323 414 302 q 377 415 407 382 q 305 448 347 448 q 237 413 263 448 q 210 317 210 378 q 236 196 210 256 q 317 62 262 136 l 175 11 q 78 168 115 80 q 40 340 40 255 q 106 534 40 464 q 280 604 172 604 q 487 517 406 604 q 677 604 559 604 q 694 604 689 604 l 694 743 l -20 743 l -20 873 l 1026 873 l 1026 743 l 873 743 l 873 531 q 949 327 949 457 q 925 187 949 268 l 876 187 q 807 168 831 187 q 783 118 783 149 q 806 70 783 87 q 863 54 828 54 q 963 73 919 54 l 981 -37 q 924 -54 960 -47 q 857 -60 888 -60 z "},"ऍ":{"ha":789,"x_min":-20,"x_max":809,"o":"m 96 473 l 96 743 l -20 743 l -20 873 l 809 873 l 809 743 l 667 743 l 667 541 q 513 282 667 354 l 405 382 q 488 559 488 438 l 488 743 l 274 743 l 274 487 q 363 221 274 304 q 644 139 452 139 l 612 -1 q 392 33 490 -1 q 230 130 295 67 q 131 279 165 192 q 96 473 96 366 m 149 1158 q 395 1072 254 1072 q 627 1153 536 1072 l 652 1031 q 547 963 614 988 q 400 939 480 939 q 249 964 320 939 q 125 1034 177 989 l 149 1158 z "},"ऎ":{"ha":789,"x_min":-22,"x_max":809,"o":"m 610 -1 q 391 33 488 -1 q 229 130 294 67 q 130 279 164 192 q 95 473 95 366 l 95 743 l -22 743 l -22 873 l 496 873 l 496 892 q 436 963 496 963 q 372 954 423 963 q 284 945 321 945 q 201 964 247 945 q 117 1016 155 982 l 167 1128 q 298 1083 225 1083 q 390 1099 320 1083 q 493 1115 460 1115 q 618 1063 572 1115 q 663 911 663 1011 l 663 873 l 809 873 l 809 743 l 667 743 l 667 541 q 513 282 667 354 l 405 382 q 488 559 488 438 l 488 743 l 274 743 l 274 487 q 363 221 274 304 q 644 139 452 139 l 612 -1 l 610 -1 z "},"ए":{"ha":789,"x_min":-20,"x_max":809,"o":"m 96 473 l 96 743 l -20 743 l -20 873 l 809 873 l 809 743 l 667 743 l 667 541 q 513 282 667 354 l 405 382 q 488 559 488 438 l 488 743 l 274 743 l 274 487 q 363 221 274 304 q 644 139 452 139 l 612 -1 q 392 33 490 -1 q 230 130 295 67 q 131 279 165 192 q 96 473 96 366 z "},"ऐ":{"ha":789,"x_min":-20,"x_max":809,"o":"m 96 473 l 96 743 l -20 743 l -20 873 l 458 873 l 220 1148 l 371 1232 l 646 873 l 809 873 l 809 743 l 667 743 l 667 541 q 513 282 667 354 l 405 382 q 488 559 488 438 l 488 743 l 274 743 l 274 487 q 363 221 274 304 q 644 139 452 139 l 612 -1 q 392 33 490 -1 q 230 130 295 67 q 131 279 165 192 q 96 473 96 366 z "},"ऑ":{"ha":1409,"x_min":53,"x_max":1430,"o":"m 699 0 l 699 327 l 549 327 q 551 294 551 294 q 480 109 551 176 q 296 41 410 41 q 170 54 226 41 q 53 97 115 67 l 79 233 q 178 198 138 208 q 264 187 217 187 q 341 218 311 187 q 372 296 372 249 q 346 374 372 343 q 269 412 321 404 q 143 401 214 401 l 143 539 q 300 572 252 539 q 349 658 349 605 q 324 720 349 695 q 251 744 298 744 q 118 705 203 744 l 94 837 q 182 870 139 860 q 284 881 226 881 q 461 823 394 881 q 528 667 528 764 q 444 486 528 557 q 472 466 456 480 l 699 466 l 699 743 l 583 743 l 583 873 l 1430 873 l 1430 743 l 1277 743 l 1277 0 l 1099 0 l 1099 743 l 878 743 l 878 0 l 699 0 m 761 1158 q 1007 1072 866 1072 q 1239 1153 1148 1072 l 1264 1031 q 1159 963 1225 988 q 1012 939 1092 939 q 860 964 932 939 q 736 1034 789 989 l 761 1158 z "},"ऒ":{"ha":1409,"x_min":52,"x_max":1430,"o":"m 549 294 q 479 109 549 176 q 294 41 408 41 q 169 54 224 41 q 52 97 113 67 l 77 233 q 176 198 137 208 q 262 187 216 187 q 340 218 309 187 q 370 296 370 249 q 345 374 370 343 q 268 412 319 404 q 142 401 213 401 l 142 539 q 299 572 250 539 q 348 658 348 605 q 322 720 348 695 q 250 744 297 744 q 117 705 202 744 l 92 837 q 181 870 138 860 q 283 881 224 881 q 460 823 393 881 q 527 667 527 764 q 442 486 527 557 q 471 466 454 480 l 698 466 l 698 743 l 582 743 l 582 873 l 1109 873 l 1109 892 q 1050 963 1109 963 q 986 954 1037 963 q 898 945 935 945 q 815 964 861 945 q 731 1016 769 982 l 781 1128 q 911 1083 839 1083 q 1004 1099 934 1083 q 1107 1115 1074 1115 q 1232 1063 1186 1115 q 1277 911 1277 1011 l 1277 873 l 1430 873 l 1430 743 l 1277 743 l 1277 0 l 1099 0 l 1099 743 l 878 743 l 878 0 l 699 0 l 698 327 l 547 327 q 549 294 549 294 z "},"ओ":{"ha":1409,"x_min":53,"x_max":1430,"o":"m 699 0 l 699 327 l 549 327 q 551 294 551 294 q 480 109 551 176 q 296 41 410 41 q 170 54 226 41 q 53 97 115 67 l 79 233 q 178 198 138 208 q 264 187 217 187 q 341 218 311 187 q 372 296 372 249 q 346 374 372 343 q 269 412 321 404 q 143 401 214 401 l 143 539 q 300 572 252 539 q 349 658 349 605 q 324 720 349 695 q 251 744 298 744 q 118 705 203 744 l 94 837 q 182 870 139 860 q 284 881 226 881 q 461 823 394 881 q 528 667 528 764 q 444 486 528 557 q 472 466 456 480 l 699 466 l 699 743 l 583 743 l 583 873 l 1073 873 l 834 1148 l 985 1232 l 1260 873 l 1430 873 l 1430 743 l 1277 743 l 1277 0 l 1099 0 l 1099 743 l 878 743 l 878 0 l 699 0 z "},"औ":{"ha":1409,"x_min":53,"x_max":1430,"o":"m 699 0 l 699 327 l 549 327 q 551 294 551 294 q 480 109 551 176 q 296 41 410 41 q 170 54 226 41 q 53 97 115 67 l 79 233 q 178 198 138 208 q 264 187 217 187 q 341 218 311 187 q 372 296 372 249 q 346 374 372 343 q 269 412 321 404 q 143 401 214 401 l 143 539 q 300 572 252 539 q 349 658 349 605 q 324 720 349 695 q 251 744 298 744 q 118 705 203 744 l 94 837 q 182 870 139 860 q 284 881 226 881 q 461 823 394 881 q 528 667 528 764 q 444 486 528 557 q 472 466 456 480 l 699 466 l 699 743 l 583 743 l 583 873 l 965 873 l 695 1051 l 808 1166 l 1094 948 l 968 1234 l 1125 1274 l 1270 873 l 1430 873 l 1430 743 l 1277 743 l 1277 0 l 1099 0 l 1099 743 l 878 743 l 878 0 l 699 0 z "},"क":{"ha":1073,"x_min":-20,"x_max":1094,"o":"m 298 109 q 95 184 175 109 q 16 378 16 258 q 87 563 16 498 q 277 629 159 629 q 441 602 376 629 l 441 744 l -20 744 l -20 874 l 1094 874 l 1094 744 l 620 744 l 620 585 q 743 604 677 604 q 939 531 861 604 q 1017 342 1017 458 q 931 104 1017 212 l 762 138 q 838 342 838 243 q 807 426 838 394 q 726 457 777 457 q 620 421 675 457 l 620 0 l 441 1 l 441 138 q 298 109 385 109 m 305 250 l 306 250 q 441 299 387 250 l 441 454 q 311 486 386 486 q 226 455 258 486 q 194 368 194 424 q 225 281 194 313 q 305 250 256 250 z "},"ख":{"ha":1205,"x_min":-22,"x_max":1225,"o":"m 788 317 q 895 351 850 317 l 895 494 q 844 514 867 509 q 782 519 821 519 q 714 491 743 519 q 685 417 685 464 q 716 344 685 371 q 788 317 748 317 m 298 589 l 298 743 l -20 743 l -20 873 l 1225 873 l 1225 743 l 1073 743 l 1073 0 l 895 0 l 895 197 q 773 179 849 179 q 592 248 668 179 q 516 422 516 316 q 584 591 516 528 q 755 653 652 653 q 895 633 834 653 l 895 743 l 476 743 l 476 587 q 319 317 476 370 l 528 68 l 400 -24 l -22 480 l 100 576 l 216 470 q 278 503 258 475 q 298 589 298 530 z "},"ग":{"ha":858,"x_min":-20,"x_max":878,"o":"m 547 0 l 547 744 l 335 744 l 335 334 q 308 254 335 282 q 233 227 281 227 q 97 285 161 227 q 34 412 34 343 q 61 478 34 453 q 134 503 87 503 l 157 503 l 157 743 l -20 743 l -20 873 l 878 873 l 878 743 l 725 743 l 725 0 l 547 0 z "},"घ":{"ha":896,"x_min":-20,"x_max":916,"o":"m 585 743 l 364 743 q 291 720 317 743 q 266 659 266 697 q 288 600 266 621 q 353 574 311 578 l 465 574 l 476 437 l 389 437 q 291 411 323 437 q 259 339 259 385 q 295 268 259 294 q 393 241 332 242 q 585 296 499 240 l 585 743 m 585 0 l 585 127 q 380 95 493 95 q 151 164 233 95 q 70 348 68 234 q 96 441 71 398 q 164 516 121 485 q 79 673 79 574 q 91 743 79 712 l -20 743 l -20 873 l 916 873 l 916 743 l 763 743 l 763 0 l 585 0 z "},"ङ":{"ha":881,"x_min":-20,"x_max":901,"o":"m 388 9 l 388 8 q 201 31 286 8 q 56 90 115 54 l 94 228 q 234 167 158 190 q 375 144 310 144 q 478 165 439 144 q 517 224 517 186 q 495 273 517 255 q 433 292 473 292 q 281 252 351 292 l 262 252 q 126 339 178 281 q 75 475 75 397 q 133 600 75 554 q 307 646 191 646 l 450 646 l 450 743 l -20 743 l -20 873 l 901 873 l 901 743 l 625 743 l 625 515 l 319 515 q 239 452 239 515 q 271 397 239 419 q 445 431 359 431 q 625 373 559 431 q 690 219 690 314 q 612 67 690 125 q 388 9 534 9 m 832 519 l 832 387 l 670 387 l 670 519 l 832 519 z "},"च":{"ha":916,"x_min":-20,"x_max":936,"o":"m 442 102 q 231 171 314 102 q 148 358 148 240 q 165 453 148 408 l 14 453 l 14 591 l 515 591 l 515 453 l 458 453 l 458 452 q 363 424 393 452 q 332 349 332 395 q 365 276 332 302 q 444 249 398 250 q 604 300 535 248 l 604 743 l -20 743 l -20 873 l 936 873 l 936 743 l 782 743 l 782 0 l 604 0 l 604 132 q 442 102 538 102 z "},"छ":{"ha":1002,"x_min":-20,"x_max":1023,"o":"m 401 402 q 314 371 345 402 q 283 283 283 340 q 337 187 283 226 q 481 149 391 149 q 682 215 604 151 q 760 377 760 280 q 736 466 760 435 q 679 496 713 496 q 578 466 628 496 l 538 589 q 692 636 607 633 l 692 743 l 366 743 q 293 718 317 743 q 269 648 269 693 q 297 571 269 602 q 369 540 325 540 l 454 540 l 466 402 l 401 402 m 92 296 q 184 481 92 412 q 109 559 136 512 q 82 656 82 606 q 96 743 82 707 l -20 743 l -20 873 l 1023 873 l 1023 743 l 870 743 l 870 564 q 932 370 934 490 q 901 230 932 296 q 813 115 869 164 q 673 36 757 65 q 490 6 589 7 q 198 84 304 4 q 92 296 92 165 z "},"ज":{"ha":970,"x_min":-20,"x_max":991,"o":"m 521 294 q 452 115 521 183 q 263 47 384 47 q 28 98 143 47 l 56 232 q 218 193 142 193 q 308 225 275 193 q 342 315 342 256 q 290 416 342 374 q 157 457 238 457 l 117 457 l 117 593 l 663 593 l 663 743 l -20 743 l -20 873 l 991 873 l 991 743 l 838 743 l 838 0 l 663 0 l 662 455 l 460 455 q 521 294 521 389 z "},"झ":{"ha":1129,"x_min":-20,"x_max":1149,"o":"m 265 4 q 132 33 182 4 q 83 109 83 62 q 114 186 83 156 q 197 217 144 217 q 357 143 278 217 l 358 143 q 456 169 420 143 q 493 231 493 195 q 416 300 493 299 q 338 292 371 302 q 268 258 304 282 l 249 258 q 116 346 170 285 q 62 481 62 407 q 123 602 62 555 q 303 649 184 649 l 430 649 l 430 743 l -20 743 l -20 873 l 1149 873 l 1149 743 l 997 743 l 997 0 l 819 0 l 819 205 l 669 205 q 602 79 661 128 q 441 17 543 29 l 542 -108 l 407 -172 l 266 4 l 265 4 m 257 406 q 416 438 335 438 q 636 344 571 438 l 819 344 l 819 743 l 606 743 l 606 517 l 311 517 q 251 501 271 517 q 231 456 231 484 q 257 406 231 429 z "},"ञ":{"ha":1027,"x_min":-20,"x_max":1047,"o":"m 716 0 l 716 322 l 551 322 q 460 162 535 221 q 280 103 386 103 q 30 168 145 103 l 60 306 q 164 264 125 275 q 245 254 202 254 q 340 288 303 254 q 377 379 377 321 q 341 470 377 436 q 240 503 305 503 q 109 472 176 503 l 78 605 q 264 646 166 646 q 437 598 363 646 q 540 468 512 550 l 716 468 l 716 743 l -20 743 l -20 873 l 1047 873 l 1047 743 l 895 743 l 895 0 l 716 0 z "},"ट":{"ha":729,"x_min":-21,"x_max":749,"o":"m 380 610 l 418 610 l 418 743 l -21 743 l -21 873 l 749 873 l 749 743 l 595 743 l 595 470 l 412 470 q 281 431 328 470 q 234 325 234 391 q 287 220 234 258 q 428 182 340 182 q 613 210 515 181 l 631 63 q 433 33 538 33 l 431 32 q 152 113 256 32 q 48 329 47 194 q 137 537 50 464 q 380 610 224 610 z "},"ठ":{"ha":832,"x_min":-20,"x_max":852,"o":"m 219 321 q 219 286 219 321 q 269 209 219 250 q 402 167 319 167 q 536 209 484 167 q 587 324 587 252 q 515 472 587 425 l 428 472 q 273 432 326 472 q 219 321 219 391 m 37 335 q 137 534 37 458 q 398 610 236 610 l 522 610 l 522 743 l -20 743 l -20 873 l 852 873 l 852 743 l 700 743 l 700 517 q 762 317 760 434 q 668 104 762 185 q 408 23 574 24 q 139 108 241 22 q 37 335 37 193 z "},"ड":{"ha":758,"x_min":-20,"x_max":779,"o":"m 388 9 l 388 8 q 201 31 286 8 q 56 90 115 54 l 94 228 q 234 167 158 190 q 375 144 310 144 q 478 165 439 144 q 517 224 517 186 q 495 273 517 255 q 433 292 473 292 q 281 252 351 292 l 262 252 q 126 339 178 281 q 75 475 75 397 q 133 600 75 554 q 307 646 191 646 l 450 646 l 450 743 l -20 743 l -20 873 l 779 873 l 779 743 l 625 743 l 625 515 l 319 515 q 239 452 239 515 q 271 397 239 419 q 445 431 359 431 q 625 373 559 431 q 690 219 690 314 q 612 67 690 125 q 388 9 534 9 z "},"ढ":{"ha":759,"x_min":-20,"x_max":779,"o":"m 425 11 q 146 100 253 11 q 39 335 39 189 q 129 542 39 465 q 385 618 220 618 l 448 618 l 448 743 l -20 743 l -20 873 l 779 873 l 779 743 l 627 743 l 627 482 l 412 482 q 261 439 311 482 q 212 315 212 396 q 271 186 212 234 q 425 138 329 138 q 523 161 490 138 q 557 214 557 184 q 480 276 557 276 q 348 222 419 276 l 290 330 q 382 385 329 364 q 494 406 435 406 q 657 353 598 406 q 715 216 715 300 q 641 66 715 121 q 425 11 567 11 z "},"ण":{"ha":1064,"x_min":-20,"x_max":1084,"o":"m 332 382 q 418 496 418 382 l 418 743 l 250 743 l 250 496 q 272 412 250 441 q 332 382 294 382 m 753 0 l 753 743 l 595 743 l 595 503 q 526 306 595 375 q 338 236 456 236 q 146 307 220 236 q 73 507 73 378 l 73 743 l -20 743 l -20 873 l 1084 873 l 1084 743 l 932 743 l 932 0 l 753 0 z "},"त":{"ha":798,"x_min":-20,"x_max":819,"o":"m 186 -6 l 186 -6 l 186 -6 m 352 608 l 488 608 l 488 743 l -20 743 l -20 873 l 819 873 l 819 743 l 665 743 l 665 0 l 488 0 l 488 461 l 397 461 q 269 418 313 461 q 225 306 225 376 q 332 47 225 186 l 186 -6 q 85 165 120 75 q 50 339 50 255 q 128 534 50 460 q 352 608 205 608 z "},"थ":{"ha":913,"x_min":30,"x_max":934,"o":"m 450 126 q 185 210 294 126 q 30 460 77 294 l 33 484 q 285 540 216 494 q 333 589 319 563 q 347 652 347 614 q 325 713 347 690 q 272 736 304 736 q 221 715 239 736 q 203 667 203 694 q 212 608 203 639 l 79 594 q 58 697 57 642 q 114 819 58 770 q 273 867 170 867 q 438 805 376 867 q 501 638 501 742 q 429 463 501 534 q 237 380 357 393 q 320 297 267 326 q 439 269 374 269 q 603 317 530 269 l 603 743 l 559 743 l 559 873 l 934 873 l 934 743 l 781 743 l 781 0 l 603 0 l 604 149 q 450 126 535 126 z "},"द":{"ha":736,"x_min":-20,"x_max":757,"o":"m 408 69 q 221 104 304 69 q 91 205 139 139 q 43 357 43 271 q 127 543 43 476 q 375 609 212 609 l 426 609 l 426 743 l -20 743 l -20 873 l 757 873 l 757 743 l 604 743 l 604 471 l 411 471 q 220 340 220 471 q 264 245 220 281 q 376 208 307 209 q 373 239 373 219 q 407 311 374 283 q 506 338 439 338 q 622 298 572 338 q 671 206 671 257 q 583 96 671 132 l 666 -97 l 505 -130 l 428 69 l 408 69 z "},"ध":{"ha":902,"x_min":46,"x_max":922,"o":"m 383 95 q 154 165 237 95 q 72 349 71 235 q 96 440 73 397 q 161 513 120 482 q 77 591 108 543 q 46 696 46 638 q 106 831 46 780 q 264 882 166 882 q 429 850 363 882 l 410 729 q 306 749 358 749 q 248 727 269 749 q 226 667 226 706 q 263 602 226 628 q 349 575 300 575 l 470 575 l 482 437 l 391 437 q 293 411 326 437 q 261 340 261 385 q 298 269 261 295 q 395 242 334 242 q 591 296 509 242 l 591 743 l 545 743 l 545 873 l 922 873 l 922 743 l 769 743 l 769 0 l 591 -1 l 591 127 q 383 95 504 95 z "},"न":{"ha":797,"x_min":-20,"x_max":817,"o":"m 486 0 l 486 414 l 277 414 l 277 304 q 255 234 277 259 q 193 208 234 208 q 114 243 152 208 q 53 331 76 277 q 31 439 31 384 q 172 564 31 564 l 486 564 l 486 743 l -20 743 l -20 873 l 817 873 l 817 743 l 664 743 l 664 0 l 486 0 z "},"ऩ":{"ha":797,"x_min":-20,"x_max":817,"o":"m 264 55 l 264 -73 l 109 -73 l 109 55 l 264 55 m 486 0 l 486 414 l 277 414 l 277 304 q 255 234 277 259 q 193 208 234 208 q 114 243 152 208 q 53 331 76 277 q 31 439 31 384 q 172 564 31 564 l 486 564 l 486 743 l -20 743 l -20 873 l 817 873 l 817 743 l 664 743 l 664 0 l 486 0 z "},"प":{"ha":769,"x_min":-20,"x_max":789,"o":"m 345 391 q 459 439 417 391 l 459 743 l 246 743 l 246 515 q 345 391 246 391 m 347 252 q 143 330 220 252 q 67 559 67 409 l 67 743 l -20 743 l -20 873 l 789 873 l 789 743 l 636 743 l 636 0 l 458 0 l 459 273 q 347 252 413 252 z "},"फ":{"ha":1091,"x_min":-20,"x_max":1112,"o":"m 636 0 l 459 0 l 459 273 q 347 252 413 252 q 143 330 220 252 q 67 559 67 409 l 67 743 l -20 743 l -20 873 l 1112 873 l 1112 743 l 636 743 l 636 584 q 762 603 693 603 q 956 530 878 603 q 1034 341 1034 457 q 948 103 1034 211 l 779 137 q 856 341 856 244 q 825 425 856 393 q 742 456 793 456 q 636 420 690 456 l 636 0 m 345 391 q 458 439 416 391 l 458 743 l 245 743 l 245 515 q 345 391 245 391 z "},"ब":{"ha":784,"x_min":-20,"x_max":804,"o":"m 337 253 q 360 254 345 253 l 241 471 q 203 377 203 437 q 240 284 203 316 q 337 253 277 253 m 334 504 l 333 503 l 323 503 l 446 280 q 473 298 460 287 l 473 473 q 334 504 414 504 m 473 0 l 473 144 q 326 115 409 115 q 111 191 197 115 q 26 386 26 267 q 104 573 26 505 q 306 641 182 641 q 473 613 404 641 l 473 743 l -20 743 l -20 873 l 804 873 l 804 743 l 652 743 l 652 0 l 473 0 z "},"भ":{"ha":819,"x_min":-24,"x_max":840,"o":"m 509 0 l 509 334 l 323 334 l 323 292 q 301 229 323 252 q 238 207 279 207 q 98 264 163 207 q 33 388 33 321 q 61 453 33 429 q 132 478 88 478 l 144 478 l 144 644 q 126 723 144 697 q 76 747 108 748 q 35 742 52 747 q -6 720 18 736 l -24 845 q 121 887 26 887 q 269 826 215 887 q 323 653 323 765 l 323 479 l 509 479 l 509 743 l 460 743 l 460 873 l 840 873 l 840 743 l 686 743 l 686 0 l 509 0 z "},"म":{"ha":842,"x_min":-20,"x_max":862,"o":"m 531 0 l 531 335 l 328 335 l 328 293 q 304 230 328 253 q 239 208 281 208 q 99 262 161 208 q 37 389 37 316 q 65 454 37 429 q 137 479 93 479 l 149 479 l 149 743 l -20 743 l -20 873 l 862 873 l 862 743 l 709 743 l 709 0 l 531 0 m 531 743 l 328 743 l 328 479 l 531 479 l 531 743 z "},"य":{"ha":843,"x_min":-20,"x_max":863,"o":"m 410 308 q 533 345 483 308 l 533 743 l 336 743 q 377 679 362 716 q 393 602 393 642 q 349 477 393 530 q 237 406 306 425 q 313 332 268 357 q 410 308 357 308 m 216 624 q 145 743 216 699 l -20 743 l -20 873 l 863 873 l 863 743 l 711 743 l 711 0 l 532 0 l 533 180 q 415 166 488 167 q 175 245 281 165 q 21 472 68 326 l 24 494 q 216 624 216 511 z "},"र":{"ha":600,"x_min":-22,"x_max":620,"o":"m 298 589 l 298 743 l -20 743 l -20 873 l 620 873 l 620 743 l 476 743 l 476 587 q 319 317 476 370 l 528 68 l 400 -24 l -22 480 l 100 576 l 216 470 q 278 503 258 475 q 298 589 298 530 z "},"ऱ":{"ha":602,"x_min":-22,"x_max":620,"o":"m 191 55 l 191 -73 l 35 -73 l 35 55 l 191 55 m 298 589 l 298 743 l -20 743 l -20 873 l 620 873 l 620 743 l 476 743 l 476 587 q 319 317 476 370 l 528 68 l 400 -24 l -22 480 l 100 576 l 216 470 q 278 503 258 475 q 298 589 298 530 z "},"ल":{"ha":1082,"x_min":-20,"x_max":1103,"o":"m 771 0 l 771 434 q 705 450 737 450 q 626 405 657 450 q 595 280 595 360 l 595 183 l 421 183 l 421 304 q 386 411 417 372 q 312 449 355 449 q 239 414 268 449 q 211 318 211 380 q 236 195 211 256 q 315 64 260 135 l 172 12 q 75 169 112 81 q 38 341 38 256 q 104 538 38 466 q 281 610 170 610 q 499 517 418 610 q 586 584 536 560 q 684 608 635 608 q 771 600 732 608 l 771 743 l -20 743 l -20 873 l 1103 873 l 1103 743 l 949 743 l 949 0 l 771 0 z "},"ळ":{"ha":1105,"x_min":-20,"x_max":1125,"o":"m 203 325 q 203 286 203 325 q 235 206 203 246 q 321 165 267 165 q 406 205 374 165 q 437 327 437 245 q 316 484 437 484 q 234 444 264 484 q 203 325 203 404 m 772 485 l 771 485 q 691 445 722 485 q 659 327 659 405 q 690 209 659 249 q 774 169 722 169 q 857 211 827 169 q 886 329 886 252 q 856 446 886 406 q 772 485 825 485 m 778 30 q 651 56 710 30 q 551 134 592 83 q 460 59 518 86 q 324 31 402 32 q 121 112 200 30 q 43 328 43 194 q 115 541 43 463 q 312 619 186 619 q 447 590 387 619 q 547 510 508 560 q 642 592 585 564 q 764 621 698 621 q 793 619 776 621 l 793 743 l -20 743 l -20 873 l 1125 873 l 1125 743 l 972 743 l 972 538 q 1045 324 1045 457 q 975 110 1045 191 q 778 30 904 30 z "},"ऴ":{"ha":1105,"x_min":-20,"x_max":1125,"o":"m 292 -26 l 292 -155 l 137 -155 l 137 -26 l 292 -26 m 203 325 q 203 286 203 325 q 235 206 203 246 q 321 165 267 165 q 406 205 374 165 q 437 327 437 245 q 316 484 437 484 q 234 444 264 484 q 203 325 203 404 m 772 485 l 771 485 q 691 445 722 485 q 659 327 659 405 q 690 209 659 249 q 774 169 722 169 q 857 211 827 169 q 886 329 886 252 q 856 446 886 406 q 772 485 825 485 m 778 30 q 651 56 710 30 q 551 134 592 83 q 460 59 518 86 q 324 31 402 32 q 121 112 200 30 q 43 328 43 194 q 115 541 43 463 q 312 619 186 619 q 447 590 387 619 q 547 510 508 560 q 642 592 585 564 q 764 621 698 621 q 793 619 776 621 l 793 743 l -20 743 l -20 873 l 1125 873 l 1125 743 l 972 743 l 972 538 q 1045 324 1045 457 q 975 110 1045 191 q 778 30 904 30 z "},"व":{"ha":784,"x_min":-20,"x_max":804,"o":"m 338 254 q 473 298 418 254 l 473 473 q 334 504 414 504 q 239 470 275 504 q 204 376 204 436 q 241 285 204 317 q 338 254 277 254 m 473 0 l 473 144 q 326 115 409 115 q 111 191 197 115 q 26 386 26 267 q 104 573 26 505 q 306 641 182 641 q 473 613 404 641 l 473 743 l -20 743 l -20 873 l 804 873 l 804 743 l 652 743 l 652 0 l 473 0 z "},"श":{"ha":1038,"x_min":74,"x_max":1058,"o":"m 199 205 q 108 237 142 205 q 74 328 74 268 q 113 433 74 389 q 205 478 151 478 q 315 422 269 478 q 435 616 435 484 q 406 705 435 674 q 335 736 378 736 q 267 709 292 736 q 241 635 241 681 q 248 578 241 616 l 98 560 q 84 623 87 601 q 81 670 81 645 q 149 822 81 760 q 328 884 217 884 q 533 808 456 884 q 610 604 610 732 q 556 421 610 507 q 418 279 503 336 l 585 70 l 443 -7 l 277 215 q 199 205 236 205 m 727 0 l 727 743 l 680 743 l 680 873 l 1058 873 l 1058 743 l 905 743 l 905 0 l 727 0 z "},"ष":{"ha":769,"x_min":-20,"x_max":789,"o":"m 345 391 q 397 398 374 391 l 246 671 l 246 515 q 345 391 246 391 m 459 743 l 304 743 l 459 465 l 459 743 m 347 252 q 143 330 220 252 q 67 559 67 409 l 67 743 l -20 743 l -20 873 l 789 873 l 789 743 l 636 743 l 636 0 l 458 0 l 459 273 q 347 252 413 252 z "},"स":{"ha":958,"x_min":-20,"x_max":978,"o":"m 273 589 l 273 743 l -20 743 l -20 873 l 978 873 l 978 743 l 825 743 l 825 -1 l 647 -1 l 647 328 l 330 328 q 315 323 325 326 q 302 318 305 319 l 484 59 l 347 -19 l -16 491 l 109 580 l 209 473 l 209 472 q 257 509 241 481 q 273 589 273 536 m 451 572 q 441 472 451 522 l 647 472 l 647 743 l 451 743 l 451 572 z "},"ह":{"ha":757,"x_min":-20,"x_max":777,"o":"m 85 130 q 151 297 85 227 q 60 465 60 364 q 121 592 60 545 q 294 639 182 639 l 446 639 l 446 743 l -20 743 l -20 873 l 777 873 l 777 743 l 624 743 l 624 500 l 331 500 q 237 435 237 500 q 276 373 237 395 q 385 388 331 388 q 597 322 517 388 q 677 159 677 256 q 673 110 677 130 q 657 58 669 90 l 493 74 q 504 144 504 117 q 474 220 504 191 q 388 248 444 250 q 298 210 332 247 q 264 116 264 174 q 338 -8 264 36 q 598 -54 416 -54 l 577 -190 q 211 -104 336 -190 q 85 130 85 -19 z "},"ऺ":{"ha":0,"x_min":-307,"x_max":-129,"o":"m -307 1005 l -129 1005 l -129 797 l -307 797 l -307 1005 z "},"ऻ":{"ha":406,"x_min":-20,"x_max":427,"o":"m 96 0 l 96 743 l -20 743 l -20 873 l 96 873 l 96 1005 l 273 1005 l 273 873 l 427 873 l 427 743 l 274 743 l 274 0 l 96 0 z "},"़":{"ha":0,"x_min":-620,"x_max":-465,"o":"m -465 55 l -465 -73 l -620 -73 l -620 55 l -465 55 z "},"ऽ":{"ha":695,"x_min":69,"x_max":610,"o":"m 610 279 l 610 279 q 539 109 610 174 q 337 45 468 45 q 205 60 268 45 q 69 111 142 75 l 103 260 q 319 196 221 196 q 401 219 372 196 q 429 282 429 242 q 399 354 429 321 q 285 430 369 387 q 121 547 171 488 q 71 682 71 605 q 132 822 71 770 q 315 873 193 873 l 570 873 l 570 743 l 336 743 q 273 724 295 743 q 252 673 252 704 q 275 620 252 642 q 371 563 298 598 q 553 435 496 500 q 610 279 610 369 z "},"ा":{"ha":406,"x_min":-20,"x_max":427,"o":"m 96 0 l 96 743 l -20 743 l -20 873 l 427 873 l 427 743 l 274 743 l 274 0 l 96 0 z "},"ि":{"ha":406,"x_min":-20,"x_max":958,"o":"m 96 0 l 96 743 l -20 743 l -20 873 l 96 873 l 96 909 q 200 1113 96 1038 q 496 1188 303 1188 q 733 1160 610 1187 q 958 1083 855 1132 l 925 952 q 506 1036 708 1036 q 334 998 395 1036 q 274 897 274 959 l 274 873 l 427 873 l 427 743 l 274 743 l 274 0 l 96 0 z "},"ी":{"ha":406,"x_min":-357,"x_max":427,"o":"m -20 743 l -20 873 l 78 873 q -107 1054 -3 1054 q -162 1034 -143 1054 q -180 979 -180 1015 q -129 850 -180 918 l -311 850 q -343 919 -330 877 q -357 1006 -357 961 q -298 1146 -357 1094 q -136 1199 -239 1199 q 92 1119 -3 1199 q 251 873 187 1039 l 427 873 l 427 743 l 274 743 l 274 0 l 96 0 l 96 743 l -20 743 z "},"ु":{"ha":0,"x_min":-613,"x_max":11,"o":"m -237 31 q -55 -27 -121 31 q 11 -177 11 -86 q -59 -323 11 -267 q -246 -380 -129 -380 q -613 -231 -438 -380 l -561 -105 q -263 -245 -399 -245 q -175 -225 -205 -245 q -145 -169 -145 -205 q -171 -114 -145 -133 q -245 -95 -197 -95 q -379 -131 -316 -95 l -420 -17 q -337 18 -387 5 q -237 31 -288 31 z "},"ू":{"ha":0,"x_min":-481,"x_max":162,"o":"m -218 -391 q -407 -331 -333 -391 q -481 -179 -481 -271 q -415 -32 -481 -87 q -235 24 -349 24 q 162 -252 -14 24 l 71 -348 q -44 -203 10 -257 q -140 -131 -99 -149 q -228 -113 -182 -113 q -299 -135 -273 -113 q -325 -191 -325 -156 q -295 -247 -325 -227 q -223 -267 -265 -267 q -122 -257 -181 -267 l -107 -377 q -218 -391 -149 -391 z "},"ृ":{"ha":0,"x_min":-475,"x_max":-79,"o":"m -214 -361 q -402 -304 -329 -361 q -475 -158 -475 -247 q -411 -17 -475 -69 q -232 35 -348 35 l -133 35 l -133 -75 l -201 -75 q -282 -99 -254 -75 q -311 -162 -311 -123 q -284 -225 -311 -201 q -215 -248 -256 -248 q -98 -231 -142 -248 l -79 -342 q -214 -361 -134 -361 z "},"ॄ":{"ha":0,"x_min":-425,"x_max":-87,"o":"m -87 -411 q -212 -438 -136 -438 q -333 -399 -287 -438 q -379 -297 -379 -361 q -358 -233 -379 -262 q -425 -112 -425 -193 q -374 -5 -425 -45 q -231 35 -323 35 l -132 35 l -132 -75 l -211 -75 q -276 -86 -258 -75 q -294 -119 -294 -97 q -273 -155 -294 -142 q -216 -168 -253 -168 q -123 -155 -178 -168 l -102 -244 q -220 -267 -149 -267 q -239 -267 -233 -267 q -266 -307 -266 -278 q -250 -338 -266 -326 q -194 -350 -233 -350 q -104 -329 -155 -350 l -87 -411 z "},"ॅ":{"ha":0,"x_min":-652,"x_max":-125,"o":"m -628 1158 q -382 1072 -523 1072 q -150 1153 -241 1072 l -125 1031 q -230 963 -163 988 q -377 939 -297 939 q -529 964 -457 939 q -652 1034 -600 989 l -628 1158 z "},"ॆ":{"ha":0,"x_min":-681,"x_max":-135,"o":"m -135 828 l -302 828 l -302 892 q -362 963 -302 963 q -426 954 -375 963 q -514 945 -477 945 q -597 964 -551 945 q -681 1016 -643 982 l -631 1128 q -500 1083 -573 1083 q -408 1099 -478 1083 q -305 1115 -338 1115 q -180 1063 -226 1115 q -135 911 -135 1011 l -135 828 z "},"े":{"ha":0,"x_min":-573,"x_max":-125,"o":"m -125 844 l -309 844 l -573 1148 l -422 1232 l -125 844 z "},"ै":{"ha":0,"x_min":-720,"x_max":-134,"o":"m -406 844 l -720 1051 l -607 1166 l -321 948 l -447 1234 l -290 1274 l -134 844 l -406 844 z "},"ॉ":{"ha":406,"x_min":-77,"x_max":451,"o":"m 96 0 l 96 743 l -20 743 l -20 873 l 427 873 l 427 743 l 274 743 l 274 0 l 96 0 m -52 1158 q 194 1073 53 1073 q 426 1154 335 1073 l 451 1032 q 346 964 412 989 q 199 939 279 939 q 47 965 119 939 q -77 1035 -24 990 l -52 1158 z "},"ॊ":{"ha":406,"x_min":-298,"x_max":427,"o":"m -22 743 l -22 873 l 80 873 l 80 892 q 20 963 80 963 q -44 954 7 963 q -132 945 -95 945 q -215 964 -169 945 q -298 1016 -260 982 l -249 1128 q -118 1083 -191 1083 q -25 1099 -96 1083 q 77 1115 45 1115 q 202 1063 157 1115 q 248 911 248 1011 l 248 873 l 427 873 l 427 743 l 274 743 l 274 0 l 96 0 l 94 743 l -22 743 z "},"ो":{"ha":406,"x_min":-170,"x_max":427,"o":"m 96 0 l 96 743 l -20 743 l -20 873 l 68 873 l -170 1148 l -19 1232 l 256 873 l 427 873 l 427 743 l 274 743 l 274 0 l 96 0 z "},"ौ":{"ha":406,"x_min":-309,"x_max":427,"o":"m 96 0 l 96 743 l -20 743 l -20 861 l -309 1051 l -196 1166 l 90 948 l -36 1234 l 121 1274 l 266 873 l 427 873 l 427 743 l 274 743 l 274 0 l 96 0 z "},"्":{"ha":0,"x_min":-372,"x_max":42,"o":"m -372 -178 l -313 -61 l 42 -227 l -19 -342 l -372 -178 z "},"ॎ":{"ha":397,"x_min":95,"x_max":417,"o":"m 95 0 l 95 873 l 417 873 l 417 743 l 271 743 l 271 0 l 95 0 z "},"ॏ":{"ha":406,"x_min":-296,"x_max":427,"o":"m 96 1 l 96 744 l -20 744 l -20 874 l 49 874 l 48 875 q 17 911 32 900 q -17 922 1 922 q -77 912 -35 922 q -148 903 -119 903 q -296 958 -222 903 l -260 1060 q -145 1018 -206 1018 q -71 1031 -126 1018 q 9 1044 -16 1044 q 147 964 88 1044 l 147 1004 q 133 1050 147 1034 q 100 1067 118 1067 q 41 1058 81 1067 q -25 1049 1 1049 q -193 1118 -115 1049 l -153 1217 q -23 1167 -86 1167 q 55 1182 -1 1167 q 134 1197 111 1197 q 235 1154 197 1197 q 274 1027 274 1111 l 274 874 l 427 874 l 427 744 l 274 744 l 274 1 l 96 1 z "},"ॐ":{"ha":1267,"x_min":81,"x_max":1196,"o":"m 622 184 q 560 189 586 184 q 471 80 533 119 q 331 42 408 42 q 198 55 254 42 q 81 98 143 68 l 107 234 q 206 198 167 209 q 292 188 245 188 q 370 219 339 188 q 400 297 400 250 q 375 374 400 344 q 298 412 349 405 q 172 401 243 401 l 172 540 q 329 573 280 540 q 378 659 378 606 q 352 720 378 696 q 279 745 327 745 q 146 706 232 745 l 122 838 q 211 871 168 861 q 313 882 254 882 q 490 823 422 882 q 557 667 557 765 q 472 487 557 557 q 577 318 568 427 q 606 317 593 317 q 664 340 643 317 q 699 425 685 363 q 787 615 726 554 q 953 677 848 677 q 1126 601 1057 677 q 1196 408 1196 525 q 1132 219 1196 290 q 958 149 1067 149 q 857 164 915 149 l 873 284 q 950 277 912 277 q 1013 312 988 277 q 1037 413 1037 347 q 1015 511 1037 480 q 957 542 994 542 q 897 508 921 542 q 858 394 872 473 q 781 233 836 282 q 622 184 725 184 m 574 947 q 821 861 680 861 q 1053 942 962 861 l 1078 821 q 972 752 1039 777 q 825 728 905 728 q 674 753 745 728 q 550 823 602 779 l 574 947 m 890 1071 l 890 934 l 745 934 l 745 1071 l 890 1071 z "},"॑":{"ha":0,"x_min":-307,"x_max":-129,"o":"m -307 1168 l -129 1168 l -129 960 l -307 960 l -307 1168 z "},"॒":{"ha":0,"x_min":-632,"x_max":-129,"o":"m -129 -168 l -632 -168 l -632 -43 l -129 -43 l -129 -168 z "},"॓":{"ha":0,"x_min":-440,"x_max":-140,"o":"m -233 1221 l -140 963 l -292 963 l -440 1221 l -233 1221 z "},"॔":{"ha":0,"x_min":-298,"x_max":1,"o":"m -298 963 l -204 1221 l 1 1221 l -146 963 l -298 963 z "},"ॕ":{"ha":0,"x_min":-650,"x_max":-122,"o":"m -132 936 l -635 936 l -635 1046 l -132 1046 l -132 936 m -625 1286 q -378 1210 -519 1210 q -147 1282 -237 1210 l -122 1174 q -228 1113 -161 1135 q -374 1091 -294 1091 q -525 1114 -454 1091 q -650 1176 -597 1137 l -625 1286 z "},"ॖ":{"ha":0,"x_min":-492,"x_max":60,"o":"m 60 -134 q -207 -226 -46 -226 q -492 -138 -367 -226 l -460 -28 q -212 -106 -351 -106 q 22 -26 -73 -106 l 60 -134 z "},"ॗ":{"ha":0,"x_min":-505,"x_max":75,"o":"m 75 -294 q -205 -376 -35 -376 q -505 -298 -375 -376 l -471 -201 q -212 -270 -358 -270 q 36 -199 -66 -270 l 75 -294 m 60 -128 q -206 -213 -45 -213 q -492 -132 -366 -213 l -460 -32 q -212 -103 -351 -103 q 22 -30 -74 -103 l 60 -128 z "},"क़":{"ha":1073,"x_min":-20,"x_max":1094,"o":"m 184 56 l 184 -73 l 28 -73 l 28 56 l 184 56 m 298 109 q 95 184 175 109 q 16 378 16 258 q 87 563 16 498 q 277 629 159 629 q 441 602 376 629 l 441 744 l -20 744 l -20 874 l 1094 874 l 1094 744 l 620 744 l 620 585 q 743 604 677 604 q 939 531 861 604 q 1017 342 1017 458 q 931 104 1017 212 l 762 138 q 838 342 838 243 q 807 426 838 394 q 726 457 777 457 q 620 421 675 457 l 620 0 l 441 1 l 441 138 q 298 109 385 109 m 305 250 l 306 250 q 441 299 387 250 l 441 454 q 311 486 386 486 q 226 455 258 486 q 194 368 194 424 q 225 281 194 313 q 305 250 256 250 z "},"ख़":{"ha":1205,"x_min":-22,"x_max":1225,"o":"m 237 55 l 237 -73 l 82 -73 l 82 55 l 237 55 m 788 317 q 895 351 850 317 l 895 494 q 844 514 867 509 q 782 519 821 519 q 714 491 743 519 q 685 417 685 464 q 716 344 685 371 q 788 317 748 317 m 298 589 l 298 743 l -20 743 l -20 873 l 1225 873 l 1225 743 l 1073 743 l 1073 0 l 895 0 l 895 197 q 773 179 849 179 q 592 248 668 179 q 516 422 516 316 q 584 591 516 528 q 755 653 652 653 q 895 633 834 653 l 895 743 l 476 743 l 476 587 q 319 317 476 370 l 528 68 l 400 -24 l -22 480 l 100 576 l 216 470 q 278 503 258 475 q 298 589 298 530 z "},"ग़":{"ha":858,"x_min":-20,"x_max":878,"o":"m 271 56 l 271 -73 l 116 -73 l 116 56 l 271 56 m 547 0 l 547 744 l 335 744 l 335 334 q 308 254 335 282 q 233 227 281 227 q 97 285 161 227 q 34 412 34 343 q 61 478 34 453 q 134 503 87 503 l 157 503 l 157 743 l -20 743 l -20 873 l 878 873 l 878 743 l 725 743 l 725 0 l 547 0 z "},"ज़":{"ha":970,"x_min":-20,"x_max":991,"o":"m 213 1 l 213 -127 l 58 -127 l 58 1 l 213 1 m 521 294 q 452 115 521 183 q 263 47 384 47 q 28 98 143 47 l 56 232 q 218 193 142 193 q 308 225 275 193 q 342 315 342 256 q 290 416 342 374 q 157 457 238 457 l 117 457 l 117 593 l 663 593 l 663 743 l -20 743 l -20 873 l 991 873 l 991 743 l 838 743 l 838 0 l 663 0 l 662 455 l 460 455 q 521 294 521 389 z "},"ड़":{"ha":758,"x_min":-20,"x_max":779,"o":"m 454 -55 l 454 -183 l 299 -183 l 299 -55 l 454 -55 m 388 9 l 388 8 q 201 31 286 8 q 56 90 115 54 l 94 228 q 234 167 158 190 q 375 144 310 144 q 478 165 439 144 q 517 224 517 186 q 495 273 517 255 q 433 292 473 292 q 281 252 351 292 l 262 252 q 126 339 178 281 q 75 475 75 397 q 133 600 75 554 q 307 646 191 646 l 450 646 l 450 743 l -20 743 l -20 873 l 779 873 l 779 743 l 625 743 l 625 515 l 319 515 q 239 452 239 515 q 271 397 239 419 q 445 431 359 431 q 625 373 559 431 q 690 219 690 314 q 612 67 690 125 q 388 9 534 9 z "},"ढ़":{"ha":759,"x_min":-20,"x_max":779,"o":"m 466 -58 l 466 -186 l 311 -186 l 311 -58 l 466 -58 m 425 11 q 146 100 253 11 q 39 335 39 189 q 129 542 39 465 q 385 618 220 618 l 448 618 l 448 743 l -20 743 l -20 873 l 779 873 l 779 743 l 627 743 l 627 482 l 412 482 q 261 439 311 482 q 212 315 212 396 q 271 186 212 234 q 425 138 329 138 q 523 161 490 138 q 557 214 557 184 q 480 276 557 276 q 348 222 419 276 l 290 330 q 382 385 329 364 q 494 406 435 406 q 657 353 598 406 q 715 216 715 300 q 641 66 715 121 q 425 11 567 11 z "},"फ़":{"ha":1091,"x_min":-20,"x_max":1112,"o":"m 265 55 l 265 -73 l 110 -73 l 110 55 l 265 55 m 636 0 l 459 0 l 459 273 q 347 252 413 252 q 143 330 220 252 q 67 559 67 409 l 67 743 l -20 743 l -20 873 l 1112 873 l 1112 743 l 636 743 l 636 584 q 762 603 693 603 q 956 530 878 603 q 1034 341 1034 457 q 948 103 1034 211 l 779 137 q 856 341 856 244 q 825 425 856 393 q 742 456 793 456 q 636 420 690 456 l 636 0 m 345 391 q 458 439 416 391 l 458 743 l 245 743 l 245 515 q 345 391 245 391 z "},"य़":{"ha":843,"x_min":-20,"x_max":863,"o":"m 292 55 l 292 -73 l 137 -73 l 137 55 l 292 55 m 410 308 q 533 345 483 308 l 533 743 l 336 743 q 377 679 362 716 q 393 602 393 642 q 349 477 393 530 q 237 406 306 425 q 313 332 268 357 q 410 308 357 308 m 216 624 q 145 743 216 699 l -20 743 l -20 873 l 863 873 l 863 743 l 711 743 l 711 0 l 532 0 l 533 180 q 415 166 488 167 q 175 245 281 165 q 21 472 68 326 l 24 494 q 216 624 216 511 z "},"ॠ":{"ha":1088,"x_min":-22,"x_max":1107,"o":"m 628 0 l 449 0 l 449 243 l 186 77 l 91 215 l 416 408 q 295 472 336 456 q 214 488 255 488 q 43 441 132 488 l 9 592 q 210 642 95 642 q 422 573 302 642 l 449 557 l 449 743 l -22 743 l -22 873 l 1107 873 l 1107 743 l 627 743 l 627 495 q 730 515 686 500 q 712 579 712 545 q 744 637 712 614 q 835 660 775 660 q 942 629 895 660 q 988 553 988 598 q 978 507 988 526 q 941 462 969 490 l 1025 319 l 1017 258 q 919 218 943 238 q 894 174 894 199 q 952 127 894 127 q 1019 138 986 127 l 1033 28 q 927 10 978 10 q 784 56 837 10 q 731 176 731 102 q 842 328 731 271 l 810 381 q 628 342 728 349 l 628 0 z "},"ॡ":{"ha":1006,"x_min":-20,"x_max":1026,"o":"m 978 -150 q 854 -176 929 -176 q 732 -138 779 -176 q 686 -36 686 -99 q 705 26 686 1 q 640 149 640 71 q 676 237 640 201 q 779 283 713 273 q 781 327 781 309 q 758 421 781 389 q 689 454 734 454 q 615 410 643 454 q 587 280 587 366 l 587 183 l 414 183 l 414 292 q 415 323 414 303 q 377 416 407 383 q 305 448 347 448 q 237 414 263 448 q 210 318 210 379 q 236 197 210 256 q 317 63 262 137 l 175 12 q 78 168 115 81 q 40 340 40 256 q 106 535 40 465 q 280 605 172 605 q 487 518 406 605 q 677 605 559 605 q 694 604 689 605 l 694 743 l -20 743 l -20 873 l 1026 873 l 1026 743 l 873 743 l 873 532 q 949 328 949 458 q 928 187 949 262 l 870 187 q 796 175 816 187 q 776 139 776 163 q 795 103 776 116 q 850 91 814 91 q 942 104 886 91 l 964 14 q 844 -9 919 -9 q 824 -8 830 -9 q 804 -42 804 -20 q 863 -87 804 -87 q 960 -66 913 -87 l 978 -149 l 978 -150 z "},"ॢ":{"ha":0,"x_min":-491,"x_max":51,"o":"m -15 -255 q -106 -232 -73 -255 q -140 -172 -140 -209 q -120 -124 -140 -143 q -68 -98 -100 -104 q -67 -73 -67 -85 q -79 -51 -67 -61 q -113 -40 -92 -40 q -148 -57 -135 -40 q -161 -100 -161 -74 l -161 -145 l -284 -145 l -284 -102 q -300 -59 -284 -77 q -339 -41 -317 -41 q -373 -53 -361 -41 q -384 -84 -384 -64 q -311 -204 -384 -134 l -399 -235 q -466 -160 -441 -204 q -491 -66 -491 -116 q -454 17 -491 -16 q -350 51 -416 51 q -229 7 -283 51 q -111 51 -175 51 q -8 15 -47 51 q 32 -66 32 -20 q 19 -147 32 -113 l -7 -147 q -54 -174 -54 -147 q -42 -193 -54 -186 q -13 -200 -30 -200 q 42 -192 5 -200 l 51 -245 q -15 -255 24 -255 z "},"ॣ":{"ha":0,"x_min":-489,"x_max":59,"o":"m 59 -296 l 58 -294 q 59 -294 59 -294 l 59 -296 m 58 -294 q -14 -304 28 -304 q -81 -288 -56 -304 q -106 -243 -106 -272 q -92 -214 -106 -228 q -138 -155 -138 -195 q -119 -115 -138 -131 q -66 -94 -100 -99 l -66 -77 q -78 -51 -66 -61 q -112 -40 -90 -40 q -147 -57 -134 -40 q -160 -100 -160 -74 l -160 -145 l -282 -145 l -282 -102 q -299 -59 -282 -77 q -338 -41 -315 -41 q -371 -53 -360 -41 q -382 -84 -382 -64 q -309 -204 -382 -134 l -398 -235 q -464 -160 -439 -204 q -489 -66 -489 -116 q -452 17 -489 -16 q -354 51 -414 51 q -227 6 -279 51 q -109 51 -172 51 q -6 15 -45 51 q 34 -71 34 -20 q 21 -135 34 -100 l -5 -135 q -41 -140 -31 -135 q -52 -157 -52 -145 q -12 -179 -52 -179 q 40 -172 1 -179 l 49 -218 q -16 -227 22 -227 l -16 -227 q -35 -244 -35 -231 q -25 -259 -35 -254 q 3 -264 -16 -264 q 48 -256 22 -264 l 58 -294 z "},"।":{"ha":625,"x_min":224,"x_max":401,"o":"m 401 -111 l 224 -111 l 224 946 l 401 946 l 401 -111 z "},"॥":{"ha":917,"x_min":224,"x_max":693,"o":"m 693 -111 l 515 -111 l 515 946 l 693 946 l 693 -111 m 401 -111 l 224 -111 l 224 946 l 401 946 l 401 -111 z "},"०":{"ha":769,"x_min":54,"x_max":711,"o":"m 232 443 q 232 404 232 443 q 275 319 232 366 q 384 273 318 273 q 492 319 450 273 q 534 442 534 366 q 491 567 534 519 q 381 614 448 614 q 273 567 314 614 q 232 443 232 519 m 54 441 q 54 508 54 441 q 144 664 54 576 q 381 751 235 751 q 620 665 528 751 q 711 443 711 578 q 621 222 711 308 q 385 136 530 136 q 147 221 239 136 q 54 441 54 307 z "},"१":{"ha":606,"x_min":39,"x_max":565,"o":"m 302 745 q 280 745 302 745 q 232 718 258 745 q 206 646 206 690 q 242 573 206 602 q 346 536 278 543 q 402 651 402 593 q 374 717 402 689 q 302 745 345 745 m 357 15 l 357 48 q 350 99 357 83 q 316 130 343 114 l 76 269 l 74 307 l 229 435 q 91 519 144 460 q 39 655 39 578 q 109 812 39 749 q 299 876 179 876 q 492 809 420 876 q 565 649 565 743 q 537 537 565 589 q 430 416 509 486 l 294 297 l 455 202 q 515 143 497 176 q 534 59 534 111 l 534 15 l 357 15 z "},"२":{"ha":639,"x_min":60,"x_max":582,"o":"m 184 231 q 93 260 127 231 q 60 349 60 290 q 98 454 60 409 q 190 499 137 499 q 306 438 256 499 q 378 506 351 465 q 406 598 406 546 q 362 689 406 651 q 254 726 318 726 q 79 688 174 726 l 61 826 q 254 867 150 867 q 493 789 405 867 q 582 591 582 711 q 531 424 582 502 q 397 295 480 345 l 576 68 l 435 -10 l 250 237 q 184 231 211 231 z "},"३":{"ha":646,"x_min":54,"x_max":570,"o":"m 237 125 q 104 154 154 125 q 54 230 54 183 q 85 308 54 277 q 168 338 115 338 q 324 268 245 338 q 373 297 354 275 q 391 353 391 319 q 366 414 391 388 q 296 448 341 440 q 226 444 264 444 l 162 444 l 162 580 l 195 580 q 325 604 279 580 q 371 668 371 629 q 345 728 371 707 q 273 748 318 748 q 121 707 210 748 l 101 833 q 185 861 136 850 q 273 872 235 872 q 477 815 406 872 q 549 670 549 759 q 472 518 549 581 q 544 442 518 487 q 570 344 570 397 q 525 221 570 275 q 409 143 480 168 l 514 14 l 379 -52 l 237 125 z "},"४":{"ha":712,"x_min":46,"x_max":685,"o":"m 368 183 l 368 184 q 427 203 404 184 q 449 252 449 222 q 432 302 449 281 q 362 356 416 323 q 304 309 321 332 q 286 254 286 286 q 310 203 286 223 q 368 183 334 183 m 612 253 q 612 206 612 253 q 544 105 612 159 q 370 52 475 52 q 191 110 264 52 q 117 256 117 169 q 225 441 117 355 q 46 726 46 576 q 76 856 46 789 l 241 825 q 218 716 218 770 q 256 618 218 663 q 363 527 293 572 q 483 624 454 583 q 512 720 512 666 q 509 772 512 752 q 491 831 505 793 l 656 850 q 679 778 673 805 q 685 719 685 751 q 637 564 685 633 q 500 436 589 496 q 612 253 612 347 z "},"५":{"ha":694,"x_min":35,"x_max":696,"o":"m 363 241 q 127 317 220 241 q 35 521 35 394 q 106 725 35 629 q 305 881 177 822 l 424 780 q 214 517 214 669 q 253 418 214 456 q 347 381 292 381 q 360 382 357 381 q 355 431 355 408 q 388 506 355 476 q 487 536 421 536 q 597 498 552 536 q 643 406 643 460 q 571 292 643 340 l 696 50 l 543 0 l 426 244 q 363 241 393 241 z "},"६":{"ha":656,"x_min":76,"x_max":641,"o":"m 378 106 q 158 168 239 106 q 76 340 76 229 q 172 519 76 452 q 86 672 86 578 q 155 819 86 766 q 359 872 224 872 q 555 838 467 872 l 533 713 q 385 743 448 743 q 293 722 321 743 q 264 665 264 701 q 293 608 264 629 q 370 583 323 586 q 438 586 397 586 l 500 586 l 500 450 l 444 450 q 300 418 347 450 q 254 339 254 386 q 281 268 254 293 q 350 243 309 243 q 348 272 348 268 q 377 341 348 315 q 467 366 406 366 q 577 331 528 366 q 627 241 627 295 q 564 149 627 188 l 641 16 l 488 -32 l 416 107 q 378 106 393 106 z "},"७":{"ha":794,"x_min":54,"x_max":754,"o":"m 448 493 q 589 378 448 406 q 595 463 595 412 q 573 544 595 513 q 518 574 551 574 q 467 553 486 574 q 448 493 448 532 m 226 476 q 278 276 226 339 q 418 214 331 214 q 534 264 488 214 q 359 346 426 281 q 293 499 293 410 q 352 646 293 589 q 505 703 411 703 q 684 632 614 703 q 754 448 754 561 q 730 303 754 371 q 662 187 705 236 q 554 109 618 138 q 416 81 491 81 q 232 127 315 81 q 103 264 151 174 q 54 480 54 355 q 84 679 54 577 q 161 860 113 781 l 333 830 q 257 652 288 754 q 226 476 226 551 z "},"८":{"ha":648,"x_min":42,"x_max":591,"o":"m 229 353 q 271 260 229 294 q 374 227 312 227 q 468 234 435 228 q 568 262 500 241 l 591 126 q 364 86 478 86 q 132 162 222 86 q 42 361 42 237 q 78 497 42 427 q 183 632 114 568 l 436 867 l 570 766 l 326 530 q 229 353 229 437 z "},"९":{"ha":652,"x_min":38,"x_max":589,"o":"m 419 634 q 420 658 419 634 q 391 712 421 683 q 316 741 361 741 q 242 711 271 741 q 214 639 214 681 q 227 572 214 597 q 277 510 240 547 q 381 551 345 518 q 419 634 418 585 m 38 638 q 110 809 38 741 q 307 878 182 878 q 510 807 431 878 q 589 631 589 736 q 535 479 589 543 q 387 396 481 416 l 487 292 q 561 193 538 239 q 583 88 583 146 l 583 22 l 406 22 l 406 80 q 392 149 406 121 q 344 211 379 176 l 161 397 q 68 518 98 460 q 38 638 38 576 z "},"॰":{"ha":537,"x_min":25,"x_max":499,"o":"m 359 449 q 359 473 359 449 q 332 524 359 496 q 263 553 304 553 q 193 524 221 553 q 165 449 165 494 q 193 375 165 404 q 262 346 221 346 q 331 374 302 346 q 359 449 359 403 m 432 291 q 398 261 432 291 q 264 230 365 230 q 95 294 164 230 q 25 453 25 359 q 91 607 25 547 q 258 668 156 668 q 430 604 361 668 q 499 447 499 541 q 432 291 499 353 z "},"ॱ":{"ha":466,"x_min":135,"x_max":296,"o":"m 296 883 l 296 730 l 135 730 l 135 883 l 296 883 z "},"ॲ":{"ha":1010,"x_min":53,"x_max":1046,"o":"m 699 0 l 699 327 l 549 327 q 551 294 551 294 q 480 109 551 176 q 296 41 410 41 q 170 54 226 41 q 53 97 115 67 l 79 233 q 178 198 138 208 q 264 187 217 187 q 341 218 311 187 q 372 296 372 249 q 346 374 372 343 q 269 412 321 404 q 143 401 214 401 l 143 539 q 300 572 252 539 q 349 658 349 605 q 324 720 349 695 q 251 744 298 744 q 118 705 203 744 l 94 837 q 182 870 139 860 q 284 881 226 881 q 461 823 394 881 q 528 667 528 764 q 444 486 528 557 q 472 466 456 480 l 699 466 l 699 743 l 583 743 l 583 873 l 1030 873 l 1030 743 l 878 743 l 878 0 l 699 0 m 543 1158 q 789 1072 648 1072 q 1021 1153 930 1072 l 1046 1031 q 941 963 1008 988 q 794 939 874 939 q 643 964 714 939 q 519 1034 571 989 l 543 1158 z "},"ॳ":{"ha":1010,"x_min":53,"x_max":1030,"o":"m 699 0 l 699 327 l 549 327 q 551 294 551 294 q 480 109 551 176 q 296 41 410 41 q 170 54 226 41 q 53 97 115 67 l 79 233 q 178 198 138 208 q 264 187 217 187 q 341 218 311 187 q 372 296 372 249 q 346 374 372 343 q 269 412 321 404 q 143 401 214 401 l 143 539 q 300 572 252 539 q 349 658 349 605 q 324 720 349 695 q 251 744 298 744 q 118 705 203 744 l 94 837 q 182 870 139 860 q 284 881 226 881 q 461 823 394 881 q 528 667 528 764 q 444 486 528 557 q 472 466 456 480 l 699 466 l 699 743 l 583 743 l 583 873 l 697 873 l 697 1005 l 875 1005 l 875 873 l 1030 873 l 1030 743 l 878 743 l 878 0 l 699 0 z "},"ॴ":{"ha":1409,"x_min":53,"x_max":1430,"o":"m 699 0 l 699 327 l 549 327 q 551 294 551 294 q 480 109 551 176 q 296 41 410 41 q 170 54 226 41 q 53 97 115 67 l 79 233 q 178 198 138 208 q 264 187 217 187 q 341 218 311 187 q 372 296 372 249 q 346 374 372 343 q 269 412 321 404 q 143 401 214 401 l 143 539 q 300 572 252 539 q 349 658 349 605 q 324 720 349 695 q 251 744 298 744 q 118 705 203 744 l 94 837 q 182 870 139 860 q 284 881 226 881 q 461 823 394 881 q 528 667 528 764 q 444 486 528 557 q 472 466 456 480 l 699 466 l 699 743 l 583 743 l 583 873 l 1096 873 l 1096 1005 l 1274 1005 l 1274 873 l 1430 873 l 1430 743 l 1277 743 l 1277 0 l 1099 0 l 1099 743 l 878 743 l 878 0 l 699 0 z "},"ॵ":{"ha":1409,"x_min":54,"x_max":1430,"o":"m 552 294 q 481 109 552 176 q 297 41 411 41 q 172 54 227 41 q 54 97 116 67 l 80 233 q 179 198 140 208 q 265 187 218 187 q 342 218 312 187 q 373 296 373 249 q 348 374 373 343 q 271 412 322 404 q 144 401 216 401 l 144 539 q 302 572 253 539 q 351 658 351 605 q 325 720 351 695 q 252 744 300 744 q 119 705 205 744 l 95 837 q 184 870 140 860 q 286 881 227 881 q 463 823 395 881 q 530 667 530 764 q 445 486 530 557 q 473 466 457 480 l 701 466 l 701 743 l 585 743 l 585 873 l 1053 873 l 1052 875 q 1020 911 1036 900 q 987 922 1005 922 q 927 912 969 922 q 856 903 884 903 q 708 958 781 903 l 743 1060 q 859 1018 798 1018 q 933 1031 878 1018 q 1013 1044 989 1044 q 1151 964 1092 1044 l 1151 1004 q 1136 1050 1151 1034 q 1103 1067 1122 1067 q 1045 1058 1085 1067 q 977 1049 1005 1049 q 808 1118 886 1049 l 850 1217 q 979 1167 916 1167 q 1057 1182 1002 1167 q 1137 1197 1113 1197 q 1238 1154 1199 1197 q 1276 1027 1276 1111 l 1276 873 l 1430 873 l 1430 743 l 1277 743 l 1277 0 l 1099 0 l 1099 743 l 878 743 l 878 0 l 699 0 l 701 327 l 550 327 q 552 294 552 294 z "},"ॶ":{"ha":1010,"x_min":53,"x_max":1030,"o":"m 747 -134 q 480 -226 640 -226 q 194 -138 319 -226 l 227 -28 q 474 -106 335 -106 q 709 -26 614 -106 l 747 -134 m 699 0 l 699 327 l 549 327 q 551 294 551 294 q 480 109 551 176 q 296 41 410 41 q 170 54 226 41 q 53 97 115 67 l 79 233 q 178 198 138 208 q 264 187 217 187 q 341 218 311 187 q 372 296 372 249 q 346 374 372 343 q 269 412 321 404 q 143 401 214 401 l 143 539 q 300 572 252 539 q 349 658 349 605 q 324 720 349 695 q 251 744 298 744 q 118 705 203 744 l 94 837 q 182 870 139 860 q 284 881 226 881 q 461 823 394 881 q 528 667 528 764 q 444 486 528 557 q 472 466 456 480 l 699 466 l 699 743 l 583 743 l 583 873 l 1030 873 l 1030 743 l 878 743 l 878 0 l 699 0 z "},"ॷ":{"ha":1010,"x_min":53,"x_max":1030,"o":"m 753 -294 q 473 -376 643 -376 q 172 -298 302 -376 l 206 -201 q 466 -270 319 -270 q 714 -199 612 -270 l 753 -294 m 739 -128 q 472 -213 633 -213 q 186 -132 312 -213 l 218 -32 q 466 -103 328 -103 q 701 -30 604 -103 l 739 -128 m 699 0 l 699 327 l 549 327 q 551 294 551 294 q 480 109 551 176 q 296 41 410 41 q 170 54 226 41 q 53 97 115 67 l 79 233 q 178 198 138 208 q 264 187 217 187 q 341 218 311 187 q 372 296 372 249 q 346 374 372 343 q 269 412 321 404 q 143 401 214 401 l 143 539 q 300 572 252 539 q 349 658 349 605 q 324 720 349 695 q 251 744 298 744 q 118 705 203 744 l 94 837 q 182 870 139 860 q 284 881 226 881 q 461 823 394 881 q 528 667 528 764 q 444 486 528 557 q 472 466 456 480 l 699 466 l 699 743 l 583 743 l 583 873 l 1030 873 l 1030 743 l 878 743 l 878 0 l 699 0 z "},"ॸ":{"ha":780,"x_min":-20,"x_max":800,"o":"m 546 277 q 515 358 546 328 q 430 388 484 388 q 328 372 376 388 l 328 293 q 303 230 328 253 q 237 208 279 208 q 98 261 159 208 q 38 387 38 314 q 65 453 38 427 q 137 480 93 478 l 149 481 l 149 743 l -20 743 l -20 873 l 800 873 l 800 743 l 328 743 l 328 532 q 430 539 374 539 q 643 467 564 539 q 722 277 722 395 q 637 40 722 145 l 469 73 q 546 277 546 181 z "},"ॹ":{"ha":970,"x_min":-20,"x_max":991,"o":"m 336 -93 l 336 -221 l 181 -221 l 181 -93 l 336 -93 m 496 7 l 496 -121 l 341 -121 l 341 7 l 496 7 m 172 7 l 172 -121 l 17 -121 l 17 7 l 172 7 m 521 294 q 452 115 521 183 q 263 47 384 47 q 28 98 143 47 l 56 232 q 218 193 142 193 q 308 225 275 193 q 342 315 342 256 q 290 416 342 374 q 157 457 238 457 l 117 457 l 117 593 l 663 593 l 663 743 l -20 743 l -20 873 l 991 873 l 991 743 l 838 743 l 838 0 l 663 0 l 662 455 l 460 455 q 521 294 521 389 z "},"ॺ":{"ha":843,"x_min":-20,"x_max":863,"o":"m 410 308 l 410 309 q 492 323 454 309 l 375 518 q 320 448 356 477 q 237 406 283 418 q 313 332 268 357 q 410 308 357 308 m 533 743 l 347 743 l 533 435 l 533 743 m 216 624 q 145 743 216 699 l -20 743 l -20 873 l 863 873 l 863 743 l 711 743 l 711 0 l 532 0 l 533 180 q 415 166 488 167 q 175 245 281 165 q 21 472 68 326 l 24 494 q 216 624 216 511 z "},"ॻ":{"ha":858,"x_min":-20,"x_max":878,"o":"m 128 -104 l 128 16 l 547 16 l 547 744 l 335 744 l 335 334 q 308 254 335 282 q 233 227 281 227 q 97 285 161 227 q 34 412 34 343 q 61 478 34 453 q 134 503 87 503 l 157 503 l 157 743 l -20 743 l -20 873 l 878 873 l 878 743 l 725 743 l 725 -104 l 128 -104 z "},"ॼ":{"ha":970,"x_min":-20,"x_max":991,"o":"m 662 9 l 662 455 l 460 455 q 521 294 521 389 q 452 115 521 183 q 263 47 384 47 q 28 98 143 47 l 56 232 q 218 193 142 193 q 308 225 275 193 q 342 315 342 256 q 290 416 342 374 q 157 457 238 457 l 117 457 l 117 593 l 663 593 l 663 743 l -20 743 l -20 873 l 991 873 l 991 743 l 838 743 l 838 -109 l 45 -109 l 45 9 l 662 9 z "},"ॽ":{"ha":678,"x_min":106,"x_max":627,"o":"m 230 468 q 381 508 326 468 q 436 618 436 547 q 398 707 436 671 q 301 743 361 743 q 143 699 225 743 l 106 838 q 315 883 204 883 q 541 810 456 883 q 627 620 627 737 q 548 428 627 503 q 356 342 470 354 l 356 0 l 178 0 l 178 468 l 230 468 z "},"ॾ":{"ha":758,"x_min":-20,"x_max":779,"o":"m 661 -55 l 661 -174 l 110 -174 l 110 -55 l 661 -55 m 388 9 l 388 8 q 201 31 286 8 q 56 90 115 54 l 94 228 q 234 167 158 190 q 375 144 310 144 q 478 165 439 144 q 517 224 517 186 q 495 273 517 255 q 433 292 473 292 q 281 252 351 292 l 262 252 q 126 339 178 281 q 75 475 75 397 q 133 600 75 554 q 307 646 191 646 l 450 646 l 450 743 l -20 743 l -20 873 l 779 873 l 779 743 l 625 743 l 625 515 l 319 515 q 239 452 239 515 q 271 397 239 419 q 445 431 359 431 q 625 373 559 431 q 690 219 690 314 q 612 67 690 125 q 388 9 534 9 z "},"ॿ":{"ha":784,"x_min":-21,"x_max":804,"o":"m 104 -105 l 104 14 l 473 14 l 473 144 q 325 114 408 114 q 111 190 196 114 q 25 385 25 266 q 103 572 25 505 q 305 640 181 640 q 473 612 403 640 l 473 743 l -21 743 l -21 873 l 804 873 l 804 743 l 651 743 l 651 -105 l 104 -105 m 337 253 q 360 254 345 253 l 241 471 q 203 377 203 437 q 240 284 203 316 q 337 253 277 253 m 334 504 l 333 503 l 323 503 l 446 280 q 473 298 460 287 l 473 473 q 334 504 414 504 z "},"​":{"ha":0,"x_min":0,"x_max":0,"o":""},"‌":{"ha":0,"x_min":-26,"x_max":26,"o":"m 26 -237 l -26 -237 l -26 1101 l 26 1101 l 26 -237 z "},"‍":{"ha":0,"x_min":-184,"x_max":184,"o":"m 26 -236 l -26 -236 l -26 849 l -149 723 l -184 758 l -34 911 l -182 1063 l -149 1097 l 0 945 l 148 1097 l 184 1063 l 35 911 l 184 758 l 148 724 l 26 850 l 26 -236 z "},"–":{"ha":863,"x_min":81,"x_max":677,"o":"m 677 532 l 677 408 l 81 408 l 81 532 l 677 532 z "},"—":{"ha":1019,"x_min":79,"x_max":812,"o":"m 812 532 l 812 408 l 79 408 l 79 532 l 812 532 z "},"―":{"ha":1187,"x_min":0,"x_max":0,"o":""},"‘":{"ha":412,"x_min":113,"x_max":299,"o":"m 113 621 l 113 738 l 212 952 l 299 952 l 262 739 l 262 621 l 113 621 z "},"’":{"ha":412,"x_min":117,"x_max":304,"o":"m 304 952 l 304 833 l 205 621 l 117 621 l 154 833 l 154 952 l 304 952 z "},"‚":{"ha":310,"x_min":41,"x_max":235,"o":"m 90 119 l 235 119 l 235 18 l 235 17 q 204 -100 235 -38 q 124 -207 174 -163 l 41 -159 q 90 9 88 -83 l 90 119 z "},"“":{"ha":618,"x_min":113,"x_max":505,"o":"m 113 621 l 113 738 l 212 952 l 299 952 l 262 739 l 262 621 l 113 621 m 318 621 l 318 738 l 417 952 l 505 952 l 468 739 l 468 621 l 318 621 z "},"”":{"ha":623,"x_min":114,"x_max":509,"o":"m 300 952 l 300 833 l 201 621 l 114 621 l 151 833 l 151 952 l 300 952 m 509 952 l 509 833 l 410 621 l 323 621 l 359 833 l 359 952 l 509 952 z "},"„":{"ha":504,"x_min":41,"x_max":445,"o":"m 90 139 l 236 139 l 235 18 q 206 -109 235 -43 q 129 -219 177 -175 l 41 -171 q 90 7 89 -92 l 90 139 m 300 138 l 445 138 l 444 15 l 445 16 q 413 -111 444 -45 q 334 -220 382 -177 l 246 -172 q 300 7 299 -81 l 300 138 z "},"†":{"ha":673,"x_min":35,"x_max":639,"o":"m 639 661 l 639 513 l 424 513 l 424 0 l 248 0 l 248 513 l 35 513 l 35 661 l 248 661 l 248 888 l 424 888 l 424 661 l 639 661 z "},"‡":{"ha":724,"x_min":60,"x_max":663,"o":"m 663 114 l 663 -28 l 448 -28 l 448 -282 l 271 -282 l 271 -28 l 60 -28 l 60 114 l 271 114 l 271 490 l 60 490 l 60 632 l 271 632 l 271 861 l 448 861 l 448 632 l 663 632 l 663 490 l 448 490 l 448 114 l 663 114 z "},"•":{"ha":450,"x_min":83,"x_max":374,"o":"m 83 471 l 83 526 q 122 626 83 587 q 228 665 162 665 q 334 626 294 665 q 374 526 374 588 l 374 471 q 334 371 374 408 q 229 333 295 333 q 122 371 162 333 q 83 471 83 409 z "},"…":{"ha":927,"x_min":79,"x_max":766,"o":"m 239 140 l 239 0 l 79 0 l 79 140 l 239 140 m 510 140 l 510 0 l 350 0 l 350 140 l 510 140 m 766 140 l 766 0 l 606 0 l 606 140 l 766 140 z "},"‰":{"ha":1200,"x_min":53,"x_max":1161,"o":"m 616 215 l 616 169 q 637 111 616 134 q 692 87 659 87 q 766 170 766 87 l 766 216 q 746 275 766 253 q 691 298 725 298 q 636 275 656 298 q 616 215 616 253 m 893 215 l 893 169 q 915 112 893 136 q 970 87 937 87 q 1044 170 1044 87 l 1044 216 q 1023 275 1044 253 q 968 298 1002 298 q 914 275 935 298 q 893 215 893 253 m 498 216 q 551 348 498 296 q 692 399 605 399 q 829 336 780 399 q 966 399 880 399 q 1107 348 1053 399 q 1161 212 1161 297 l 1161 169 q 1108 38 1161 90 q 966 -14 1055 -14 q 828 51 878 -14 q 692 -14 780 -14 q 550 38 604 -14 q 496 172 496 90 l 498 216 m 163 713 l 163 669 q 183 610 163 633 q 238 588 203 588 q 293 611 273 588 q 313 671 313 633 l 313 716 q 293 775 313 753 q 237 798 272 798 q 183 775 203 798 q 163 713 163 753 m 722 760 l 288 65 l 201 112 l 635 806 l 722 760 m 54 716 q 105 848 54 796 q 240 899 157 899 q 378 848 324 899 q 431 712 431 796 l 431 669 q 377 538 431 589 q 240 487 323 487 q 104 538 156 487 q 53 673 53 590 l 54 716 z "},"‹":{"ha":389,"x_min":66,"x_max":351,"o":"m 351 572 l 204 328 l 351 85 l 237 85 l 66 323 l 66 334 l 237 572 l 351 572 z "},"›":{"ha":377,"x_min":49,"x_max":334,"o":"m 49 572 l 163 572 l 334 334 l 334 322 l 163 84 l 49 84 l 195 328 l 49 572 z "},"⁄":{"ha":557,"x_min":18,"x_max":538,"o":"m 538 768 l 104 74 l 18 120 l 452 815 l 538 768 z "},"€":{"ha":718,"x_min":54,"x_max":667,"o":"m 528 134 q 644 153 593 134 l 666 5 q 509 -13 588 -13 q 255 73 349 -13 q 157 314 162 159 l 54 314 l 54 406 l 157 406 l 157 482 l 54 482 l 54 575 l 159 575 q 265 814 169 729 q 522 899 361 899 q 667 880 588 899 l 644 732 q 532 751 587 751 q 342 575 359 751 l 546 575 l 546 482 l 341 482 l 341 406 l 546 406 l 545 314 l 340 314 q 389 178 344 222 q 528 134 434 134 z "},"₹":{"ha":901,"x_min":117,"x_max":749,"o":"m 146 454 l 261 454 q 428 535 391 454 l 117 535 l 117 666 l 429 666 q 284 744 392 744 l 117 744 l 117 874 l 749 874 l 749 744 l 587 744 q 626 665 614 709 l 749 665 l 749 534 l 627 534 q 537 392 606 446 q 379 327 469 338 l 682 6 l 681 0 l 460 0 l 146 336 l 146 454 z "},"₺":{"ha":742,"x_min":22,"x_max":696,"o":"m 696 420 q 649 192 696 290 q 515 39 602 93 q 316 -14 426 -14 q 137 -2 229 -14 l 137 380 l 22 342 l 22 472 l 137 509 l 137 583 l 22 545 l 22 675 l 137 713 l 137 886 l 319 886 l 319 772 l 439 812 l 439 682 l 319 642 l 319 569 l 439 609 l 439 479 l 319 440 l 319 136 q 462 208 414 137 q 511 418 511 279 l 511 465 l 696 464 l 696 420 z "},"₽":{"ha":882,"x_min":31,"x_max":836,"o":"m 338 740 l 338 462 l 496 462 q 650 597 650 462 q 611 701 650 662 q 503 740 572 739 l 338 740 m 532 267 l 532 119 l 338 119 l 338 0 l 155 0 l 155 119 l 31 119 l 31 267 l 155 267 l 155 313 l 31 313 l 31 461 l 155 461 l 155 888 l 500 888 q 676 853 601 888 q 793 750 751 817 q 836 597 836 683 q 746 389 836 465 q 498 313 657 313 l 338 313 l 338 267 l 532 267 z "},"™":{"ha":789,"x_min":71,"x_max":699,"o":"m 620 620 l 620 835 l 553 620 l 509 620 l 441 836 l 441 620 l 363 620 l 363 951 l 459 951 l 530 726 l 608 951 l 699 951 l 699 620 l 620 620 m 319 951 l 319 885 l 241 885 l 241 622 l 154 622 l 154 885 l 71 885 l 71 951 l 319 951 z "},"℮":{"ha":791,"x_min":92,"x_max":713,"o":"m 575 545 q 412 614 503 614 q 245 539 320 614 l 245 370 l 575 370 l 575 545 m 412 -14 q 250 34 324 -14 q 133 161 175 81 q 92 329 92 241 q 135 496 92 417 q 255 623 179 574 q 412 671 331 671 q 563 629 494 671 q 671 513 631 587 q 713 350 711 439 l 713 313 l 244 313 l 244 112 q 410 45 317 45 q 635 119 531 45 l 638 56 q 412 -14 528 -14 z "},"∂":{"ha":715,"x_min":54,"x_max":677,"o":"m 366 488 q 231 300 231 488 q 265 172 231 216 q 365 127 299 127 q 466 181 431 127 q 500 339 500 234 l 500 406 q 366 488 460 488 m 54 322 q 133 546 54 463 q 345 630 211 630 q 516 560 446 630 q 443 732 497 671 q 312 794 389 794 q 204 779 246 794 l 163 764 l 136 890 l 172 905 q 327 936 241 936 q 584 806 493 936 q 677 433 675 676 l 677 395 q 639 181 677 274 q 529 37 601 88 q 365 -15 458 -15 q 138 73 222 -15 q 54 315 54 161 l 54 322 z "},"∏":{"ha":866,"x_min":100,"x_max":771,"o":"m 771 871 l 771 -172 l 594 -172 l 594 732 l 277 732 l 277 -172 l 100 -172 l 100 871 l 771 871 z "},"∑":{"ha":784,"x_min":35,"x_max":754,"o":"m 754 -40 l 754 -182 l 35 -182 l 35 -90 l 382 347 l 35 779 l 35 871 l 733 871 l 733 728 l 279 728 l 568 357 l 568 337 l 277 -40 l 754 -40 z "},"−":{"ha":694,"x_min":89,"x_max":598,"o":"m 598 547 l 598 408 l 89 408 l 89 547 l 598 547 z "},"√":{"ha":706,"x_min":34,"x_max":693,"o":"m 34 319 l 34 463 l 271 463 l 355 180 l 552 888 l 693 888 l 435 0 l 285 0 l 172 319 l 34 319 z "},"∞":{"ha":1308,"x_min":56,"x_max":1247,"o":"m 804 195 q 926 134 859 134 q 1035 186 994 134 q 1075 330 1075 239 q 1034 473 1075 421 q 924 525 992 525 q 781 434 840 525 q 740 342 749 387 l 740 325 q 762 263 743 302 q 804 195 781 223 m 378 524 l 378 525 q 268 472 309 525 q 228 328 228 420 q 269 185 228 237 q 379 133 309 133 q 530 242 469 133 q 562 324 557 294 l 562 342 q 522 433 551 389 q 378 524 463 524 m 932 -14 q 651 177 757 -14 q 370 -14 547 -14 q 143 81 229 -14 q 56 328 56 175 l 56 334 q 95 507 56 430 q 206 627 134 584 q 369 671 276 671 q 652 486 549 671 q 935 671 756 671 l 934 671 l 935 671 q 1061 647 1003 671 q 1160 577 1118 622 q 1224 467 1201 532 q 1247 314 1247 401 q 1207 149 1247 226 q 1095 29 1167 72 q 932 -14 1023 -14 z "},"∫":{"ha":361,"x_min":-57,"x_max":428,"o":"m 32 -296 q -57 -286 -16 -296 l -47 -146 q 5 -153 -20 -153 q 87 -66 84 -153 l 87 688 q 150 861 87 801 q 330 921 213 921 q 428 908 366 921 l 413 772 q 354 779 382 779 q 264 685 264 779 l 264 -58 q 203 -236 264 -175 q 32 -296 143 -296 z "},"≈":{"ha":721,"x_min":61,"x_max":644,"o":"m 500 296 q 644 374 583 296 l 644 229 q 506 164 583 164 q 402 187 452 164 l 318 229 q 212 251 269 252 q 132 231 172 251 q 62 174 92 210 l 61 319 q 207 384 124 384 q 315 361 260 385 l 400 319 q 500 296 450 296 m 506 552 q 644 629 583 552 l 644 484 q 510 420 583 420 q 406 443 454 420 l 321 484 q 216 507 272 508 q 132 485 174 507 q 62 429 90 464 l 62 575 q 132 623 92 606 q 318 617 221 661 l 402 576 q 506 552 452 552 z "},"≠":{"ha":715,"x_min":83,"x_max":629,"o":"m 629 342 l 629 197 l 290 197 l 220 66 l 147 104 l 198 197 l 83 197 l 83 342 l 275 342 l 340 462 l 83 462 l 83 606 l 418 606 l 488 736 l 560 698 l 511 606 l 629 606 l 629 462 l 433 462 l 368 342 l 629 342 z "},"≤":{"ha":637,"x_min":27,"x_max":555,"o":"m 536 170 l 536 31 l 27 31 l 27 170 l 536 170 m 555 548 l 203 435 l 203 431 l 555 320 l 555 170 l 30 372 l 30 497 l 555 698 l 555 548 z "},"≥":{"ha":646,"x_min":63,"x_max":597,"o":"m 572 170 l 572 31 l 63 31 l 63 170 l 572 170 m 64 319 l 422 433 l 422 437 l 64 550 l 64 698 l 597 497 l 597 372 l 64 170 l 64 319 z "},"◊":{"ha":636,"x_min":19,"x_max":620,"o":"m 444 444 l 319 703 l 194 444 l 320 185 l 444 444 m 19 444 l 243 888 l 394 888 l 620 444 l 395 0 l 244 0 l 19 444 z "},"◌":{"ha":730,"x_min":83,"x_max":652,"o":"m 368 193 q 408 157 408 193 q 368 120 408 120 q 338 130 348 120 q 328 157 328 140 q 338 183 328 173 q 368 193 348 193 m 189 273 q 229 236 229 273 q 189 200 229 200 q 159 210 170 200 q 149 236 149 220 q 159 263 149 253 q 189 273 170 273 m 548 273 q 578 263 568 273 q 588 236 588 253 q 578 210 588 220 q 548 200 568 200 q 508 236 508 200 q 548 273 508 273 m 611 381 q 572 417 572 381 q 611 454 572 454 q 642 444 631 454 q 652 420 652 435 q 648 398 652 406 q 611 381 638 381 m 123 454 q 153 444 142 454 q 163 417 163 434 q 153 391 163 401 q 123 381 142 381 q 83 417 83 381 q 123 454 83 454 m 189 635 q 229 599 229 635 q 189 563 229 563 q 159 573 170 563 q 149 599 149 583 q 159 626 149 616 q 189 635 170 635 m 548 635 q 578 626 568 635 q 588 599 588 616 q 578 573 588 583 q 548 563 568 563 q 508 599 508 563 q 548 635 508 635 m 408 677 q 368 642 408 642 q 338 652 348 642 q 328 678 328 662 q 368 714 328 714 q 408 677 408 714 z "}}}
